/* XPM */
static char *f6470e0852904ee1887a17ebb6d133baXGpYRKmUxEKnj52f[] = {
/* columns rows colors chars-per-pixel */
"64 64 256 2 ",
"   c black",
".  c #010101",
"X  c #020202",
"o  c gray1",
"O  c #040404",
"+  c gray2",
"@  c #060606",
"#  c #070707",
"$  c gray3",
"%  c #090909",
"&  c gray4",
"*  c #0B0B0B",
"=  c #0C0C0C",
"-  c gray5",
";  c #0E0E0E",
":  c gray6",
">  c #101010",
",  c #111111",
"<  c gray7",
"1  c #131313",
"2  c gray8",
"3  c #151515",
"4  c #161616",
"5  c gray9",
"6  c #181818",
"7  c #191919",
"8  c gray10",
"9  c #1B1B1B",
"0  c gray11",
"q  c #1D1D1D",
"w  c #1E1E1E",
"e  c gray12",
"r  c #202020",
"t  c gray13",
"y  c #222222",
"u  c #232323",
"i  c gray14",
"p  c #252525",
"a  c gray15",
"s  c #272727",
"d  c #282828",
"f  c gray16",
"g  c #2A2A2A",
"h  c gray17",
"j  c #2C2C2C",
"k  c #2D2D2D",
"l  c gray18",
"z  c #2F2F2F",
"x  c gray19",
"c  c #313131",
"v  c #323232",
"b  c gray20",
"n  c #343434",
"m  c #353535",
"M  c gray21",
"N  c #373737",
"B  c gray22",
"V  c #393939",
"C  c #3A3A3A",
"Z  c gray23",
"A  c #3C3C3C",
"S  c gray24",
"D  c #3E3E3E",
"F  c #3F3F3F",
"G  c gray25",
"H  c #414141",
"J  c gray26",
"K  c #434343",
"L  c #444444",
"P  c gray27",
"I  c #464646",
"U  c gray28",
"Y  c #484848",
"T  c #494949",
"R  c gray29",
"E  c #4B4B4B",
"W  c #4C4C4C",
"Q  c gray30",
"!  c #4E4E4E",
"~  c gray31",
"^  c #505050",
"/  c #515151",
"(  c gray32",
")  c #535353",
"_  c gray33",
"`  c #555555",
"'  c #565656",
"]  c gray34",
"[  c #585858",
"{  c gray35",
"}  c #5A5A5A",
"|  c #5B5B5B",
" . c gray36",
".. c #5D5D5D",
"X. c gray37",
"o. c #5F5F5F",
"O. c #606060",
"+. c gray38",
"@. c #626262",
"#. c gray39",
"$. c #646464",
"%. c #656565",
"&. c gray40",
"*. c #676767",
"=. c #686868",
"-. c DimGray",
";. c #6A6A6A",
":. c gray42",
">. c #6C6C6C",
",. c #6D6D6D",
"<. c gray43",
"1. c #6F6F6F",
"2. c gray44",
"3. c #717171",
"4. c #727272",
"5. c gray45",
"6. c #747474",
"7. c gray46",
"8. c #767676",
"9. c #777777",
"0. c gray47",
"q. c #797979",
"w. c gray48",
"e. c #7B7B7B",
"r. c #7C7C7C",
"t. c gray49",
"y. c #7E7E7E",
"u. c gray50",
"i. c #808080",
"p. c #818181",
"a. c gray51",
"s. c #838383",
"d. c #848484",
"f. c gray52",
"g. c #868686",
"h. c gray53",
"j. c #888888",
"k. c #898989",
"l. c gray54",
"z. c #8B8B8B",
"x. c gray55",
"c. c #8D8D8D",
"v. c #8E8E8E",
"b. c gray56",
"n. c #909090",
"m. c gray57",
"M. c #929292",
"N. c #939393",
"B. c gray58",
"V. c #959595",
"C. c gray59",
"Z. c #979797",
"A. c #989898",
"S. c gray60",
"D. c #9A9A9A",
"F. c #9B9B9B",
"G. c gray61",
"H. c #9D9D9D",
"J. c gray62",
"K. c #9F9F9F",
"L. c #A0A0A0",
"P. c gray63",
"I. c #A2A2A2",
"U. c gray64",
"Y. c #A4A4A4",
"T. c #A5A5A5",
"R. c gray65",
"E. c #A7A7A7",
"W. c gray66",
"Q. c #A9A9A9",
"!. c #AAAAAA",
"~. c gray67",
"^. c #ACACAC",
"/. c gray68",
"(. c #AEAEAE",
"). c #AFAFAF",
"_. c gray69",
"`. c #B1B1B1",
"'. c #B2B2B2",
"]. c gray70",
"[. c #B4B4B4",
"{. c gray71",
"}. c #B6B6B6",
"|. c #B7B7B7",
" X c gray72",
".X c #B9B9B9",
"XX c gray73",
"oX c #BBBBBB",
"OX c #BCBCBC",
"+X c gray74",
"@X c gray",
"#X c gray75",
"$X c #C0C0C0",
"%X c #C1C1C1",
"&X c gray76",
"*X c #C3C3C3",
"=X c gray77",
"-X c #C5C5C5",
";X c #C6C6C6",
":X c gray78",
">X c #C8C8C8",
",X c gray79",
"<X c #CACACA",
"1X c #CBCBCB",
"2X c gray80",
"3X c #CDCDCD",
"4X c #CECECE",
"5X c gray81",
"6X c #D0D0D0",
"7X c gray82",
"8X c #D2D2D2",
"9X c LightGray",
"0X c gray83",
"qX c #D5D5D5",
"wX c gray84",
"eX c #D7D7D7",
"rX c #D8D8D8",
"tX c gray85",
"yX c #DADADA",
"uX c gray86",
"iX c gainsboro",
"pX c #DDDDDD",
"aX c gray87",
"sX c #DFDFDF",
"dX c gray88",
"fX c #E1E1E1",
"gX c #E2E2E2",
"hX c gray89",
"jX c #E4E4E4",
"kX c gray90",
"lX c #E6E6E6",
"zX c #E7E7E7",
"xX c gray91",
"cX c #E9E9E9",
"vX c #EAEAEA",
"bX c gray92",
"nX c #ECECEC",
"mX c gray93",
"MX c #EEEEEE",
"NX c #EFEFEF",
"BX c gray94",
"VX c #F1F1F1",
"CX c gray95",
"ZX c #F3F3F3",
"AX c #F4F4F4",
"SX c gray96",
"DX c #F6F6F6",
"FX c gray97",
"GX c #F8F8F8",
"HX c #F9F9F9",
"JX c gray98",
"KX c #FBFBFB",
"LX c gray99",
"PX c #FDFDFD",
"IX c #FEFEFE",
"UX c white",
/* pixels */
"o. .1.O.o.X.| R P X.` ! [ ! K K Y $.R R R E P / -.{ ^ T G G S G R A H A J P K *.T Q Y Y T W o.=.| ` E ' ' ] 2.#.6.t.w.6.-.j.;.@.",
"l g R p e u e e w n Z x x c N M m ^ B n j f c z ~ c g l d a f G / H F C S J D #.V Z n v m C ^ ' T W W Q ! { <.} -.0.w.6.$.q.^ ^ ",
"b x T s i a y y p m F A N v n S S ( S N b b C V ! b x v l c N P ~ Y I D F J G @.G F C n C K } } E ^ / ` _ o.<.( ..=.<.>.[ 9.W ! ",
"n x Y f u u r t d B J S C n n Z C / H Z B m A C ) V n n b Z J { X.R T K K Y L :.I U F F I W  .{ T Q W ~ ^ { :.^ ) o.*.%.[ 2.~ ` ",
"b x ! x a a s g g D P N M x c b m E N n n m A M ~ Z v b c M V | O.D D S S D J 8.Y P D D L E &.| R W T R E | 3.Y T Q / ` ' 3.E I ",
"O.%.4.=.;.,.-.%.=.O.o.$.o.$.] ( +.3.#.+.=.-.@.) }  .[  .@.) X.,.7.;...%.@.O.%.2.:.%.-.<.O.,.7.-.@.X.w.%.=.3.8...] +.X.{ o.1.O.] ",
"z l k n c N ( g z j s f d E n h z b v N ( W s l f h k n X.A H U G D Z [ K C A v m N R  .B N A D V C 8.E J J F G N ] ^ M V B n v ",
"h h k b v B ) l m c h z f F v v c z c B R P z C n M A Z | U E W U Y U } R D H A C S E } J H U P D D 8.^ H H F H D ' ~ N N m b M ",
"k z c n M A _ v V n x m x I m b z k n N W Y v Z N V F G | L R Y K L U X.! Z C D D L /  .P I ! T G G 6.( K K L L F ~ Y m M N M B ",
"k z j z v C ` l B b k v l T x f s d l v R U z m z k n M ) B H D A Z A X.T v v M C S T X.Z S U L G D -.E D D J H Z Y P b z l z z ",
"` ( ( ( [ | :.) ' ) Q T Q *.[ ` ( ^ ( ] -.1.X.=.-.#.O. .<.O.=.*.' _ { 1.o.W L E _ ! _ O.! ( ( ^ ( ` 5.X.^ ! _ ~ I { } _ ! ( ) } ",
"D D +.Y J I I R ~ _ R C Z B Z S J ' V A C V Z S $.Q F D G S C / _ g c n m x k E V b b z b c U J b M A V v G =.V M F P P K >.E R ",
"k l / S n b x D J U F x c f g l m I d d p a g g ! V h j h s h n S r i g l i a K M V V m n k I H j j z k z F -.L U / _ T I <.L K ",
"c z ) D N n x Z F R H z b z z b Z ~ h d s h l l W Z x c j l c Z U h d j b z c W Z F H A M n ^ Y z v b x x H ,.Q ^ | X.^ P 3.I J ",
"k g [ V z c l c b R P g k f a h C o.g a a g k k W A x z j l x J _ f h v N B M ] A D H G V M ( ! v N Z M c J 6.~ '  . .] Y 3.P F ",
"U L *.I L I G F G ' } F G C V A T 3.J F H H F F X.! H F D G K ' @.Z A C A S Z ;.L P K G D S ' _ J F S A B T ,.U W Q ^ ! T q.Q K ",
"( ( ^ Y ! ) @.R W ! _ Q W @.` ^ _ X.] _ :.1.' ` o...} +.i.| ..| ~ ) W $.' Q Q ) ) / ' +.E E / ( ^ Q %.R R Q ) I K ^ ` ' { #.| ) ",
"u p i h j M ! a i p d p d ) c e 0 r s i D U v B N m v Z =.i i a s f a ( K l l l z z G ! b Z Z B n M O.A A D C b x / / ^ { ] ` W ",
"d s d l x V E j f a g j k [ n u r r a s K Q N F D D A K @.l z g g k z T L B V A A V L / B S F F V V X.B Z S S B M ~ ^ Y ! / [ ) ",
"j d f l v A _ h s u d h h ] c u u r u d P Q v C V B B J ..c x j j x b E U F K U U S Y ) n M V V M M I m M B V B C U E K J I Q ~ ",
"z l h l x S [ j f s h h h _ b s p i p d J P l c z v c S $.l k j h x l ' P B G G F M I ' h v b v l c ! k j j k v b Y U B M C G L ",
"@.@.8.=.>.8.7.*.$.:.&...X.@.] O.X.#.@.o.%.%.} [ -.$.#.=.9.>.:.2.3.&.;.6.' _ [  ./ ] o.O.! ~ o...[ @.*.Q ~ ` *. .' +._ ~ ~ ) ( _ ",
"u u =.n a s f d p E E p s a i d j / l k k j h h J x h k x n b I ) m V C B C F o.J I R U I L ;.Q B G Z m N I  .j n b k k j _ s p ",
"t u +.z t i g j f W Q p d d a s j T j k l c v B A x c c v m N K E N Z A Z D H [ W Q ! ! ~ E >.E V P L J G / O.p x v z l l  .s p ",
"r t %.l y u j l h ~ Q d s s f d h K f k j v N A F v c c n N B G K b N V B A D / R Q ! W W E >.T B J L G H ' +.s f c x k c | f a ",
"0 e *.h w w y d i ~ Q u y t i u h R i s a j v m A z k l c m m V C x M m c M S ] H K J J D D $.H v B C n m ~ @.y a p a p g  .d y ",
"+.<.b.=.$.$.&.&.%.w.0.+.{ ) Q E ) -.E ! R ( ~ ( @.' ] _ ! / _ X.%.{ ' ` P K W =.E ( _ ~ _ | t.o.^ ( ( U U } <.P Q E T R / t.) W ",
"L R W L K Q 1.I I I I L G O.W J F C Z G _ [ n n Z Z D H | I R E ~ ! W  .P V B N m m W *.L Q _ R Y Y -.D m N S S A ` W F L U L H ",
"y a p p i k } a g h g h s ` C N c z v B W U p i s d k n ( n V B M N m H B l l j h f J -.D H P H K I >.A z j g g f ! B u d f h j ",
"s s p s s z ( g j z x k f [ A M b n B C W ! f p a h c M Y n C V V n x C n x c c v b R *.A G H G J I 1.G n c h g j / Z p a d d a ",
"y u y y r k ` p s h h h a o.Z l k j l z K R d p p g z m S j v x v k a m l f f h z j K *.B D G Z A H 1.J N n l j h _ A t w i u r ",
"L T R E ~ ..w.T W ^ / ) ) 7.) E R U T Y ] ..U R R R ~ ] =.] } _ ^ W ~ ..! R R K P G ^ <.Y R Q ~ W ~ 8.L D A Z F H &./ Z A J E P ",
"-.<.x.e.0.r.w.7.9.k.d.>.<.O. .@.%.f.%.%.%.&.$.>.9.;.-.>.>.3.6.s.a.$.<.;.$.%.-.<._ R E ^ ( ) 7.<.} } } ^ ! ] 3.{ | O. .{  .l.-.` ",
"r t [ z w t r e e H Y 0 w r r q y O.y u u t y a Z j d y y y u V I y p i d d g U g p t y a p ^ J y i a g h C [ s u u u q w @.m i ",
"u i ..b t u i a p U W r y y u y a ..a a s p f k C z k f p s f B P s f h j k g C g s d a g d ) L u a s g j b I d i u i e t $.n i ",
"p p ] x r u i s a I E u y i p p h _ p p s s d g B l h k d d d V P p f d g f a m a t y u p u _ I e e t s g h N t q q w 0 w -.m i ",
"k j { n a d j c j L I s f f f d l ` j f g j k h D M l v l l x Z K d f g k d a D k s i t u r / H 9 0 0 t u g G r 9 0 q w e #.m d ",
",.>.8.>.o.#.6.2.>.;.3.-.;.-.#.| X.=.$.,.y.9.%.O.;.6.8.7.6.6.q.0.0.<.#.8.6.*.$.1.2.7.w.s.0.1.e.*.~ T #.] ' ..%.X./ +.} [ :.5.:.-.",
"e t t y t a R s a i p s s I k u p a y t J Q u s s d g k T h j h l c v ] I m B m c x F o.A m v c l x @.c s p d s r K J f j h c x ",
"9 q e w 9 t G e q q w t t U k q 0 q 0 7 z Z r r y y i f D f h d f k l ^ F z b c j g N ` M c x z k h R l s i p i r J C t y t p s ",
"8 9 w e 0 u E w q w r t u ] z 7 9 q q 7 j V r e r t y d R j j j h j g D m h x z h s B | b x k j j d U h d p p y e G m 0 w e i s ",
"1 4 8 9 6 i o.q 8 0 w e r Q f 5 7 8 9 7 p z 9 9 9 0 q a Q s p i y y e x h p g g a r c _ h g p t y y ( u 9 9 9 6 5 M x 6 9 0 t p ",
"+.&.,.*.+.:.t.=.#.O...} { :.$.[ ] o.{ [ X.@.] { X...O.;.7.#.+.#.<.;.+.+.~ ~ ) ) E E / O.I T / _ W R %.^ ~ ^ Q G H ` ^ P G U ! ^ ",
"Z F 7.R m C Z Z V P E V C S A V G $.A C C C B B ] U F P P G C { 3.P L G C G I  .S M n m b n @.| Z C S H F / <.N N m M N c -.P F ",
"e p | j 5 7 9 8 5 j S a f g p d x ) y t t r 0 0 B j e y p p u D W e u a a a f W u e t e r y ` I u u p a y N o.i r 0 0 w t $.d a ",
"r t  .h 4 6 9 e 0 n Y f j j g k v ] u r t r q 0 H l r u p p u J / t i a a a f _ u t y y r y [ L r y u i y m | i e q r t i &.k j ",
"0 0 ' s 5 4 8 e 9 c G a f d d d z ' r 9 0 9 5 3 H j r u p a i L / q u u p p s I e 7 7 7 7 8 ^ D 8 0 q q 0 c } e 9 8 7 9 w %.g s ",
"C N ` V x c v c b ( +.I G K Y R Y =.V m B N x j P S M C B B m T [ h k g j z x ~ x z h h l d ( L d s a f s C  .k h g j k k :.B m ",
"H F L S F / ,.F Y ^ ^ ) K 2.&.{ ^ ^ W I o.=.P J Q ) /  .w. .( Y ( _ U Q Y H D F W ^ ' o.L L K S Z Z %.P C D A D Z  .[ I P U K P ",
": : 3 4 , p ' 4 4 4 3 2 6 ~ j 9 q y e e K / q w w e q p ( s s h k d a P B g h h y w l G r y i r 9 q ` t 6 8 q 0 7 W N 5 9 y t i ",
"4 7 8 4 1 a [ 3 4 8 7 7 9 L f 0 q e w 0 D ~ r t u u e a +.j h l c k s G b d g d t 0 s B q e y e 9 0 ` q 4 5 8 8 4 E M 4 7 q e t ",
"2 7 4 2 2 s } 8 5 4 0 e w H f 0 q r 0 8 V T 9 w t q 6 t %.h f g j g y B k i a d p 0 d V 9 0 e t q q O.q 2 4 4 5 5 ~ N 2 5 7 q q ",
"u t q q 0 k } t u w t d d D f a d s d a G I e u y w 8 u ) d p p a p e H z e y y i w v I w r e u y u *.i 9 6 6 8 8 ( A 0 e w y t ",
"+.{ ;.{ U ! { } { +.@._ O.=.#.%.>.a.6.0.t.3.&.*.2.o.R ~ _ S D E [ U G _ T Y ] -.~ / [ | {  .=.O...O.>.) ^ ^ | ^ ! { ` ( _ >.| } ",
"8 6 / h < 2 2 5 4 B R 5 q r e 9 u #.l g h j s y U m i y u e 8 C { g i p u i f &.c j h s f s [ G t e 8 9 6 a T i i a i y u 1.m l ",
"8 3 ! f 1 1 2 5 4 m R 0 e w 8 7 u [ h j f i i a R N s p f p q C } d u t r t a [ j d a u y e ( A 6 8 3 2 1 y I 0 r u r w r *.l p ",
"6 2 Y d 3 5 4 0 5 n T q w w w 0 i [ s f s p a f ^ B d g j g u Z ` d i u i i p ) h i i y y w ( Z 4 5 2 1 , y U 8 w w q q t %.g r ",
"2 1 / g 1 4 5 8 2 z K 7 6 9 w 0 u ' e p u w i s I l y d i y 0 M ( e e e e t 0 I t 8 8 8 q 9 ^ B , 2 , : - r Y 3 8 8 9 w e %.s q ",
"I ~ <. ._ ! { ] / _ [ I E [ [ ] | %.[ _ ( / ` ~ O.) [ | @.../ >.5./ { [ T ^ ^ _ U E T I ( ~ ,.<.| } _ ' _ _ #.T W Y K J G %.P L ",
"t p p p g b 2.j h g d p i ] P m M v b z H Y l k l z n C 1.H V G D F G ^ D b n x l z H _ M B B N M C ~ N n n x c l D A k l z j j ",
"; , 1 2 2 t { , : , , : = D k r i i e q x N 7 r r e r a _ y r r u i u F k 0 9 w 9 7 j R r y i e 9 p / p 9 t y r q B V p f f i r ",
"; , 6 6 3 r ( 2 > < 3 2 : v u 0 t i p u M D 6 e u y u s [ d u i d a i L v w q e w 9 j R t u u t w p ( f w y y i y S B q y p i e ",
"< < 4 3 1 t } : * - > : = b p 7 8 w r e m F 2 7 e t t y ^ a r e e t i Y M 9 9 0 q 9 j R 0 t r w 0 q L s r r r r w N n 8 q r t r ",
"g g g h h M &.u u y u i r J b i s d s i B K a f f d s f _ j d p p x z ] Z t r r y u v E p h j j h k %.v k h h h g U Z u i s h h "
};
