/* XPM */
static char *_4b489decf534001c37c274b8fe43e96eDLucXH9SRz0JNX0[] = {
/* columns rows colors chars-per-pixel */
"64 64 256 2 ",
"   c #374D54",
".  c #3B555B",
"X  c #395359",
"o  c #33464C",
"O  c #3C5B62",
"+  c #385B63",
"@  c #3D636C",
"#  c #3A636A",
"$  c #3A6A74",
"%  c #38727C",
"&  c #2F6572",
"*  c #44585D",
"=  c #404E51",
"-  c #435D64",
";  c #485E65",
":  c #446166",
">  c #44646B",
",  c #4B646B",
"<  c #44686E",
"1  c #4B696E",
"2  c #4C6266",
"3  c #51686C",
"4  c #426772",
"5  c #446B73",
"6  c #4C6C73",
"7  c #456D7A",
"8  c #496874",
"9  c #536D73",
"0  c #586E74",
"q  c #43737D",
"w  c #4C737B",
"e  c #497376",
"r  c #53747C",
"t  c #5C757B",
"y  c #56767A",
"u  c #64777C",
"i  c #406157",
"p  c #223639",
"a  c #59857E",
"s  c #3E7884",
"d  c #397C9A",
"f  c #317695",
"g  c #337EA3",
"h  c #2C7BA3",
"j  c #4C7682",
"k  c #4B7B84",
"l  c #477A88",
"z  c #537B84",
"x  c #5B7C84",
"c  c #567B88",
"v  c #467E96",
"b  c #527589",
"n  c #657D83",
"m  c #3C8694",
"M  c #3B9BB6",
"N  c #3A8CA9",
"B  c #3BA7B8",
"V  c #48838B",
"C  c #53838D",
"Z  c #5C838C",
"A  c #5A8386",
"S  c #4B8493",
"D  c #4D8A9B",
"F  c #488694",
"G  c #558492",
"H  c #5C8B94",
"J  c #5C8D9B",
"K  c #578897",
"L  c #5C929C",
"P  c #51929D",
"I  c #49929B",
"U  c #65838B",
"Y  c #68868A",
"T  c #648C94",
"R  c #6B8B94",
"E  c #628D9A",
"W  c #6A8D9A",
"Q  c #658593",
"!  c #728D94",
"~  c #758F99",
"^  c #65929C",
"/  c #6D929C",
"(  c #6B9598",
")  c #73939B",
"_  c #7A949C",
"`  c #789699",
"'  c #748C8C",
"]  c #4888A4",
"[  c #558DA5",
"{  c #4997A9",
"}  c #5B94A4",
"|  c #539CAC",
" . c #5C9BAD",
".. c #5695A7",
"X. c #488EB2",
"o. c #4B9BBC",
"O. c #4998B5",
"+. c #539DB3",
"@. c #5B9DB4",
"#. c #5698B9",
"$. c #518DB3",
"%. c #6495A3",
"&. c #6B95A2",
"*. c #6B9AA4",
"=. c #649BAC",
"-. c #6899A9",
";. c #7396A1",
":. c #749BA3",
">. c #7B9BA3",
",. c #739CAB",
"<. c #7B9DAB",
"1. c #7996A3",
"2. c #669CB8",
"3. c #7C9EB5",
"4. c #688FA0",
"5. c #58A2AE",
"6. c #49A6BA",
"7. c #54A3B4",
"8. c #54A4BB",
"9. c #5BA5BA",
"0. c #5AA8B8",
"q. c #53ACB8",
"w. c #6AA1AD",
"e. c #74A1AB",
"r. c #7BA3AC",
"t. c #79A6A9",
"y. c #63A4B3",
"u. c #6BA9B5",
"i. c #63A3BB",
"p. c #6BA3BC",
"a. c #63ABBC",
"s. c #6BACBC",
"d. c #67A6B5",
"f. c #75A3B3",
"g. c #7BA3B3",
"h. c #7BABB5",
"j. c #75ACBC",
"k. c #7BACBB",
"l. c #76A7B8",
"z. c #68B1BB",
"x. c #7CB3BC",
"c. c #78B4BB",
"v. c #79A19D",
"b. c #3F94C3",
"n. c #4899C3",
"m. c #549EC2",
"M. c #4BA8C4",
"N. c #54A3C4",
"B. c #5BA4C2",
"V. c #5BABC3",
"C. c #58AAC9",
"Z. c #59B2CB",
"A. c #5BB8D1",
"S. c #4EB0CD",
"D. c #64ACC3",
"F. c #6BACC3",
"G. c #64ACCB",
"H. c #68A8C7",
"J. c #73ACC3",
"K. c #78ACC5",
"L. c #65B2C3",
"P. c #6CB3C4",
"I. c #65B3CB",
"U. c #6BB4CC",
"Y. c #6CBAC8",
"T. c #73B2C3",
"R. c #7CB3C4",
"E. c #73B4CB",
"W. c #7CB6CB",
"Q. c #74BCCA",
"!. c #7BBBCB",
"~. c #7ABAC4",
"^. c #68B7D3",
"/. c #73BBD3",
"(. c #7BBDD3",
"). c #77BAD7",
"_. c #66AED0",
"`. c #659DC1",
"'. c #7AC1CB",
"]. c #79C2D7",
"[. c #67C0D5",
"{. c #75C5E2",
"}. c #82969B",
"|. c #848E8F",
" X c #849DA5",
".X c #84A4AC",
"XX c #8CA5AC",
"oX c #89A6A9",
"OX c #96A9AD",
"+X c #84A5B1",
"@X c #84ABB4",
"#X c #8BABB4",
"$X c #83ADBA",
"%X c #8BAAB8",
"&X c #97ADB5",
"*X c #83B3BC",
"=X c #8BB4BC",
"-X c #8AB3B9",
";X c #93B4BC",
":X c #9AB4BB",
">X c #A3B8BC",
",X c #A3ABAC",
"<X c #84AEC2",
"1X c #84B4C3",
"2X c #8BB5C2",
"3X c #84BAC5",
"4X c #8BBAC4",
"5X c #84BBCB",
"6X c #8CBCCB",
"7X c #87B5CA",
"8X c #93B5C3",
"9X c #9BB6C3",
"0X c #94BBC4",
"qX c #9BBBC4",
"wX c #94BDCB",
"eX c #9BBCCA",
"rX c #90B7CA",
"tX c #82BDD3",
"yX c #89BDD3",
"uX c #94BFD1",
"iX c #A3BAC5",
"pX c #A3BDCA",
"aX c #A6B9C3",
"sX c #83C2CD",
"dX c #8BC3CC",
"fX c #8BC3C6",
"gX c #93C4CD",
"hX c #9BC2CD",
"jX c #95C6CA",
"kX c #85C3D3",
"lX c #8BC4D4",
"zX c #88C7DA",
"xX c #93C3D3",
"cX c #9BC6D4",
"vX c #9CCAD3",
"bX c #9CCCDA",
"nX c #94C8D9",
"mX c #9DD1D8",
"MX c #A4C4CD",
"NX c #ABC4CD",
"BX c #A7C5CA",
"VX c #B2C6CD",
"CX c #A3C4D2",
"ZX c #A4CBD5",
"AX c #ABCDD5",
"SX c #A4CDDA",
"DX c #AAC8D6",
"FX c #B4CBD6",
"GX c #A8D2DA",
"HX c #B6D3DA",
"JX c #88C9E2",
"KX c #95D4E5",
"LX c #98CFE0",
"PX c #A7D4E2",
"IX c #B6DAE3",
"UX c #C1D2D7",
/* pixels */
"J.5XZ w J.f.I D F l l P l.y.s.R.~.r Z D O.6. .G [ 6.6.@.8.6.M.[ Z SXrXR.T.R.T.j.j.J.J.j.R.$X0 6XT.7XE.a.F.a.s.R.y. .p.a.c l +...",
"W.kX^ c yXl.m { | V q L 7XU.T.dXlXr %.} 8.Z.y.V ..N.M.9.+.N.V.../ SXCXDXSXcXxXcXcXZXDXCXAX2X6 cX(.xXtX(.5XE.!.uXT.F.5X(.H v V.9.",
"j k > : H k % l s $ q k W ^ H C k   z l l k k 7 j V S [ ] [ } l Q 8X@X#X#XXXXXoXXX:.` oXoX) O e.=X%X+X<.>.<.E ~ ~ ! R c 2 X $ # ",
"l v 7 r Y Y Q Z k k - z z z A z z U z r w 9 r z - = ; : ; ; > 6 , 2 ; - , , ; X 9 6 7 7 7 7 z k z z j w 6 X 9 y y y x z x x x x ",
"Z.G. .l.<XK.p.J.A.^.e !.Q.!.kX!.kXlXkX5X!.lXkXJX-._ iX;X%X3.g.3.3.g.l.l.l.K.g.;.PX]././.L.0.P.P.L.V.V.I.xXx x.6X3X3X2X2X2XrX6X0X",
"M.$.} j.u... .@.M.V.5 s.P.T.R.a.R.5XR.j.1X1XR.(.J }.8Xl.2.$.#.2.2.2.2.B.N.N.../ lXD.0.P.J.H.H.F.H.B.7.+.7Xt ,.l.l.h.h.%X%X;X;X;X",
"S. ...p.f.| =.D.Z.C.w !.Q.!.5XW.5X6XR.R.wXwXR.W.H }.CXB.N.N.N.N.B.B.N.N.N.M.@.E xXW.P.P.P.D.L.L.D.H.0.8.yXt w.s.x.*X0X8X=X;XqX9X",
"+.[ J ;.;.K ,.i.8.O.$ x.R.R.R.T.R.W.T.s.5X6Xd.=.k n pXR.H.H.H.J.F.p.p.p.p.J.,.A wX1XR.W.T.s.P.s.a.a.5.| i.- E *.;./ R Z ` ( ~ ! ",
"$ 7 4 ; 0 9 0 6 9 1 3 , 5 7 9 6 w 8 4 4 > > O   . - ; 9 0 3 * * 4 6 8 > > ; - . 4 > O > ; - X . . O . X . X   X . . X X o o O O ",
"=.2.v W NXeXeX8XiXpXqX8X<X2XaX:X;Xn c =.O.#.$.X.o.[ j l b b b l k 5.m N { { 7.0.q.0.L.E.1XrXx $X6X6X2X*X4XR.0X0X*X*X4XsX^ Z U.D.",
"=.2.l Q pX8X8XiXiX=X8XrX8XqXqX9XpXn 7 #.O.o.O.o.n.v b c G Q W [ J I.X.] ] $.#.B.N.6.6.6.M.E.c 7XgX3X3X3X3Xs.x.*Xu.h.*X4X/ Z F.0.",
"j.2.l R NXrXiXaXaX9X8X8X8X9X9X9XpXU $ $.o.o.o.m.o.v b j b c Z [ J B.X.] ] ] X.O.+.{ N N 6.H.c 8XwX2X3Xc.2X*X*Xc.u.u.k.4XE c D.0.",
"=.=.j t eX<XaXaXaXaX9XrXqXqXqX9XeXc & X.n.o.o.m.m.] j 8 Q H -.$.,.I.M O.{ { { 7.6.6.C.Z.(.R.r 0XhXhX3X~.3XgX0Xc.j.c.k.1XH $ a.y.",
"9 8 , 2 , > , 9 3 9 8 6 9 , , , -   X s $ $ $ @ 7 @   o . 6 4 s k z $ $ # $ j j e j z z z @ O 4 6 > > > > > , 6 5 6 > O . O @ O ",
"NXCXxXwXxXwX9X+XXXrXG f.*X*X-X=X=X;X2X4X*X=X*Xk.T H l.u.5.| | @. .|  ...[ { F k +.{ | { { 7.+.{ | y. . .@.z <.f.2.i.i.@...a.9.@.",
"aXE.Z.L.U.yXiX:.XXyXJ 4XvXdXvXvXvXxXxXsX!.kX!.lXr. .I.S.Z.^.^./.U./.U.U.^.^.i.S S.M.6.6.o.6.6.M.C.M.M.6.M.K $XB.#.B.H.B.8.D.B.#.",
"8X8.M.V.M.E.;X,.;.9.l -X4X3X3X3X3X3X3XT.T.T.a.W.e.} 8.N ] X.X.2.2.2.`.H.m.N.{ m B M M M M M 6.o.n.O.N M M k ,.#.#.2.p.p.2.p.2.2.",
"rX(.q.P.(.6X0Xk.h.Z.$ *XdXgXvXhXvXvXvXvXxXlXsXzXf.p.nXO.X.o.O.O.O.o.o.M.8.M.[ F S.B B B B B 6.B M.6.6.B B C %XK.l.l.$X3.3.3.<.,.",
"r 9 O 6 r , 9 5 6 7 @ L ^ ) ` :.>.~ ) >.R c T / c G ) H V % s % s s V m V F $ $ l % & $ $ % $ & % l $ % V 6 t 0 3 9 3 ; ; ; * ; ",
";.*.x 9 k..X.X+Xr.oX:X:X=X=X=X=X4XT ) =X+X.X+X#X$Xr.) >.>.) 1.x c E E &.^ J } L K L H J *.:.9 :.,.g.g.,.g.h.+X,.,.g.,.%.C z Q G ",
"$XR.E Z bXwXgXDXDXDXCXDXnXnXvXvXmX,.#XAXMXvXvXcXcXAXGXcXxXxXbX2Xd.A.C.s.0.s.s.s.F.L.P.T.F.P.C R._.^.(.U.U.F.W.<XK.K.<Xj.L U 2.B.",
",.k.J Z gX6XhXNXNXuXcXcXxXgXgXgXvX*..XFXMXwXwX6XgXhX3Xs.s.j.W.g.K C.8.| { 5. . .5.5.| { M { k 1XG.C.E.U.H.F.J.k.j.J.l.l.L U d.8.",
"2XgX-.Z LXcXFXFXHXSXSXSXGXbXSXbXPXe.#XHXDXlXnXcXcXZX6XtXtXuXSX=X} ).U.a.0.a.a.0.a.L.a.8.S.6.r hXE.W.6XR.7XrXrX7X7X1X1X6X,.Q 2.@.",
"Z x < , %.Q ! _ _ R ;.1.>._ _ R T w A ! ^ -.-.r.,.=.&./ E E ) x k ,.E ^ V V C C V V q j k q > ~ W R U R Y U U n x t y 6 , * - - ",
") ! ! ) ) ) ) :./ U 6 +X&X.XXXXXXX&X.X Xg.h.h.$X;.C %.L J L L J L K Z T R / c , ) ) ~ U y / ,.,.,.<.<.r.} w J [ P S D D D P [ ] ",
"xXeXMXMXCXCXcXcXxXgXU eXHXDXDXFXFXDXFXFXwXtX(.cX#X$XKXJXJXJXJXzXtXJXJXJXzXnX2X/ IXPXPXLXzXzXlXkXkXzXnXxXY.C p.^.m.X.m.B.B.9.B.B.",
"1X2X9XqXqXqX6X5X5X2Xn 2XhXcXcXVXNXpXVXpX$XT.G.wXOX=.G.p.H.H.G.G.H.U.E.H.H.U.f./ SXlXU.G.I.V.!.U.U.U.(.6X~.z @.N.$.X.#.#.#.#.2.@.",
"wXeXMXMXMXMXxXlXxXgXn wXbXHXHXHXFXFXFXSXCXbXkXPX&X-.^.m.N.N.C.C.C.Z.Z.^./.zX$XR PXbXnXnXbXnXxXnXzXkXlX5X'.C H.^.U.U.U.U.I.I.I.G.",
";.;. XoX X X>.:.;.W > H J _ _ >._ ) W W R ! Y W 0 ) s.@.@.#.$. .i.i.s.l.$X;XQ 9 %XXXXXXXoX X>.W R T H G H > c D D S S S K S V S ",
"z G O y ` ! ) ) ) ) ;.>.E ^ / *.*.6 / e.:.:./ / ) ) ) >.) R c . - / R H U c c c Z k c G C q . C V V S K D D F F F S S K w 9 R Z ",
"J.].j Y IXFXHXFXHXHXFXAXAXHXAXAXvXz :XHXAXAXGXAXZXSXGXDXvXcXLX%.T KXJX{.nX5X6XT.T.R.yXzXzXP.A P.^././.]./.Z.I.Y.U.Q.E.].,._ zXP.",
"7.6.# Y ZXBXNXNXNXNXVXVXVXVXNXMXcX6 %XDXhXhXhXhXhXhXMXMXhX6XxX^ &.vXlX).7X8X1X9.{  .K.tXtXE.k a.U.H.H.E.U.I.U.P.D.s.P.tX;.U P.7.",
"8.V.+ W GXDXAXAXDXAXSXSXSXbXbXSX5Xq R.JXnXSXxXZXSXZXDXvXxXxXbX,.,.PXnXnXxXT.wXR.i.{ K.nXxXkXk W.]./.tXkXzXbXbXnXlXlXxXcX>.~ (.a.",
"F S   y @Xr.<.*.=.-.%./ &.*.} &.G & V J %./ *.*.,.r.e.e.f.f.h.Z U 2X$Xf.f.f.f.g.%.%.=.,.f.2.O c %.E &.;.&.:.) ) ! _ ' ! t t ,.%.",
"x z x Z z q q w k k . r A R ~ / T _ ~ ^ ^ U n x 1 : w w z z A r x x x x x U x > 7 $ q % % % k l l k k k c 4 w 4 < 4 4 5 6 e 4 4 ",
"cXxXlXsXQ.a.P.Q.L.L.z lXGXHXHXHXVXMXhXlXkXZXeXxX+X*XnXzXlXlXnX5XkXlXlXnXnXbX4X=.C.n.n.b.n.M.Z.I.^.^.I.^.tXT nX!.Y.E.T.Q.s.p.L.D.",
"R.R.3XR.a.q.0.a.6.q.C fXhXBXBXNXiXiX0X~.~.6X7XCX&Xr.!.a.s.P.T.fXhXgXdXjXgXfXh.[ M.n.n.n.C.C.G.U.U.I.Z.M.E.Z wXtXU.P.L.L.D.9.8.8.",
"5X3X3X6XL.q.Y.L.q.'.Z fXZXVXFXVXVXVXNXdX'.(.CXUX&Xr.Q.5.c.gXGXHXAXAXZXAXGXAX;X..S.C.C.Z.S.Z.U.U.I.Z.S.S.tXZ xX/.I.U.I.I.V.0.8.8.",
"*Xh.x.x.y.y.u.d.0.c.r f.@XOX&X&XOX&XoXe.F w.&X` x ^ 6X4X0XqXqX;XqX8X9X=X$X*Xr.c C.V.N.8.o.O.a.a.a.D.B.B.l.r R.V.8.a.a.9.0.7.+.| ",
"e 5 . : : 6 w w w w 1 8 6 6 6 6 5 - 9 9 8 r y y U t . 0 y r : p   1 6 9 < 1 1 9 r e e 5 4 @ > $ @ 4 4 5 8 3 3 - : > : 1 > 8 5 5 ",
"T.U.l *.3X6XR.R.R.R.s.T.~.P.P.!.zXZ aXHXkX(.DXFXFXFXpXCXFXyXU.G A P.e.Y Y ( ( *.h.h.j.u.y.F.k | ] ] [ =./ |.! G C C A oX9 L 9.#.",
"W.I.% e.cXwXj.u.u.1Xa.u.l.T.j.c.kXL %XCXU.I.rXpXVXVXpXNXVX6X^.=.j G.-.A D N [ *.t.e.t.( ( L $ D g d d d v l d d d v S P : P m.] ",
"D.{ & *.3X2X2X*Xk.2Xy.y.2Xc.c.R.kXK k.DXE.I.6XMXCXVXNXpXiXeX].=.k G.S U *.=.*.t.t.v.` R a I % m N N N ] ] d g h g g m ..6 D o.$.",
"8.{ & W 3X*X4XNXqX3Xy.d.3XT.j.x.'.k +XpX9XrXpXpXNXVX9XiX9XqXcX&.k V.$ i A Y ( T A a y e m { # N h h h h h h d d d d F I @ K N.9.",
"7 q @ r x A x y z 5 < z z z w r k e n U R R R ) U t n t u U x t y e , > > , : . < > # @ > @ < 4 @ @ # @ 4 O O - : : . @ - > > 4 ",
"+.@.y.y.p.F.9.#.9.y.r h.+X%X$XK.a.J.E.G.E.6X5XlXe.,.bXlXcXvXsXsXvXgX6XZXvXnXr.> a.z.z.a.a.a.5.u.a.7.a.a.D.k H / :XqX;X&X#X#X+X,.",
"8.9.9.a.a.7.8.H.V.+.w K.<X8X1XJ.H.J.G.Z.G.R.W.lXg.f.KX/.(.zX0.| mXQ.I.lXkX].f.6 8.| | +.9.7.{ y.5.{ 0.0.6.l S / 9X0X$X$Xh.*Xu.d.",
"7.a.7.7.a.9.V.G.V.+.r G.H.$Xj.J.H.J.E.U.G.s.W.zXg.w.KX(./.bXU.D.GX(./.bXnXzX$Xw 8.{ { ] [ O.{ 5.{ v ..I 6.l %.:.iX*Xh.$Xw.h.f.-.",
"V.Z.8.6.7.8.V.6.6.8.j tXW.1Xp.p.U.J.W././.!.5XzXW *.KXxXgXGXcXbXGXGXGXHXSXPX+Xq 8.{ { { +.7.{ a.+.| | { 6.7 y.$XCXjXqXeX3X0XeX*X",
"# # # # # @ @ $ q q > r r 6   o O > 6 8 r r 6 >   : 8 > 6 9 1 3 9 0 0 9 0 9 - * < < 5 5 e e $ > @ 5 5 $ $ . > 6 t y t u t t y 6 ",
"n n 0 x T T Z E / &.,.:.,.&.%.-.;.y e.$X$Xk.@X.X+X#X<.>.f.e.h.( y *X@X-X-X*X=X=X=X0X0XqX0X*X6 :X>X:X:X$X*.e.r.) ,._ ~ ` , 6 Z T ",
"qXNX_ %.nX6XW./.tXxX6XyXlX5XU.Z.).E gXbXnXbXDXhXMXhX3X2XgXvXbX;XT mXvXmXfX'.P.z.jXjXjXjXjXfX6 >XVXNXNX0Xx.t.@X@X$X$XoXOXy R 9X:X",
"-XeXW H 6X*XR.U.E.6X6X6X5XR.T.D.E.E jXZXMXAXMX0X0X0X*X*X0XhXAX:XH lXdXjXfXfXc.c.fXjXhX0X4Xh.1 XX>XBXBX9Xx.h.t.t.t.@X.XoX2 ! >X&X",
"=XMXR K 5X3X5X).tXyXxXxX6X6X(.).bXE MXIXGXHXHXGXZXZXDXvXZXHXIX:XE GXSXmXSXSXmXmXnXjXgX4X3Xu.1 &XVXNXBX0Xc.t.r.@Xh.x.r.@X, >.iX>X",
"#X0XU q w.%.f.f.f.f.f.g.<.,.,.^ <.r ) oX>._ }._ _ _ }.! R _ >.U 9 ) U Y Y Y U U t y r 0 1 > * 9 9 6 0 8 < > . * - # - ;   0 Y n ",
"1 w 4 > < > > 1 1 1 ; 6 > < w k V y e k k k k C z : y w k x y y 0 1 0 z z A 6 * z c x y x U W Y U U U Y U 9 u n Y u u u 0 u 0 0 ",
"-Xx.h. X*X'.'.dXjX3Xr J I ..D.A.A.| V Z.^.A.[.{.@.x W.P.L.1X#X>.>.r.+XR.a.T.e.9 W.U.T.P.D.T.*X#X;X=X=X5X4Xt &X;X:X:X:X>XXX#XXX#X",
"$XR.k.>.h.Q.Q.5X4Xx.e S | %.9.Z.M.7.V 5.Z.Z.P.p.G Z R.u.0.1X.X>.<.<. Xh.a.0.e.x !.Z.L.D.C.F..X XoX+X$XR.*X9 _ >._ _ ` }.oXoX>.R ",
"x.j.l.r.r.P.Y.3X6X3Xz 7.Z.H.p.C.6.a.I 0.S.A.H.=.H W 6XP.L.3XXX.X<.1.1.$XP.^.j.z (./.U.C.U.R.XX,XOXOX#XOX:Xt .XoXoX X` ' ` }. X~ ",
"dX6X4X-X-X'.!.sXgX4Xw  .@.=.} } C } D K | +.} J j x e.w. .%.U x y 0 9 x } =.H 6  .} } } J &.Y ' ' u R ;.>.; z >..X_ U u Y U n n ",
"r r y y r w w w e e > : > > : - *   2 3 1 9 9 y r , 0 9 1 > > ; : > > : , : 1 e > > 8 1 2 , - 2 3 1 3 , 2 3 , 3 3 3 2 ; =   . * ",
"G J > H u. .l.l.s.~.dX'.Q.sX'.R.GXt  Xt.W F.L.6X8X$Xj.F.T. .} S :.fXx.h.*X~.'.sX'.~.dXdXdXx.n VXqXqX0X0X0X0X;X8X0X;X;XiXu ^ ~.h.",
"i.H.7 ,.(.0.T.R.'.kXkXkX].kXsX6XGXn U K K B.C.K.,.^ i.V.D.[ D G :.mXgXZXZX'.I.sXgXQ.'.sXgXc.t aXqX0X=X&X&X#X#X*X*Xu.$X;Xu T x.t.",
"@.@.4 *.E.+.i.s.Y.Y.!.kX'.'.!.5XSXx H J [ H.G.K.[ F U._.F.} } &.t.GXvXZXvXdX'.sXgXQ.Q.sXdXx.3 >X>X;X#X#X&XXXXX#X$Xu.l.-Xu T *Xt."
};
