/* XPM */
static char *_711a2b8c61248e1ccba3b7d282db72aqpa1hZjPXPeoRQvK[] = {
/* columns rows colors chars-per-pixel */
"64 64 190 2 ",
"   c #463435",
".  c #4A3436",
"X  c #463539",
"o  c #4C363A",
"O  c #4E393B",
"+  c #533B3D",
"@  c #5A3E3D",
"#  c #5C403F",
"$  c #543E41",
"%  c #593F41",
"&  c #554144",
"*  c #5C4344",
"=  c #5F4847",
"-  c #55454C",
";  c #5C4649",
":  c #55494E",
">  c #5D494C",
",  c #574C53",
"<  c #5C4D52",
"1  c #5F5052",
"2  c #5E545A",
"3  c #624545",
"4  c #614749",
"5  c #634B4C",
"6  c #6A4D4C",
"7  c #714942",
"8  c #724E49",
"9  c #794F48",
"0  c #6C504E",
"q  c #74514D",
"w  c #7A534D",
"e  c #644E51",
"r  c #6A4E51",
"t  c #655254",
"y  c #6C5354",
"u  c #6E5856",
"i  c #65565A",
"p  c #6B5659",
"a  c #65595D",
"s  c #6C5A5C",
"d  c #725554",
"f  c #735955",
"g  c #7D5B56",
"h  c #715759",
"j  c #745B5C",
"k  c #7A5D5C",
"l  c #7C605E",
"z  c #655C62",
"x  c #6B5E62",
"c  c #735E61",
"v  c #795F61",
"b  c #666066",
"n  c #6C6165",
"m  c #6D6469",
"M  c #746264",
"N  c #7B6364",
"B  c #766867",
"V  c #7D6967",
"C  c #73666A",
"Z  c #7B6669",
"A  c #746A6D",
"S  c #7C6A6C",
"D  c #756D72",
"F  c #7B6E71",
"G  c #767175",
"H  c #7C7275",
"J  c #76747B",
"K  c #7C757A",
"L  c #7E797D",
"P  c #845C54",
"I  c #825E5A",
"U  c #83625D",
"Y  c #896259",
"T  c #96695F",
"R  c #826563",
"E  c #846966",
"W  c #8A6A65",
"Q  c #806768",
"!  c #836C6B",
"~  c #8A6D6A",
"^  c #936C64",
"/  c #996F64",
"(  c #926E69",
")  c #85716F",
"_  c #8B716E",
"`  c #957167",
"'  c #9C7267",
"]  c #94726B",
"[  c #9B756B",
"{  c #9C796F",
"}  c #826E71",
"|  c #847374",
" . c #8A7473",
".. c #857877",
"X. c #8B7976",
"o. c #847679",
"O. c #8A7778",
"+. c #847B7D",
"@. c #8B7B7C",
"#. c #937671",
"$. c #987670",
"%. c #927A75",
"&. c #9B7C73",
"*. c #917D7B",
"=. c #9A7E79",
"-. c #A27C70",
";. c #8D817F",
":. c #978077",
">. c #94817E",
",. c #9C827C",
"<. c #A68174",
"1. c #A2847C",
"2. c #A5897F",
"3. c #A98C7F",
"4. c #7F7B80",
"5. c #867D81",
"6. c #847E81",
"7. c #877F84",
"8. c #857E81",
"9. c #897F81",
"0. c #8A7E81",
"q. c #8A7D82",
"w. c #8B7F81",
"e. c #907F80",
"r. c #868184",
"t. c #898085",
"y. c #8B8285",
"u. c #8A8385",
"i. c #8D8285",
"p. c #8F8487",
"a. c #8C8284",
"s. c #868589",
"d. c #8D8688",
"f. c #8E8688",
"g. c #8C8689",
"h. c #8F898B",
"j. c #8F8889",
"k. c #8E898B",
"l. c #938484",
"z. c #9A8682",
"x. c #958887",
"c. c #9C8A85",
"v. c #908689",
"b. c #918589",
"n. c #928788",
"m. c #918A8D",
"M. c #908C8E",
"N. c #948B8C",
"B. c #9A8D8C",
"V. c #9C908F",
"C. c #8F8D91",
"Z. c #918D91",
"A. c #948E92",
"S. c #948F91",
"D. c #998F90",
"F. c #969293",
"G. c #989295",
"H. c #9C9797",
"J. c #9B9393",
"K. c #9D9897",
"L. c #979698",
"P. c #999699",
"I. c #9C9798",
"U. c #9B989C",
"Y. c #9D9A9A",
"T. c #A08580",
"R. c #A38B83",
"E. c #A28E8A",
"W. c #A98B83",
"Q. c #A3918D",
"!. c #A9938C",
"~. c #A39693",
"^. c #AA9791",
"/. c #A49996",
"(. c #AA9B95",
"). c #A29798",
"_. c #A39C9B",
"`. c #A99E9B",
"'. c #B09B91",
"]. c #A5A09F",
"[. c #AAA19E",
"{. c #9E9EA0",
"}. c #A29FA1",
"|. c #A89FA0",
" X c #A5A2A3",
".X c #A9A3A3",
"XX c #A9A6A8",
"oX c #ADAAAA",
"OX c #B0ACAD",
"+X c #B1B0B1",
/* pixels */
"n a A A M D L L +.6.K 7.k.+.+.u.u.P.f.h.m.h.f.P.+.9.i.9.9.M.+.o.o...f.M.+.+.+.r.A.+.H F F F u.F C C A A u.x i a i a m 2 2 2 2 , ",
"$ $ < i ; e t t K H M A S S u.+.| ..| ..S.9...+...i.G.9.+.| +.v.i.9.+...9.h.@.9.9.+.7.h.o.| o.F H L F F C M C m z z i i z i , - ",
"$ + > t & ; > * F A ; t t 5 F M r h j p +.c j j c Z ..j j N j @.+.c M Z j 9.Z c c c j | c p u r s K e e 5 ; i t % & $ O < - o X ",
"z a n z C D H A +.g.H K 7.u.P.h.9.+.h.m.P.f.p.u.i.H.G.i.a.9.@.P.U.v.9.i.f.}.m.v.i.9.f.F...o.H K u.Z.F H A M F J m m x n D m z z ",
"> $ ; > > n A p x M M 7.7.H o.o.| m.+.....| +.G.X.@.@.@.m.G.| +.+.O.l.v.O.O.O.| S.v.+.w.O...u.F F F S F +.M M x s C C z a a < z ",
"< O + & + i C ; 5 5 ; H S y c c u 9.N h j j N v.N N N v } 9.v N N k | | j v j h p.} j N v j | s t y e p A 5 5 ; & t t + + O   i ",
"z A H G A H 6.F K K F f.f.r.+.+.9.P.m.i.i.v.v.H.a.a.r.r.p.A.a.v.v.N.H.G.f.p.l.i.K.p.9.r.a.@.m.o.K K K 7.g.H C C x G D n m m z m ",
"& & s C e s s s 7.+.N S } ! m.9.| } | ..S.X. .|  .@.v.@.e.+.@.N.v.@.@.+.+.S.O.O.| | +.m.| | | F 7.5.F F S C J A C x z a D z i > ",
"$ + < n & > 4 4 S S 5 y y r v.} h h h h x.N N N k ! l.v ! ! N @.| N Q S N w.N N N j Z 9.h u h y F S 5 5 5 * M t > * & $ a + o . ",
"D A G H F H o.H u.f.o.9.r.@.H.M.m.M.M.F.XXN.G.F.m.S.L.p.m.h.H.U.S.J.m.m.N.}.x.l.m.m.S.F.+.H +.+.L.f.o.o.F C r.H C m n m J a a a ",
"s * 5 e r S H s M C M u.| S S | | G. . . . .@.G.@.l.@.@.N.m. . .X.X.G.N.@.w.@.O.H.v.O.@.O...m.| ..| F o.+.Z S C M J A M x s i m ",
"s * * 4 * Z S 4 t p e | M u j j c G.N N N N ! x.N Q Q N | O.k N N j x.i.Z Q Z N N.} N v j j ..h p p r M C 4 5 4 % n e % % + + a ",
"K F H +.o.u.r.7.u.r.9.m.f.a.a.N.N._.l.l.m.m.G.P.m.m.N.p.H. XH.H.H.f.Y.G.F._.N.r. XG.N.S.f.r.G.@.+.+.o.r.g.H H A D L D n m m A J ",
"5 5 t 7.s s j M S m.M S S ! @.@.} |  . .m.l.@.+.@.l.H.@.l.l.*.B._.*.*.X.X.B.@.O.X. .X.B.@.0.| | w.7.S S S C o.M M s s s m t < ; ",
"; > 5 7.t t t y M v.j c M c | ..c N N N v. .N ! ! } J.~ ! E E  .B.~ ! ! Q z.| Q Q Q ! B.Q Z v j O.F p p y t S t 3 # @ * s + + O ",
"s.K u.C.7.7.u.a.N.G.p.p.p.x.J.H.J.K.J.x.H.J.G.F.G._.XXG.N.J.J.)._.v.D.J._..XJ.B.J.J.J._.H.J.m.N.U.G.l.@.+.7.k.+.o.H S H 4.C A m ",
"+.4 t t t C @.f k l k @.O.N ~ ~ ) D. ._  .%.*.N.|  .| | l.G.O.X.X. .D.x.*.X.O.*.).O.O.|  .X.O.S S S Z @.} Z c M M +.c s t e x z ",
"h.5 t t e C i.f l k k O.X.k Q ! Q B. .! ! _ %.B.| | ! S l.N.N ! ! S N.l.} ~  .| ). .| Q Q X.@.c c j j @.Z p t 0 y H 4 * * + i t ",
"g.K 7.g.f.h.F.N.H.H.J.H.).J._.H.~._..XG.K.)._.H.M.K.U.P. X XF. X Xh.}.OX)..X_.K.+X.X_..X_.H.U.G.H.H.G.Y.F.h.u.+.r.A.K D D D J G ",
"* 5 5 r.j y u j M @.k Q ! E w.l.R ~ ~ E N.l. . . . .B. .X.X. .l.B.%.X.X. .x.|  . . .e.J. . .~ ! x.+.S S N Z r.j j u y c s > > ; ",
"5 y 5 r.M u c M Z l.N N ~ ! x.J.~  . .~ H.c.X. . .O.H. .|  .Q a.B.X.X.X. .J.X.| ~ ~ X.B.| } Q N l.} j j j c 9.u t e 5 s t * & & ",
"u.+.H +.+.r.A.a.N.S.a.N.G.B.).).~..X_.G._._.~.N.x.J._.`./.K.m.F.G.B._.`.)._.).J.K.^.)._._._.H.B.).F.N.G.N.m.N.i.7.+.+.+.F C m n ",
"7.4 5 5 5 h @.6 j k k X.X.l E E R ~._ E ~ ~ _ B.#.&.&.&.1.l.~  ._ ~ l.l.X. . . .B.~ ~ _ ! *.w.Z ! Q N a.N j f d Z  .f f 0 5 x 5 ",
"k.c c s j ! m.Q ) ! | x.B. .@.X.X..Xl.%.%.%.%.).X.%.:.,.R.m. . .X. .G.N.@.X.e.e.|.*.%.%._ l.v.| | ! S v.Z N j h Z  .k f t 4 n t ",
"K +.+.u.p.O.@.l.v.G.G.H.).H._.H.B./.J.~.K.D.V.G.N.V.)././.F.m.M._.`.[.[.[. X).~.`._..X.XJ.)._.H.H.N.N.F.m.m.f.r.u.+.+.K H F D A ",
"@ * @ S V 3 0 0 d l.j j j k | *.E ~ W W >._ _ #._ %.z.E _ _ ~ X.,.&.&.&.{ B. . .! Q O.x.Q Q N j @.N k j d N S p u t e x 5 3 * + ",
"M B S h.p.S S | ) N.@.o.| O.v.G.>.*.>.>.x.l.*.X.@.l./.>.@.@.>.N.~.c.>.c.c._.B.l.X.*.J._.l.l.l.@.G.X.| S N | r.M c s s A s t > > ",
"u.S S S S | m.O.@.O.l.l.~.R.Q.Q.Q.[.J.B.B.B.x.h.x.B.J.~.G.H.B.B.B.B.H.G.B.B.B.x._.B.J.J.B.~.|.B.l.x.l.G.v.v.m.9.7.H H F A A m z ",
"F 5 * 5 5 5 m.d d d q V z.^ ] &.` ^.X.R E W E l.E E E E X.;.R E R l >. .U R R E B.! Q R k  . .k j j d | h y 6 5 M u * 4 * * t + ",
"f.r.7.r.r.N._.l.l.l.x.M.`.(.(.^.Q..X).B.x.B.B.}.B.B.B.B.J._.B.B.x.l.).~.B.c.B.x..XB.B.l.l.H.H.x.a.@.a.S.| ..o.| u.o.M s z n A i ",
"s M j H @.E E _ ~ l.+.| O.@.l.).z.l.x.l.N.B.z.l.l.l.K.x.l.z.z.B.H.l.B.l.x.).B.l.B.x.B.).x.B.x.l.H.l.@.O...i.f.o.+.H S H m n z n ",
"* 4 * S X.w I U P X.Z j l k E V.E ! Q E @.O.! _ ! ! x.! ! ! E  .X.E ! E R l.) Q Q N  .l.N Q N j a.N d h 6 M | 6 t 5 * A 5 $ + + ",
";.u.u.M.F.l.x.B.>.).F.N.F.K.K.+X.X X]._.XXN.l.m.N.N. XH.G.J.~.H.H.J.G.J./._.J.J.H.J.)._.G.N.G.N.Y.m.m.p.p.A.g.+.K D L s.z z n n ",
"K M t p t p r.N N N N +.m.~ X.X.X._.l.X.X.X.X.G.%.*.*.X.B.^.1.1.1.1.~.w.*.X.X.l.~.e.l.l.l.G.w.O.| } +.r.S S M M o.M c p t n K e ",
"H s = t p u r.M l M j X.l.N ! ! ! N. .! ! E  ._._ _ _ ) B.Q.` [ { [ E.| E E Q | l.N Q Q N l.! N N j S | p p y t H t 4 4 * t C o ",
"u.+.+.L.F.m.N.B.B.G.u.G.K.H.K.K.H.U.H..X_.H.). X].K.I._..X[./.V.J.Q._.H.H.H.K._..X/.H.K.K. XK.H.H.G.}.K.u.h.r.+.u.H H A m G L A ",
"6 q q E X.g Y Y P >.Q l N N  .B.!  .X.~ l.*._  . . .H. . .X. .l.l. . . . .l.X.X.X.~ l.l.~ | ~ ~ m.Z N M j | S j s u p C e e > > ",
"y f f V @.R ~ _ ~ x.+.S S S O.F.|  .X. .G.l. . .) O.K.| |  .) l.l.! ! ! ! a.~ ~ ~ ~ x.l.! ! S S f.S M M j H A s p t s C 5 > > ; ",
"+.;.@.@.@.@.V.l.x.B.B.G.K.Q._..X`._.).`.[.`.`._.V.~._./._.[.(.[.[./.K.B.V.H.~.)._.`._..XJ.K.J.m.N.x.N.G.l.m.p.+.L J L J D L D m ",
"M k 7 w w 9 X.P P Y Y ] z.^ [ { ' Q.&.' [ ' { Q.[ -.-.' R.3.-.<.<.<.R.' [ [ / T.,.^ ( W W z.^ ( W Y _ _ P I I g M e > > & i e * ",
"H | V ! !  .H.%._ %.%.c._.c.c.c.R. Xc.,.,.R.R.`.2.R.,.,.^.'.3.2.R.W.Q.,.,.%.#.^.~.,.z.=.%.B.%. ._  .l.>. .! N S H s i i t z s > ",
"C S S K u.F +.+.| M.v.@.m.B.m.).E.Q.Q.E._.[.^./.(.^._.V.~.~.B.K.`.^.^.^.Q.~.~.^._.^./.D.l.a.+.o.u.l.i.a.@.u.O.| | S | H n n n z ",
"@ * @ 5 S 3 6 0 6 | N d k f N B.` $.[ / E.,./ [ ` ` Q.W ~ ! R *.,.T ' / ^ Q./ ^ ( ^ =.} k k j N F d d d 6 S g w q 8 k i + * + O ",
"A A H +.M.+.+.r.r.F.m.9.9.l.V. XQ.B.J.Q._./.E.E.E.^._.x.l.x.x.H.Q.R.R.E.E..Xz.E.Q.Q._.m.a.r.@.7.f.@.@.+.+.u.| Z S M S H m n n s ",
"Z ) g U E E X.Z N N V | m.!  .X.X.G.l.*.>.*.x.H.*.l.>.>.K.x.l.l.@.x.K.*.l.*.X.J.B.B.l.O.l.m.| | | ! m.o.S S M A J i s s i m i i ",
"j E q g g w X.j f j j S l.k N Q Q V. .E ! E %.V.R ! E E J.X.E E E | B.E ! ! E l.O.~ Q N ! a.k N j f @.Z p p t M A 4 5 4 * s ; + ",
"H +.o.+.;.@.M.a.r.h.h.m.N.l.N.).~.[.B.V.J.H._._.~.J.H._.OX_.).K.M.)._.G.G.F.S.U.H.K.K.H.H.H.u.u.r.p.F.m.p.f.+.6.J A G D C D A n ",
"* * * 4 S 0 0 y 6 | ) d j j l c.^ ^ ] W z. .R ! E _ x.! _  .! x.X.~ ~ !  .l.~  .~ Q x.Q N N l ) ) j j f h | 6 t e 5 x s 5 > ; $ ",
"t i s s +.M Z Z Z p.p.| | O.@.H.=.=.%.=.~.l.O.X.@.l.G.X.@.@.@.G.@.X.X. .@.m.X.X.X.O.G.*. .) ! a.x.| | H | 9.M M s s A x t i t 1 ",
"m H C S H S u.o.o.| ..a.S.X.a.l.l._.N.x.x.l.B.U.m.N.x.B._.J.V.N.x.H._.B.x.N.B.J.x.N.x.x.N.m.X.@.O.+.A.o.o.F S H C n n a a z z a ",
"> s + * * * B u 5 0 y j a.d j l j l. .N Q l ~ l.l R Q k c.) N R l ) ;.l ~ E N l.N k N j | ) h h p h o.5 4 > * x t * & & & < O . ",
"H K M S K | r.r.r.i.p.m.}.N.V._.K. XG.N.G.V.H._.x.N.x.B.].J.V.V.B._._.V.J.B.B. XV.B.l.>.B.B.a.r.@.r.m.+.+.+.S +.D n n m m m z z ",
"d d k k p.k k l U *.>.U W ~ ~ B.&.,.,.=.(.!.R.R.1.R.^.1.1.1.2.`.R.W.2.=.c.V.,.,.z.,.c.] ] ] W %._ W E R _ H t i t e s > > > < < ",
"6 6 q d ;.k k l k X.*.E E ~ ~ B.&.%.=.#.Q.!.1.1.,.,.!.{ &.1.<.Q.&.[ $.` =.c.#.%.%.%.~.] _ _ W >. .E R U ) H t i t e m > ; & $ & ",
"K 6.L 6.u.+.N.u.+.k.G.N.F.N.M._.H.Y.K.H._._..X.X).U.K.J._././.H.B.H.H.G.N.F.H. XH.)._.N.N.@.o.r.@.p.h.@.r.7.H J D A A n m m n z ",
"> a + * & * A s * 5 e s H p h j h r.S M Z j | v.j M N M m.S Z Q E O.| N S N Z i.j j j p | M u u t j S 5 e 4 ; x > ; & + ; & O o ",
"i A t s n n r.+.F H o.+.A...+.r.@.P.m.a.r.r.F.Y.+.+.a.@.U.a.;.;.@.N.f.O.@.@.i.Y.O.+.+.o.M.p...+.o.+.u.S F A A K n n a i A n < : ",
"A G A C s.o.K o.o.r.h.+.@.r.p.K.m.m.m.l.H.S.p.N.N.N.K.m.m.N.G.K.m.m.v.a.m.m.l.m.a.p.m...+.+.o.N.O.o.H S +.+.A A n n x a n m a b ",
". . o o n * * ; 4 j M 5 u p u +.h Z M M i.o.C Z M S @.l N N N a.Z M N h | S s M c Z | h s s u ..c j y e M i & > & > t o o .   : ",
"2 a n n 6.H K r.r.M.F.r.M.h.m.{.A.G.F.F. XU.L.{.L.Y. XU.K.G.G.H.N.F.N.m.U.L.H.G.m.S.K.S.F.A.k.G.M.k.k.k.F.g.L J H D D m m z b D ",
"i J i i a i A H j j M M p.Z S | | r.i...o.F @./.>.z.>.z.).+.| S S x.a.S } S | x.~  . .~ l.~ Z Z Z | H c x x M A s p i e m 2 < < ",
"+ z . + & & n A * t p s r.M M M M u.o.Z S Z o.B. .X. .%.H.F S S C m.r.M S S o.N.! ! ! ! f.S M Z Z H C t i t s A 5 e < & z & o X ",
"n D n m G J L J K u.u.+.u.u.u.C.h.A.m.f.L.U.G.H.G.K. X)._.J.B. XH.K.H.N.G.G.A.G.u.u.H.N.G.m.m.F.g.g.r.+.u.L G J A D G m D m z m ",
"- : 1 > m z i s x S H i p s s +.S C A A +.@.~ | | O.N._  ._ ~ l.| ! ! } l.7.C A C C l._  .| | u.C C M i F x > , : < i & - : & 2 "
};
