/* XPM */
static char *_3fb2a326ced4e0c90cf5a5158f28543Bp9jhhPUDB6Dzf1p[] = {
/* columns rows colors chars-per-pixel */
"64 64 243 2 ",
"   c #246D0A",
".  c #2A720F",
"X  c #3D8424",
"o  c #448D2B",
"O  c #4C8E2B",
"+  c #4B8A26",
"@  c #538D2C",
"#  c #4C922C",
"$  c #449225",
"%  c #55932A",
"&  c #4D8633",
"*  c #4C8C33",
"=  c #4B8A38",
"-  c #528C33",
";  c #528B3D",
":  c #598B3A",
">  c #548638",
",  c #4B9433",
"<  c #479535",
"1  c #529434",
"2  c #54923A",
"3  c #5B943D",
"4  c #569A3C",
"5  c #5A9A3B",
"6  c #539A34",
"7  c #639739",
"8  c #5CA13E",
"9  c #66A83E",
"0  c #4C8F1C",
"q  c #588D45",
"w  c #559341",
"e  c #5B9446",
"r  c #5C9A43",
"t  c #5D9B4A",
"y  c #5B9748",
"u  c #55984C",
"i  c #649C4B",
"p  c #639648",
"a  c #669C52",
"s  c #6A9D54",
"d  c #759B4F",
"f  c #5BA347",
"g  c #5BA54B",
"h  c #65A44C",
"j  c #6AA44D",
"k  c #69A748",
"l  c #73A34D",
"z  c #6CB34F",
"x  c #6BA255",
"c  c #6CAC54",
"v  c #6EAD5C",
"b  c #68A458",
"n  c #72A55C",
"m  c #73AD5C",
"M  c #7BAD5D",
"N  c #73A954",
"B  c #6DB353",
"V  c #6EB25C",
"C  c #74B355",
"Z  c #79B354",
"A  c #73BA54",
"S  c #74B45C",
"D  c #7AB45D",
"F  c #74BB5B",
"G  c #79BC5E",
"H  c #7EBC57",
"J  c #6E9F63",
"K  c #74AD63",
"L  c #79AD64",
"P  c #7CAD6B",
"I  c #79A766",
"U  c #76B364",
"Y  c #7BB364",
"T  c #76BC63",
"R  c #7CBE64",
"E  c #7CB36B",
"W  c #7DBD69",
"Q  c #76B86A",
"!  c #74BF72",
"~  c #7DB973",
"^  c #70B267",
"/  c #75C35D",
"(  c #7AC15E",
")  c #76C057",
"_  c #6EC053",
"`  c #75C264",
"'  c #79C162",
"]  c #74C06F",
"[  c #7DC56A",
"{  c #74C070",
"}  c #85BE5C",
"|  c #82B45F",
" . c #83A969",
".. c #84BE62",
"X. c #82B46C",
"o. c #82BB6C",
"O. c #8BBB6D",
"+. c #87B667",
"@. c #83AD75",
"#. c #83B374",
"$. c #85BB72",
"%. c #8ABC74",
"&. c #8CB37A",
"*. c #86BA78",
"=. c #8CBC7B",
"-. c #88B477",
";. c #92BD7D",
":. c #93B878",
">. c #82C35E",
",. c #81C262",
"<. c #85C46A",
"1. c #8BC26C",
"2. c #8DC376",
"3. c #8DC47B",
"4. c #87C07E",
"5. c #92C476",
"6. c #93C37A",
"7. c #96CB7A",
"8. c #89BC82",
"9. c #93BD84",
"0. c #95BE8A",
"q. c #97B985",
"w. c #94B38B",
"e. c #A0B88C",
"r. c #8DC282",
"t. c #8FC984",
"y. c #94C483",
"u. c #9BC685",
"i. c #96CA85",
"p. c #9BCA86",
"a. c #95C28A",
"s. c #9BC48C",
"d. c #9DCB8B",
"f. c #95C98C",
"g. c #9AD18D",
"h. c #99C391",
"j. c #9ECB93",
"k. c #95C893",
"l. c #9DD59A",
"z. c #A2C58A",
"x. c #A2CC8E",
"c. c #A3C985",
"v. c #A3D28A",
"b. c #ADD08F",
"n. c #A2C595",
"m. c #A4CD93",
"M. c #A4CE9A",
"N. c #AACD9B",
"B. c #A6C59A",
"V. c #A4D393",
"C. c #ABD495",
"Z. c #A5D29C",
"A. c #AAD39C",
"S. c #ACDA9C",
"D. c #A8DA95",
"F. c #B4D59D",
"G. c #B4DC9D",
"H. c #B2D996",
"J. c #B0CE9F",
"K. c #B1E19C",
"L. c #ABCDA2",
"P. c #B3CDA1",
"I. c #B7C7AE",
"U. c #ADD4A4",
"Y. c #ADD9A2",
"T. c #A9D5A8",
"R. c #B3D3A5",
"E. c #B3DCA3",
"W. c #BADCA5",
"Q. c #BAD6AB",
"!. c #B4DBAB",
"~. c #BCDBAC",
"^. c #B3D4AC",
"/. c #B5DCB2",
"(. c #B9DCB2",
"). c #BBDDB9",
"_. c #BED6B3",
"`. c #AEDDB9",
"'. c #B4E1A2",
"]. c #BBE2A6",
"[. c #B5E3A9",
"{. c #BCE3AC",
"}. c #BCE9A8",
"|. c #BDE2B3",
" X c #BEE7B8",
".X c #C2DCAD",
"XX c #C3DCB6",
"oX c #C2E5AC",
"OX c #C3EAAC",
"+X c #C6F1AD",
"@X c #C4E3B4",
"#X c #C5EBB5",
"$X c #CBEAB4",
"%X c #C4E4BA",
"&X c #CAE5BC",
"*X c #C4EABB",
"=X c #CBEBBD",
"-X c #C9E3B4",
";X c #D2EABB",
":X c #CDF2BE",
">X c #C7F3B4",
",X c #D2F4BD",
"<X c #C3DEC2",
"1X c #C3E3C2",
"2X c #CBE6C2",
"3X c #CDECC4",
"4X c #CCE4C9",
"5X c #CDECCA",
"6X c #C5E8C4",
"7X c #D3ECC4",
"8X c #D3ECCB",
"9X c #DAEDCC",
"0X c #D4E7C6",
"qX c #CDF1C2",
"wX c #CCF2CA",
"eX c #D4F3C5",
"rX c #D9F4C3",
"tX c #D6F8C4",
"yX c #D4F2CC",
"uX c #DAF3CC",
"iX c #DAFACC",
"pX c #DAFBC4",
"aX c #D6ECD1",
"sX c #DAEED2",
"dX c #DDEFDC",
"fX c #CEF0D8",
"gX c #D4F4D3",
"hX c #DDF5D1",
"jX c #DEF6DB",
"kX c #D8F7D6",
"lX c #CEE2D0",
"zX c #E2EDD9",
"xX c #E2F4D3",
"cX c #E2F3DC",
"vX c #E4FADB",
"bX c #E5F6D8",
"nX c #EAF8D7",
"mX c #DCF1E1",
"MX c #D2EBE0",
"NX c #E4FAE3",
"BX c #F4FDEA",
"VX c #F8FDF5",
"CX c #EDEEEA",
/* pixels */
"] ] ] ] ] ] ] ] ] ] ] ] ] ] ] ] ] ] ] ] ] ] ] ] ] ] ! ! ! ! ! ! ! ! ! ! ] ] ] ] ] ] ] ] ] ] ] ] ] ] ] ] ] ] ] ] ! ! ! ! ! ] ` ' ",
"' ' ' ' ' ' ' ' ' ' ' ' ' ' ' ' ' ' ' ' ' ' ' ' ' ' ' ' ' ' ' ' ' ' ' ' W W W W W ' ' ' ' ' ' ' ' ' ' ' ' ' ' ' ' ' ' ' ' ` W ,.",
"R R R R R R R R R R R R R R R R R R R R R R R R R R R R R R R R R R R R R R R R R R R R R R R R R R R R R R R R R R R R R W G } ",
"W W W W W W W W W W W W W W W W W W W W W W W W W W W W W W W W W W W R R R R R R W W W W W W W W W W W W W W W W W W W W R R } ",
"R R R R R R R R R R R R R R R R R R R R R R R R R R ' ' ' ' ' ' ' ' ' ' R W R R R R R R R R R R R R R R R R R R R R R R R W R } ",
"R R R R R R R R R R R R R R R R R R R R W W R R R R ' W ' ( ) F T R ' ' R R G R R R R R R R R R R R R R R R R R R R R R R W R ..",
"R R R R R R R R R R R R R R R R R R R R W W W R R W W ( H Y 0.3X3Xy.D ( ' R G R R R R R R R R R R R R R R R R R R R R R R W R ..",
"R R R R R R R R R R R R R R R R R R R R R R W R R R W D %.~.iXd.n.tX{.*.F R ..R ' W W W W W R R R R R R R R R R R R R R R W R ..",
"R R R R R R R R R R R R R R R R R R R R R ( R W W D Y T.gXW.k $ * a (.gXD.X.Y R ' W R R W W R W R R R R R R R R R R R R R W R ..",
"R R R R R R R R R R R R R R R R R R R R R ( ' T T d.yX*XP & x |.].n & U *XqXz.Y F ( G G ( R R R R R R R R R R R R R R R R W R ..",
"R R R R R R R R R R W W R R R ( R o.W ` ` W U ;.$XuXa.* r A.hX).~.pXb.p < 9.hX=X4.T ' ( ( ..+.R ` ' R R R R R R R R R R R W R ..",
"R R R R R R R R R R W W R R R W W R R R A +.~.xXA.r O ;.8X4Xy.B m y.3X8X;.= w Z.uXW.&.Y ' / ' R R R R R R R R R R R R R R W R ..",
"R R R R R R R R R R ' ' R R W W ' ( G X.J.hX|.n + U *XvX4XI D l.l.L D v.eXOXD * E {.eXP.~ T ` ' } R ' R R R R R R R R R R W R ..",
"R R R R R R R R R R R R R R W ,.G D i.3X7X-.o f Q.cXR.=. Xn.7X7X3X=Xy.L X.E.@Xi F V y.=X3Xn.E Y ..R R R R R R R R R R R R W R ..",
"R R R R R R R R R R W W W R G T =.%XyXi., 1 z.uXXX%.C 9.NXjXp., w d.uXXX:.Y g E iXx.U U m.7X&X=.F ( ..R R R R R R R R R R W R ..",
"R R R R R R R R R R ` ( ..Y X.!.kXE.i + +.;X5Xh.m F S.xXXXa o o.%.= a '.yXH.l ; 8.:X=Xs.L T S.eXE.X.D R R ' R R R R R R R W R ..",
"R R R R R R R R R R W R X.M.qX}.L & n @XgXM.Z C M.MX4XM + n  XNXvX{.n + Z *XgXs.- 2 x.tX{.%.v =.@XeXV.E W R R R R R R R R W R ..",
"R R R R R R R R R R X.a.6X3X;.- r A.yX!.~ v y.$X=Xc.7 t l.kX_.W.Q.Q.kXU.p ; r.eX7XX.= a W.xXE.E K a.=X-Xa.E W ' R R R R R W R ..",
"R R R R R R R R R R O.eXM.p : 0.yX%X=.C ..{.gX^.Y A 4 T.5Xy.x F.A.J y.=XsX6.@ e T.iX].x & P &X=Xd.L P 8XvX*.W ' R R R R R W R ..",
"R R R R R R R R R T 6.wXa k #XwXi.K Y F.uX!.o.m ;.3Xj.t G L L.dXyXx.Y D p.eX3XP * n {.iXm.w = y.qX%X3XXX7X3.R R R R R R R W R ..",
"R R R R R R R R R T r.wXt 7.7XE S p.=X2Xy.m $.E.iXH.9 2 f.5X7Xy.6.+X*Xh.m E Y.iXW.i > -.:XeX2.q s 9XXX .3X6.R R R R R R R W R ..",
"R R R R R R R R R T 3.eXr u.-XS V.BXI.I U m.eX#XU o v %X7XV.D S D Y V.qX@X%.v $.oXrXs.q e x.uXL.# &XN.D 7X5.T W R R R R R W R ..",
"R R R R R R R R R T 3.eXr u.-Xm W.0X4X^.=XeX=.; e R.xXE.o.S 5.$X*X0.I +.E.y.d.o.m 9.=X=XY $ C.(.# 2XA.D #X1.T ] R R R R R W R ..",
"R R R R R R R R R R 3.eXr u.-Xm {.L.&.xXY.i ; ;.bX7X%.M E h.yXN.N.eX].O.B o.{.eXB.U U R.eX1 C.(.# 2XZ.F 8.+.' W R R R R R W R ..",
"R R R R R R R R R R 3.eXr u.%XC D.l.D =X#.1 OX7XP.=Xa.R.~.*.$.K m O.W.yXA.E Y 0.zX%XT y.0X3 A.(.# 2XZ.S /.2.R W R R R R R W R ..",
"R R R R R R R R R R 6.9Xr s.%XA o.~ G 3X*.x hX&.M ^.BX%X3.A W [.'.-.w.cX7X#Xs.P.9XcXo.i.3X1 A.(.# 2XZ.T yX5.R W R R R R R W R ..",
"R R R R R R R R R G 5.sXr s.%Xz '.V.S 8X$.x 8XE 5.sXz.D S A.8X(.).5XhXP.L j.cX<X;.5Xo.y.3X2 S.(.O 2XZ.S 7X3.R W ' R R R R W R ..",
"R R R R R R R R R G 5.sX5 d.=Xz @XY.M aX$.j yXE p.5XE 9.&X0X0.U Q y.=X-X3.K  X0.o.7Xo.y.3X2 S.(.O 2XZ.S 7X3.R W ' R R R R W R ..",
"R R R R R R R R R G 2.gX5 =.!.B @XY.M aXo.k |.W u.NX=XbX&XP R ' ' R L @XH.L $Xx.+.8Xo.y.3X2 S.(.O 2XZ.S 7X3.R W ' R R R R W R ..",
"R R R R R R R R R G 3.yXr E 9.A @XY.D 8Xo.i 9.S c.4X&.W.u.B _ o $ ( Q S.F.L D.2.o.8Xo.y.3X2 S.(.O 2XZ.T 8X3.R W ( R R R R W R ..",
"R R R R R R R R R G 5.yX5 i.@Xj XXY.C 7XW h :XY u.3Xt w h f 4     A Q !.L.= b e c 7Xo.y.3X2 S.(.O 2XZ.S 8X3.T W ' R R R R W R ..",
"R R R R R R R R R G 5.uX4 a.sXd.9XA.C 8Xo.b eXX.z.>X2 V.E.Q [ g g ,.D R.N.< >X&.j yXW y.3X2 A.(.O 2XZ.S 8X3.G W ' R R R R W R ..",
"R R R R R R R R R G 5.yX4 a.vXD.uXA.C 7X*.J qXY z.+X6 N.zX*.F >.<.D &.yXg.2 =X&.h yXo.y.3X2 A.(.O 2XZ.S 8X3.G W ' R R R R W R ..",
"R R R R R R R R R G 3.yX4 p.&Xx XXY.C 8X$.x qXL n.9Xp p S.iXR.X.#.F.uX^.r p 7X:.h uXo.y.7X2 A.(.O 2XZ.S 8X3.G W ' R R R R W R ..",
"R R R R R R R R R G 3.gX5 p.&XC @XY.D 8X..j 8XB.5XdXXXm o K %XfXfXoXN & I oXtXv a 7Xo.y.7X2 A.(.O 2XZ.F 8X3.G W ' R R R R W R ..",
"R R R R R R R R R G 3.gX5 p.&XB @XY.D 8Xo.b VXzX:.O.E.iXS.t o <.1.> a S.iXG.i - 9.vXy.9.7X: C./.O 2XZ.S 8X3.G W ' R R R R W R ..",
"R R R R R R R R R G 2.yX5 p.&XB {.R.V qX&.* Z.uXF.o.C +.3XhXy.# % y.gXOXc O n (.yX/.4X2X=X: C.`.* 6XN.D 5X6.R W R R R R R W R ..",
"R R R R R R R R R G 2.yX5 p.&Xm |.R.S }.;X .o j %X5Xi # , q.xX4X4XeX%.& 7 D.gX).O.z e.VX*X< A./.@ *XZ.Y 5X6.R W R R R R R W R ..",
"R R R R R R R R R G 2.yX5 p.&Xm {.!.K W !.kXE.d @ 8 V >X:.: 3 D.Z.q : a.gX#Xy.K +.G.tXv.e 2 (.'.@ %XZ.Y 3X6.R W R R R R R W R ..",
"R R R R R R R R R G 2.yX5 p.XXC 7.:X(.=.F <.@XxXs.f U 4XBXoXS 0 O E =XyXd.Z M L.kX%Xb o M -XyX1.> <XC.Y 3X6.R W R R R R R W R ..",
"R R R R R R R R R G 3.yX5 y.hX1.C #.(.[.+.R v n.BX0Xn.2Xq.P.jX!.H.yX^.+.z 5.*XqX+.o s Q.hXQ.a O -.mXc.Y 3X6.R W R R R R R W R ..",
"R R R R R R R R R T y.:Xh q m.hX(.X.C ..z.=Xk..XF.N.xX7X&.m =.1X{.2.m 2.t.V.g.- 1 p.tX=XP * l ].gXZ.+.@.7X6.R ' W R R R R W R ..",
"R R R R R R R R R R O.-X1X@.+ h [.uXN.Y F i.sXBXq.N O.!.wXH.| C U #.R.hXM.3 o $.3XuX3., y P.kX[.+.M 9.@X#X$.R ' W R R R R W R ..",
"R R R R R R R R R R T ~ R.rXG.i & #.:X3Xp.D #.A.uXE.' V 3.&X9Xp.j.eX@XM 0 I <XkXV.y ; y.,X=Xr.K X.E.yXY.$.W R W W R R R R W R ..",
"R R R R R R R R R R ` / Z O.XXuXx.2 w n.uXoX1.V w.CXmXC.D V g.3X,X%.- t T.hX.Xd + S #X9Xn.D Z V.5X|.=.Q R R R W W R R R R W R ..",
"R R R R R R R R R R R R ' ` Q y.=X7X-.= c F.rXU.n.@Xa.lX8Xp.C G 7 : a.kX;XY o a ~.uXS.o.L y.=X=Xa.Q G ' R ( R R R R R R R W R ..",
"R R R R R R R R R R R R W ' ' T Q m.pX6., F %.(.NX(.C U g.7X$Xc s >XeX9.# e m.uX X%.U E d.,XV.E E W R R R R R R R R R R R W R ..",
"R R R R R R R R R R R R R R R ` ' Y O.p G.W.#.I y.*X=X6.N Y {.-.y.K.3 - 9.,X$X6.K E S.'.$.$.T W R R R R R R R R R R R R R W R ..",
"R R R R R R R R R R R R R R R ` / <.5 c y.@X:Xx.E Y v.yX%X%.A 9 1 ; P *XeXx.Y K j.3X{.3.Y W ' R R R R R R R R R R R R R R W R ..",
"R R R R R R R R R R R R R R R G ' k 8 <.T S i.>X=Xy.V O.E.yX!.V h H.rXW.R L y.*X3Xs.E R ' ` W W W R ' R R R R R R R R R R W R ..",
"R R R R R R R R R R R R R R R ' A 6 ( R ' ( R E A.eX.X$.v r.1X8X7XoX:.m +.{.uXA.Q T ' ( ( ' W W W W R R R R R R R R R R R W R ..",
"R R R R R R R R R R R R R G >.' 1 A ' R W W ' ' D O.~.8XU.Q c W.oXI @.S.eX[.$.S R ' ' ( ' R W R R R R R R R R R R R R R R W R ..",
"R R R R R R R R R R R R R ( z 6 z ' R R W W ' ( ..G F 6.$XyXh.N.^.e.qX*X9.U ` ' R R R R R R R R R R R R R R R R R R R R R W R ..",
"R R R R R R R R R R W R ' B   . F ' R R R W W R R R ' G Y B.0XxXjX3Xm.E Y ' ( ' W R R R R R R R R R R R R R R R R R R R R W R ..",
"R R R R R R R R R R R R ' F X X T ' W R W ' R R R o.o.' ( T X.F.A.X.Y R ' ' ' R W R R R R R R R R R R R R R R R R R R R R W R ..",
"R R R R R R R R R R ( ( ( ' ' ' ' ' W W ' ' W W R ' W R R ' ' Y Y W ( / R R R R R R R R R R R R R R R R R R R R R R R R R W R ..",
"R R R R R R R R R R R R R R W W R R W R R R R R R ' ' R R R R W [ W ' R R R R R R R R R R R R R R R R R R R R R R R R R R W R ..",
"R R R R R R R R R R R R R R R R R R R R R R R R R R R R R R R R R R W R R R R R R R R R R R R R R R R R R R R R R R R R R W R ..",
"R R R R R R R R R R R R R R R R R R R R R R R R R R R R R R R R R R R R R R R R R R R R R R R R R R R R R R R R R R R R R W R ..",
"R R R R R R R R R R R R R R R R R R R R R R R R R R R R R R R R R R R R R R R R R R R R R R R R R R R R R R R R R R R R R W R ..",
"R R R R R R R R R R R R R R R R R R R R R R R R R R R R R R R R R R R R R R R R R R R R R R R R R R R R R R R R R R R R R W R ..",
"R R R R R R R R R R R R R R R R R R R R R R R R R R R R R R R R R R R R R R R R R R R R R R R R R R R R R R R R R R R R R W R ..",
"R R R R R R R R R R R R R R R R R R R R R R R R R R R R R R R R R R R R R R R R R R R R R R R R R R R R R R R R R R R R R W R ..",
"R R R R R R R R R R R R R R R R R R R R R R R R R R R R R R R R R R R R R R R R R R R R R R R R R R R R R R R R R R R R R W R .."
};
