/* XPM */
static char *_6dd7aa0edb04be2a35cd74f679f4537IamDIKeWHkZWjS7f[] = {
/* columns rows colors chars-per-pixel */
"64 64 256 2 ",
"   c #07879F",
".  c #018AA6",
"X  c #1498B5",
"o  c #15A4BA",
"O  c #12B0BD",
"+  c #23A6BF",
"@  c #27ACBE",
"#  c #28B2BD",
"$  c #41B6B5",
"%  c #16ACC3",
"&  c #1DABC4",
"*  c #1CABCB",
"=  c #17A9CB",
"-  c #19B3C7",
";  c #15B1CA",
":  c #22AAC4",
">  c #2BAEC3",
",  c #23ACCA",
"<  c #26A7C6",
"1  c #34ACC7",
"2  c #22B3C5",
"3  c #2BB3C4",
"4  c #28B4CB",
"5  c #37B7C9",
"6  c #24ABD1",
"7  c #2ABAD6",
"8  c #34B9D2",
"9  c #39BDD2",
"0  c #37B6D6",
"q  c #3CBDE6",
"w  c #47B9CA",
"e  c #44BDD3",
"r  c #43BDDB",
"t  c #48BBD7",
"y  c #52BDD3",
"u  c #41BFE6",
"i  c #3AC2C9",
"p  c #29CDDD",
"a  c #2BC3DC",
"s  c #35CDDD",
"d  c #3BCCDD",
"f  c #38C6D5",
"g  c #27D5DD",
"h  c #34D3D6",
"j  c #34D3DC",
"k  c #3CD2DD",
"l  c #39D8DA",
"z  c #2DCBE2",
"x  c #2ECDEB",
"c  c #28CBE9",
"v  c #3DC6E2",
"b  c #34CCE4",
"n  c #3CCCE4",
"m  c #3FC6EB",
"M  c #35CCEB",
"N  c #3CCCEB",
"B  c #34C3E3",
"V  c #2CD1E4",
"C  c #2ED4EA",
"Z  c #2DD8E7",
"A  c #35D2E4",
"S  c #3CD2E4",
"D  c #3CD9E3",
"F  c #34D2EA",
"G  c #3DD5EE",
"H  c #37D9EB",
"J  c #3BD9EB",
"K  c #33DAE6",
"L  c #3CCCF3",
"P  c #38CAF3",
"I  c #2FD8F5",
"U  c #3ED5F2",
"Y  c #36DBF4",
"T  c #3BD8F4",
"R  c #3DD3F9",
"E  c #36D6F6",
"W  c #2EC8F2",
"Q  c #49C2CD",
"!  c #59CBCD",
"~  c #45C3D4",
"^  c #40C2DA",
"/  c #43CCDD",
"(  c #4CCDDC",
")  c #4AC7D7",
"_  c #57CCDC",
"`  c #5CCBDB",
"'  c #57C8D6",
"]  c #4CD4DC",
"[  c #48D3D8",
"{  c #54D4DC",
"}  c #5CD2DC",
"|  c #5ADADE",
" . c #56D4D7",
".. c #5AD3CF",
"X. c #63C9CB",
"o. c #63CCD4",
"O. c #63CCDE",
"+. c #6DCEDD",
"@. c #6ACAD4",
"#. c #74CDDB",
"$. c #64D4DD",
"%. c #6CD4DD",
"&. c #6DDBDF",
"*. c #66D9D7",
"=. c #7BD4DD",
"-. c #7ADBDD",
";. c #76D7D8",
":. c #5FE0DE",
">. c #78E3DC",
",. c #43CDE5",
"<. c #4CCCE4",
"1. c #44C5ED",
"2. c #43CCEA",
"3. c #4BCCEB",
"4. c #49C5E7",
"5. c #53CDE3",
"6. c #5BCDE4",
"7. c #53CBEB",
"8. c #5DCBE9",
"9. c #54C4E7",
"0. c #45D3E5",
"q. c #4BD3E3",
"w. c #41D4EE",
"e. c #4BD3EB",
"r. c #4FDDEB",
"t. c #55D3E4",
"y. c #5CD3E4",
"u. c #54D9E3",
"i. c #5CD9E5",
"p. c #54D2EA",
"a. c #5CD4EB",
"s. c #57DBE8",
"d. c #42CDF2",
"f. c #4BCDF4",
"g. c #56CEF2",
"h. c #40D4F0",
"j. c #4AD2F1",
"k. c #44D2F9",
"l. c #45D6F7",
"z. c #54D3F8",
"x. c #63CDE4",
"c. c #6BCCE3",
"v. c #6ACCE9",
"b. c #64D4E3",
"n. c #6CD5E2",
"m. c #63DAE5",
"M. c #6CDAE4",
"N. c #64D5EA",
"B. c #64DBEA",
"V. c #6CD9E9",
"C. c #6CD1E9",
"Z. c #73D5E3",
"A. c #7AD3E2",
"S. c #73DBE5",
"D. c #7CDCE4",
"F. c #73D4EB",
"G. c #7BD3EB",
"H. c #75DBEA",
"J. c #7BDCEB",
"K. c #68DAF1",
"L. c #76D7F2",
"P. c #72CEE1",
"I. c #6EE1EC",
"U. c #7DE2E4",
"Y. c #7BE1EA",
"T. c #76E0E5",
"R. c #7CE2F3",
"E. c #85DBDD",
"W. c #8DDDDD",
"Q. c #85D7D9",
"!. c #A6DADD",
"~. c #87E4DC",
"^. c #9DEEDE",
"/. c #A0E0D6",
"(. c #83DBE5",
"). c #8BDCE4",
"_. c #84DCEB",
"`. c #8BDBEA",
"'. c #85D3E6",
"]. c #91DDE4",
"[. c #94DEEC",
"{. c #9DDCE8",
"}. c #88DDF4",
"|. c #98DFF5",
" X c #87CFE7",
".X c #A8DDEB",
"XX c #A7DEF5",
"oX c #83E4E4",
"OX c #8BE3E4",
"+X c #84E2EB",
"@X c #8BE4EB",
"#X c #88EAEA",
"$X c #93E4E5",
"%X c #9BE3E5",
"&X c #93E4EB",
"*X c #9BE5EB",
"=X c #94EAEC",
"-X c #9CEBEC",
";X c #98EBE4",
":X c #87E4F2",
">X c #95E4F2",
",X c #9CE4F3",
"<X c #96EAF3",
"1X c #9DEBF3",
"2X c #9DEBF8",
"3X c #9CF2ED",
"4X c #A2E5E6",
"5X c #A4EAE6",
"6X c #ABEBE6",
"7X c #A3E4ED",
"8X c #ACE3EB",
"9X c #A3EBED",
"0X c #AAEBED",
"qX c #ABE3E5",
"wX c #B2ECED",
"eX c #BBECED",
"rX c #B4E5E8",
"tX c #A6F1ED",
"yX c #ABF1EC",
"uX c #A9F1E4",
"iX c #B3F1ED",
"pX c #BBF2ED",
"aX c #B4F2E5",
"sX c #A3E5F2",
"dX c #A5ECF3",
"fX c #AAECF3",
"gX c #AEE7F4",
"hX c #B4EDF2",
"jX c #BCEEF3",
"kX c #B6E8F4",
"lX c #ADF2F3",
"zX c #A8F3F8",
"xX c #B4F2F3",
"cX c #BBF4F4",
"vX c #B3F4F9",
"bX c #BCF5FA",
"nX c #BBFBFA",
"mX c #B6FAF7",
"MX c #C4F3ED",
"NX c #CCF3ED",
"BX c #CEF8E6",
"VX c #D8F7E8",
"CX c #C2EDF3",
"ZX c #CAEFF3",
"AX c #C7ECF9",
"SX c #D5EBF7",
"DX c #C3F3F4",
"FX c #CAF4F5",
"GX c #C3F4FA",
"HX c #C6FAF7",
"JX c #D2F4F3",
"KX c #DBF5F5",
"LX c #D8FAF7",
"PX c #CEEFE9",
"IX c #E7FDFC",
"UX c #E0FAED",
/* pixels */
"w.w.w.w.w.w.w.w.w.w.w.w.w.w.w.w.w.w.w.w.w.w.w.w.w.w.w.w.w.w.w.w.w.w.w.w.w.w.w.w.w.w.w.w.w.w.w.w.w.w.w.w.w.w.w.w.w.w.w.w.w.h.w.` ",
"w.w.w.w.w.w.w.w.w.w.w.w.w.w.w.w.w.w.w.w.w.w.w.w.w.w.G G G G G G G G w.w.w.w.w.w.w.w.w.w.w.w.w.w.w.w.w.w.w.w.w.w.w.w.w.w.w.U w.` ",
"G G G G G G G G G G G G G G G G G G G G G G G G G G G G G G G l.l.U U U G G G G G G G G G G G G G G G G G G G G G G G G G U w.` ",
"U U U U U U U U U U U U U U U U U U U U U U U U U U h.h.U G h.7 7 h.G h.U U U U U U U U U U U U U U U U U U U U U U U U U U w._ ",
"h.h.h.h.h.h.h.h.h.h.h.h.h.h.h.h.h.h.h.h.h.h.h.U U h.h.h.h.l.n . . m w.w.h.h.h.U U h.h.h.h.h.h.h.h.h.h.h.h.h.h.h.h.h.h.h.h.U w._ ",
"h.h.h.h.h.h.h.h.h.h.h.h.h.h.h.h.h.h.h.h.h.h.h.U U U h.h.w.w.G o o 3.e.G J h.k.U J h.h.h.U U h.h.h.h.h.h.h.h.h.h.h.h.h.h.h.U w._ ",
"h.h.h.h.h.h.h.h.h.h.h.h.h.h.h.h.h.h.h.h.J J J w.j.w.J J G U l.a p e.0.J w.h.k.k.k.U U U U U h.h.h.h.h.h.h.h.h.h.h.h.h.h.h.U w._ ",
"h.h.h.h.h.h.h.h.h.h.h.h.h.h.h.h.h.h.h.h.G H J U l.U N N ,.,.p.0 f j.0.F L U F J w.G J J G w.h.h.h.h.h.h.h.h.h.h.h.h.h.h.h.U w._ ",
"h.h.h.h.h.h.h.h.h.h.h.h.h.h.h.h.h.h.h.h.h.h.w.2.,.t.D.@XdXpXnXX.X.mXjXkX*X(.y.0.U w.w.J G w.h.h.h.h.h.h.h.h.h.h.h.h.h.h.h.U w._ ",
"h.h.h.h.h.h.h.h.h.h.h.h.h.h.h.h.h.h.h.h.U M 5.D.fXcXlX[.Z._ ( 3 f i.n.J.&XwXjXfX_.7.n J G w.h.h.h.h.h.h.h.h.h.h.h.h.h.h.h.U w._ ",
"h.h.h.h.h.h.h.h.h.h.h.h.h.h.h.H w.j.T E 3.}.GXyX-.~ 2 + < 7 0 0 ,.2.M b p n p.D.tXvX#X( F l.j.U J 0.k.U w.h.h.h.h.h.h.h.h.U w._ ",
"h.h.h.h.h.h.h.h.h.h.h.h.h.h.h.w.w.d.A -.ZXtX .2 * 8 } +X-XlXcXDXcXxXhXqX`.B.S b 2.C.sXxXS.k K U j.0.k.k.w.h.h.h.h.h.h.h.h.U w._ ",
"h.h.h.h.h.h.h.h.h.h.h.h.h.h.w.j.0.( sXcX*.2 - ) ].cXcX-X`.G.N.r.i.N.H.:X=XxXjXOX{ s <.G.vX4X' S U k.U U h.w.h.h.h.h.h.h.h.U w._ ",
"h.h.h.h.h.h.h.h.h.h.h.h.h.h.h.F { jX8X9 = ) -XZXLX).<.A n d S 4.,.n n b M <.Z.1XmX$X5.M ' LXAX] K k.U G h.h.h.h.h.h.h.h.h.U w._ ",
"h.h.h.h.h.h.h.h.h.h.h.h.w.h.U } bX`.# 1 D.GXgX] oX.X<.q._.wXwXeXhXfX9X&XF.e.x ,.c.sXzX=.].%XE.cX%.G k.j.U G G h.h.h.h.h.h.U w._ ",
"h.h.h.h.h.w.w.w.w.w.H e.f.E { cX-.@ 9 -XcXM.M b ;.LXyX$.K.:XZ.m.M.Z._.<XyXcX;X| v N F.FXHXO.d E.FX{ f.j.h.G H U h.h.h.h.h.U w._ ",
"h.h.h.h.h.w.w.w.w.w.H w.U 5.DXD.B * #X1X_ A 5..XCX|.g.f.P M n ,.,.n b b d N.XXFX-X6.b q.fX5X' ,._.cX5.w.k.h.J U h.h.h.h.h.U w._ ",
"h.h.h.h.h.w.w.w.w.w.J U j wX.XV z.v.$ q.1.b.pX4X] v d { T.,XhXxXlXdX,X_.y.M M } -XlX:.M f.6X6X4.M sX0Xk R R w.U U h.h.h.h.U w._ ",
"h.h.h.h.h.w.w.w.w.w.w.A D.eXl A %XhX4 7 _.NXPX9.b *.;XxXlX@XD.Z.#.Q.%XdXzX9X*.S F &.JX(.M n dX%Xn 7.hXU.N R j.U U h.h.h.h.U w._ ",
"h.h.h.h.h.w.w.w.w.w.0.{ cX$.A (.mXy < _.cXo.*X8X{.GX&X) 2 % & , & & + f u.{.GX>X5.,.P.cX-.4.{.LX(.A b.DXt.E h.h.U h.h.h.h.U w._ ",
"h.h.h.h.h.U J w.w.w.A -X,Xm } GX} = =.GXy.M $.VX5Xt o 2 ! OXfXtX9X<Xi e 3.b _ yXDXp.G } CXeX=X=.fXD L 7X;XM k.e.G h.h.h.h.U w._ ",
"h.h.h.h.h.U H J k.G y.iX[ b -X*X@ / nXA.M } mXJ.1 , b.jXAXqXNX$XS.}.5 7XfXb.X.cX=XN.} k G.HXo.d...b.,.` pX6.R w.w.h.h.h.h.U w._ ",
"h.h.h.h.h.U J U R N .XHXE.=.GX^ 1 yX>XN  .xX[., 8 =XcXW.f.u 7X=.z q % Q ).xXLX].b K.tX] M *XfXL l eXn.s 7X&XA l.h.w.h.h.h.U w._ ",
"h.h.h.h.h.U w.U T 7.xXE.rXKX&X; N.NX9.L 6X2X6 $ 3XhX6.F D %.bXDX;X%X+.3 O ' xX%X<.k 4X1XF { DXV.g %X<XV F.cX[ U h.w.h.h.h.U w._ ",
"h.h.h.h.U T w.h.G Z.zX,.! xX( > dX).N Z.mXw - 3XeX,.L p.n.lX%X(.@X*XcXbXO.& 5 hX&Xd _ cXZ.M `.9XM b.xXq.3.fXZ.G w.U h.h.h.U w._ ",
"h.h.h.h.U T h.w.N &X&Xm (.xX4 ' GXp.2.wXD.% D.bX<.K E.yX5.k.b M M x ) Q.HXY.@ Q GX'.p _.iX1.g.xXa.N wX(.M <X%XS h.w.w.w.w.U w._ ",
"h.h.h.h.w.h.U q.L fXD.n *X&X% _.0Xv N.bXe 8 vX=.M n.IXQ.s 9.J.*X*XL.7 o o.mXb.X S.iX/ 5.xXB.b dX>.M >X*Xb J.uXk k.G w.w.w.U w._ ",
"h.h.h.h.h.h.G e.3.xX$.n lX+.& fXoX< 1 w + &.lX<.7.eX/.lX`.0XyX%X7X#.w } : Q 5 9 ,.wXH.M *X#Xz `.-X1.H.0X,.C.iXq.k.w.w.w.w.U w._ ",
"h.h.h.h.h.G G U t.xXq.q.xX) 8 bXy.> :X<.7 *X$XM `.fXf -.IXU./ M A O D.nX~ 3 -X+Xp %X1Xc _.tXj n.wX3.a.xX<.5.hXu.h.w.w.w.w.U w._ ",
"h.h.h.h.h.G J R m.cX0.y.DX9 t GX4.5 bXK.S hXM.n 8XJ.M u.U.[ k.p.7 a 9.sX).A oX6Xd Z.iXF F.iX<.u.xX5.e.xXt.0.cXi.G w.w.w.w.U w._ ",
"h.h.h.h.h.G G E M.hXG m.FX8 y GXr 9 jX6./ CXa.d eXV.n L.] e.G o X w.S >.dXM V.wX1.N.xXw.N.jX6.q.iXp.3.cXi.G ].u.J w.w.w.w.U w._ ",
"h.h.h.h.G U k.F F.wXS i.cX8 ) cXi t vX .3.jXM.u.MXN.s wX&.R n   . F e.M.dXd.n.iX2.b.eX<._ xXp.<.hXu.,.cXi.J c.q.U h.h.h.h.U w._ ",
"h.h.h.h.G U k.F C.wX,.s.cX9 e nXf 5 cXb.L jXpXrXKXB.b *XOXF J f q l.b |.=Xb D.hXb | LXkXeXcX,.t.xXq.e.cXi.,.zXm.G h.h.h.h.U w._ ",
"h.h.h.h.G U k.G a.xX<.q.cX~ 9 nX` 3 xXV.p 4X).f %X*Xb | AXc.j I z.n [ SX%.h *X&Xb Y.wX#.qXhXm b.xX,.p.xXp.5.hX$.G w.h.h.h.U w._ ",
"h.h.h.h.w.h.U w.t.jXa.,.cX` , lX'.: <X].! MXdXI N.DXq.S ].bXD.6.0.b.HX!.) ..jXi.,.gX+XV [ u.F D.wX1.B.hX<.y.hX5.U h.h.h.h.U w._ ",
"h.h.h.h.w.U U j.0.hXK.n &Xi.& $X,X6 %.LXhXqXuXe.1.&X:Xm A V.0XcXJ.x..XhX) OX,Xn u.cXc.U >X+.b @X{.m R.9X,.M.hX3.U w.h.w.h.U w._ ",
"h.h.h.h.h.J h.k.b 9X+XN ] a.4 @.vX0 w HX%.d { N.e.0.} J.p.M 2.q.h.E r *X9X} j.m -X&XN i.IXhXM.iXZ.N 2X:Xv ~.,XM j.U h.h.h.U w._ ",
"h.h.h.h.h.U G k.F (.wX2.r.lXt 5 cXZ.& #XsXN D lX).n w.>XaX~.C.{ } N.}.hX&XU F U.xX7.( kX&X;.FXZX( t.xXb.s 0XJ.U j.U h.h.h.U w._ ",
"h.h.h.h.h.U J j.U y.CXp.F eX_.% ).hX7 e FXZ.2.| cX'.1.M ^.VXhXcXpXwXFXqX~ ,.-.SXp.M ;.bX3.v %X}.s J.hX/ ] DXy.U h.h.h.h.h.U w._ ",
"h.h.h.h.h.h.H w.T 2.1X_.b ;.hX3 5 cXF.< ;.FXx.b ;.IX$X+.kXO.0.8.t.0.` 1X} *XDX$.n o.mXm.N p.| j.,.dXJ.n ~.dXn h.l.w.h.h.U U w._ ",
"h.h.h.h.h.h.H w.T E S.CX_ S.LXA.* -.ZX^ * _.pXo.<X%X&XJXDXZ.t.0.G j.A.JXKX;Xp.M O.DX}.N ' lXB.F J.eX0.,.pXS.F h.U w.h.h.h.U w._ ",
"h.h.h.h.h.w.G w.w.U ( 0XDX0X.XAXe # qXzX7 , `.UXeX^ n n.&XiXcXS.Z.xXeX&Xb.s S m.cX$XP <.6X-X,.] mXQ.n D.fX<.U U U h.h.h.h.U w._ ",
"h.h.h.h.h.w.w.w.w.w.L &.JX<.f 9X-X# 0 xX5X8 6  XDX$Xp.M x ,.} e.e.p.( h b p.t.1XD.M h ;XkX0.M *X5Xh 5.vXM.0.k.U U h.h.h.h.U w._ ",
"h.h.h.h.h.w.w.w.w.w.U / dX:XF 6.mX).* e xXdXr O Q gXDXsXG.8.3.S 0.1.g.(.qXzXM.3.P 7.9XdX7.M (.jX5.C ;XkXj G f.U h.h.h.h.h.U w._ ",
"h.h.h.h.h.w.w.w.w.G 0.J p.MXG.1.v.bX&.* 9 9XCX*.2 * ~ ~.aXiXlXjXiXDXpX5X@Xu./ j m.xX8X9.W D.DXb.M G.cX` G U j.U h.h.h.h.h.U w._ ",
"h.h.h.h.h.w.w.w.w.w.G k.Z A.FXu.N n.GX(., 3 (.GX9X` 7 : 9 p.B.L.a.wXW.d b ,.N.7XpXJ.,.n D.DX$.F } JXZ.C 3.U U w.G h.h.h.h.U w._ ",
"h.h.h.h.h.h.h.h.h.h.h.U Y ,.`.#Xn d.%.xX*Xw * t %XxXvX^ r a.n n B OX%Xx.+XhXxX&X6.m ,.#XcXn.n ] cX).n h.w.h.U h.h.h.h.h.h.U w._ ",
"h.h.h.h.h.h.h.h.h.h.w.h.T J S 5.D.} M g.fXlX$.> & w (.5 U.FXaX6X0XNXKXjX0X}.g.P 2.*.cXSX8.C ] AX&Xk G U h.h.h.h.h.h.h.h.h.U w._ ",
"h.h.h.h.h.h.h.h.h.h.G h.k.U Y S +XlX%.1.,.(.FXkXc.5 % ; ( AX{.S.I.*.| S N F 2.n.9XDX[.kX' | bX).g j.j.U h.h.h.h.h.h.h.h.h.U w._ ",
"h.h.h.h.h.h.h.h.h.h.J G j.f.k.J ,. XMXoX0.b _ @XxXvX>Xn.o.hX` W N N 3.p.e.*.iXCX{.p.z {.BXCXA.j w.f.h.U h.h.h.h.h.h.h.h.h.U w._ ",
"h.h.h.h.h.h.h.h.h.h.G G G G U T w.,.t.fXhXZ.2.x 5.(.7XdXjXJXyXfXfXfXfXxX(.| I.8.M n Z.hXhXO.N T j.w.J h.h.h.h.h.h.h.h.h.h.U w._ ",
"h.h.h.h.h.h.h.h.h.h.h.w.G G U h.w.w.U ,.).cXfX(.<.b v <.x.F.J._._.H.m.y.2.C s <.J.wXmXJ.n J l.U U w.w.h.h.h.h.h.h.h.h.h.h.U w._ ",
"h.h.h.h.h.h.h.h.h.h.h.h.h.h.h.w.w.w.w.h.F q._.fXhX>XI.i.0.b z z b n m ,.p.H.*XyXyXU.5.2.k.l.h.w.h.h.h.h.h.h.h.h.h.h.h.h.h.U w._ ",
"h.h.h.h.h.h.h.h.h.h.h.h.h.h.h.w.w.w.w.w.h.U 2.<.n.$XwXxXhXwX0X9X9X0XfXxXiXwX[.N.S F T E U h.h.h.h.h.h.h.h.h.h.h.h.h.h.h.h.U w._ ",
"h.h.h.h.h.h.h.h.h.h.h.h.h.h.h.w.w.w.w.w.w.J T Y J N 2.e.N.H.+X@X+XY.S.m.p.,.F U k.j.h.G J H G h.h.h.h.h.h.h.h.h.h.h.h.h.h.U w._ ",
"h.h.h.h.h.h.h.h.h.h.h.h.h.h.h.w.w.w.w.w.U U G G l.k.k.U U I F F N N G U R T Y G w.w.w.w.h.U h.h.h.h.h.h.h.h.h.h.h.h.h.h.h.U w._ ",
"h.h.h.h.h.h.h.h.h.h.h.h.h.h.h.h.w.w.w.w.h.h.w.w.w.G J w.w.j.j.U w.h.j.w.J w.w.h.h.U G h.h.h.h.h.h.h.h.h.h.h.h.h.h.h.h.h.h.U w._ ",
"h.h.h.h.h.h.h.h.h.h.h.h.h.h.h.h.h.h.h.h.h.U U h.h.h.h.h.h.U h.h.h.h.U h.h.h.U U h.h.h.h.h.w.h.h.h.h.h.h.h.h.h.h.h.h.h.h.h.U w._ ",
"h.h.h.h.h.h.h.h.h.h.h.h.h.h.h.h.h.h.h.h.h.h.h.h.h.h.h.h.h.h.h.h.h.h.h.h.h.h.h.h.h.h.h.h.h.h.h.h.h.h.h.h.h.h.h.h.h.h.h.h.h.U w._ ",
"h.h.h.h.h.h.h.h.h.h.h.h.h.h.h.h.h.h.h.h.h.h.h.h.h.h.h.h.h.h.h.h.h.h.h.h.h.h.h.h.h.h.h.h.h.h.h.h.h.h.h.h.h.h.h.h.h.h.h.h.h.U w._ ",
"h.h.h.h.h.h.h.h.h.h.h.h.h.h.h.h.h.h.h.h.h.h.h.h.h.h.h.h.h.h.h.h.h.h.h.h.h.h.h.h.h.h.h.h.h.h.h.h.h.h.h.h.h.h.h.h.h.h.h.h.w.U w._ ",
"U U U U U U U U U U U U U U U U U U U U U U U U U U U U U U U U U U U U U U U U U U U U U U U U U U U U U U U U U U U U U U w.` ",
"w.w.w.w.w.w.w.w.w.w.w.w.w.w.w.w.w.w.w.w.w.w.w.w.w.w.w.w.w.w.w.w.w.w.w.w.w.w.w.w.w.w.w.w.w.w.w.w.w.w.w.w.w.w.w.w.w.w.w.w.w.G 0.` ",
"0.0.0.0.0.0.0.0.0.0.0.0.0.0.0.0.0.0.0.0.0.0.0.0.0.0.0.0.0.0.0.0.0.0.0.0.0.0.0.0.0.0.0.0.0.0.0.0.0.0.0.0.0.0.0.0.0.0.0.0.0.0.] o."
};
