/* XPM */
static char *result[] = {
/* columns rows colors chars-per-pixel */
"64 64 249 2 ",
"   c #BC1824",
".  c #B61B2A",
"X  c #A80C14",
"o  c #CC3739",
"O  c #D53D3A",
"+  c #C52A2F",
"@  c #CF4236",
"#  c #CD453F",
"$  c #CD493E",
"%  c #D2443E",
"&  c #D14A3C",
"*  c #D43D41",
"=  c #CC4D43",
"-  c #CA4A4A",
";  c #D44441",
":  c #D24C44",
">  c #DB4E44",
",  c #D34E4B",
"<  c #DB454C",
"1  c #CC5144",
"2  c #CD524B",
"3  c #CB5B48",
"4  c #D25245",
"5  c #D2534D",
"6  c #D9524C",
"7  c #D05C4C",
"8  c #D95B4B",
"9  c #D75941",
"0  c #D54A52",
"q  c #CB5854",
"w  c #D35B56",
"e  c #DA5B54",
"r  c #D95855",
"t  c #E05147",
"y  c #E45A57",
"u  c #D56455",
"i  c #DC645B",
"p  c #DB6B5D",
"a  c #D5665B",
"s  c #DF775C",
"d  c #C96353",
"f  c #E96658",
"g  c #ED795C",
"h  c #EA765A",
"j  c #F3765D",
"k  c #F27B5D",
"l  c #F87359",
"z  c #F06B5C",
"x  c #DA6C65",
"c  c #DD6D6D",
"v  c #D36C65",
"b  c #DD7564",
"n  c #D5746B",
"m  c #DC736D",
"M  c #D87D6B",
"N  c #CE7979",
"B  c #DC7B73",
"V  c #D77C75",
"C  c #C7656E",
"Z  c #E16A64",
"A  c #E26B6B",
"S  c #E86967",
"D  c #E47562",
"F  c #ED7563",
"G  c #E27D63",
"H  c #ED7B62",
"J  c #ED756B",
"K  c #E37C6E",
"L  c #ED7C6A",
"P  c #E1746C",
"I  c #F37662",
"U  c #FB7364",
"Y  c #F37C65",
"T  c #F97C64",
"R  c #F4746B",
"E  c #F9766B",
"W  c #F47C6A",
"Q  c #FE7E6C",
"!  c #E47E72",
"~  c #E97974",
"^  c #F37D74",
"/  c #F46B61",
"(  c #F6835F",
")  c #D9847D",
"_  c #DF8E7E",
"`  c #D98879",
"'  c #DE927C",
"]  c #D99477",
"[  c #D6846E",
"{  c #ED8265",
"}  c #E5846C",
"|  c #EC826C",
" . c #ED8A6C",
".. c #E48868",
"X. c #F18165",
"o. c #FC8563",
"O. c #F2826B",
"+. c #FE836D",
"@. c #FB896A",
"#. c #F38A6E",
"$. c #E5946C",
"%. c #EE8371",
"&. c #EC8C74",
"*. c #E38B7B",
"=. c #ED8C7B",
"-. c #E78376",
";. c #F28372",
":. c #FC8371",
">. c #F18A75",
",. c #F5857A",
"<. c #FF8579",
"1. c #F28C7C",
"2. c #E49375",
"3. c #EE9077",
"4. c #ED937C",
"5. c #EB987F",
"6. c #E0987F",
"7. c #F09174",
"8. c #F2937E",
"9. c #D98683",
"0. c #DA9687",
"q. c #DD9E90",
"w. c #E48D84",
"e. c #EC8984",
"r. c #EB8C8A",
"t. c #EC8786",
"y. c #F28A81",
"u. c #F28F8C",
"i. c #E59683",
"p. c #ED9584",
"a. c #ED9A83",
"s. c #EE948B",
"d. c #E59C8B",
"f. c #EB9B8C",
"g. c #E49787",
"h. c #F29683",
"j. c #F29982",
"k. c #F2958A",
"l. c #F49B88",
"z. c #F9968B",
"x. c #EE9591",
"c. c #EC9D93",
"v. c #E69C96",
"b. c #F49D93",
"n. c #F59F99",
"m. c #DEA58C",
"M. c #DCA896",
"N. c #E6A48C",
"B. c #EBA28E",
"V. c #EBA78B",
"C. c #F7A48D",
"Z. c #FAA28D",
"A. c #E4A393",
"S. c #ECA595",
"D. c #E5AB94",
"F. c #EDA994",
"G. c #E4A49B",
"H. c #EDA59E",
"J. c #E5AB9E",
"K. c #ECAC9C",
"L. c #F3A394",
"P. c #F1A996",
"I. c #F1A49C",
"U. c #F1AE9C",
"Y. c #F9A492",
"T. c #ECB29A",
"R. c #E6B598",
"E. c #F2B19D",
"W. c #F1B89D",
"Q. c #F19EA1",
"!. c #EBA5A1",
"~. c #E4ACA3",
"^. c #EBAAA3",
"/. c #EDADA9",
"(. c #E7ADAD",
"). c #F5ACA4",
"_. c #F3ACA9",
"`. c #F6A8A4",
"'. c #EBB4A4",
"]. c #EEBCA6",
"[. c #E6B4AA",
"{. c #ECB4AA",
"}. c #EDBBAA",
"|. c #E6B8A9",
" X c #F2B2A4",
".X c #F2BBA6",
"XX c #F5B6AE",
"oX c #F3BAAC",
"OX c #FBBAAC",
"+X c #F8B5A9",
"@X c #EDBDB0",
"#X c #E6B6B8",
"$X c #F2B5B2",
"%X c #F3BAB3",
"&X c #FBBBB4",
"*X c #F0B7BA",
"=X c #F8B1B3",
"-X c #ECC4AC",
";X c #E8C2A7",
":X c #F3C3AD",
">X c #F4C6A7",
",X c #E5C4B2",
"<X c #EECBBC",
"1X c #E9C7B7",
"2X c #F4C4B4",
"3X c #F2CBB4",
"4X c #F4C5BC",
"5X c #FCC5BD",
"6X c #F4CBBD",
"7X c #FACABD",
"8X c #F9C7B5",
"9X c #EDD3BB",
"0X c #EEDBBE",
"qX c #F1D3B6",
"wX c #F3D3BD",
"eX c #F2D9BA",
"rX c #ECCDC3",
"tX c #E7CDC3",
"yX c #F4C6C3",
"uX c #F5CBC2",
"iX c #FACBC2",
"pX c #F5CECA",
"aX c #F8C6C1",
"sX c #EDD4C2",
"dX c #EDDCCE",
"fX c #ECD3C7",
"gX c #F4D3C4",
"hX c #F9D4C3",
"jX c #F4DAC5",
"kX c #FADBC7",
"lX c #F4D4CB",
"zX c #F9D4CA",
"xX c #F5DACB",
"cX c #FADCCC",
"vX c #FBD6D2",
"bX c #F5DCD2",
"nX c #FCDBD2",
"mX c #F7DAD6",
"MX c #FEE1CD",
"NX c #F2E1CB",
"BX c #F4E2D4",
"VX c #FDE1D2",
"CX c #F5E5DB",
"ZX c #F9EADA",
"AX c #F5F2DC",
"SX c #EDE4D2",
"DX c #FAECE3",
"FX c #F7E9E1",
"GX c #F6F3E5",
/* pixels */
"_ #.+.:.:.+.:.:.#.:.:.+.;.;.:.:.:.O.:.:.#.:.:.+.:.:.:.#.:.;.+.;.:.:.;.:.:.:.:.;.+.:.:.:.:.:.:.:.:.:.:.:.+.;.:.;.+.:.;.:.+.;.:.:.",
"*.#.+.:.:.+.O.:.Q +.:.+.+.+.+.+.+.Q +.:.+.+.:.+.O.:.Q +.+.+.+.+.+.+.+.+.+.+.+.+.+.Q O.+.+.#.+.Q O.+.+.#.+.+.+.+.+.+.+.:.+.+.O.+.",
"*.+.+.:.+.+.+.+.+.+.+.+.Q +.+.+.+.+.+.Q Q +.+.Q Q +.+.+.Q +.+.+.+.+.+.Q +.+.+.+.+.+.Q +.+.+.+.+.+.+.Q +.+.+.+.+.+.+.+.+.+.+.+.+.",
"*.@.Q :.Q +.+.+.+.+.+.Q +.+.+.+.+.+.+.+.+.+.+.+.+.+.+.+.+.+.+.+.+.+.+.+.Q +.+.+.+.+.+.+.Q +.+.+.Q +.+.+.Q +.+.+.+.+.+.Q Q +.+.+.",
"*.:.+.:.:.+.+.+.+.+.+.+.+.+.+.+.+.+.+.+.+.+.+.@.+.+.+.@.+.+.o.+.+.+.+.+.+.+.+.+.@.+.+.+.+.+.@.+.+.+.+.+.+.o.+.+.+.+.+.+.+.+.+.+.",
"_ :.Q :.+.+.+.Q +.+.@.+.+.+.+.o.@.+.o.@.o.O.+.+.+.@.+.@.+.X.+.+.@.#.o.+.+.+.+.@.+.+.O.@.o.+.+.+.+.@.#.+.+.+.:.:.+.+.+.+.+.+.+.+.",
"*.@.Q :.+.+.:.:.+.O.@.:.:.:.+.+.+.Q +.:.+.Q +.Q Q Q +.+.Q Q Q +.Q +.Q Q Q Q Q Q +.+.Q +.+.Q Q +.Q Q Q +.W :.:.:.+.+.:.+.+.:.+.+.",
"*.@.:.:.+.+.Q +.+.+.+.+.+.Q Q +.#.+.+.+.@.+.@.+.@.+.+.+.@.+.O.@.o.o.@.@.o.+.@.o.+.@.+.+.+.#.@.+.@.+.o.+.+.+.o.o.+.O.+.+.:.Q +.+.",
"*.:.Q :.+.+.:.Q :.+.O.X.{ | W W W W W W W W W Q W W W W W W W Y T ( T H W W W W W W W W W W T W W W W W W | X.T +.O.:.+.+.+.+.:.",
"*.:.Q :.+.+.+.+.+.W f.2X6X<XuXuXaXuX7XuX6XaX6XaX7XuX6XuXuX6X6X7XF.g.2X6X6XuX6XaXuX7X7XuXuXuXuXaXuX6X4XyXrX<X6X X%.+.+.:.+.:.Q +.",
"*.:.:.:.+.:.Q +.:.W @XiXN.T.P.U.T.U.U.U.U.T.K.K.K.K.E.T.K.T.E.U.f.i.U.U.U.U.U.E.E.E.U.K.T.U.F.R.I.NX9XS.U.S.|.xX;.+.:.+.+.Q :.+.",
"*.@.Q :.:.Q +.+.:.^ }.+XH Y R I g F H I F H g k T I H k F F g F Y Y I j H F g F g H g F g F g { z :XN.h ~ k i.gX;.+.+.+.:.:.+.+.",
"*.+.:.:.+.+.+.Q :.^ }.OXL N.wX9XwXuXuX6XuXuX6X}.' 2XuX6XuX6X<XuX6X6X6X6XsXwXgX<X<XuXgX<X9XuX6X9X<XCXNX<X}.X.j.zX;.+.:.+.+.Q +.:.",
"*.#.:.:.+.+.+.+.+.W }.oXJ :XwXc.P.P.H.P.F.P.P.l.&.Z.F.F.F.S.P.F.F.F.P.F.F.F.F.P.F.F.P.P.P.F.H.F.F.J.N.[.xX{ j.gX;.+.+.+.+.:.+.+.",
"*.:.+.:.+.+.+.+.+.O.}.OXR >X XU k I H H H { H H X.F H H H H H F Y F H Y H I H H H Y F H W H R k I I k i.lX%.z.jXW :.:.+.+.+.+.Q ",
"*.:.Q :.+.+.+.+.+.Q  XoXF >X.XI F.pXpX6XpXsXgXpXpXpXpXlXlXgXgXpXgXuXuXpXpXpXgXuXpXuXhXd.J.zXpXwXhXOXO.j.xX%.k.hX;.+.+.:.Q :.+.:.",
"*.:.+.:.:.Q +.+.+.X..X%Xk :X{.h 1XrXN.S.I.L.L.S.P.L.F.F.F.F.C.F.F.F.F.F.F.F.F.D.S.F.P.&.8.S.L.B.~.mX:.p.xX| a.jX| +.+.Q :.+.+.+.",
"*.@.:.:.+.+.+.+.+.W }.oXl 2XtX0.9XE.j W ~ { { H H I g Y I T o.W Y H L Y k Y Y Y { Y H ^ E Y L H ' zX;.p.xX| a.hX%.+.+.:.+.:.+.:.",
"*.+.:.:.+.+.+.+.+.W }.OXU 2XZX4XFX'.Y K.gX6X6XwXwXwXwXwXhXD.m.wXwXwXwXwXhXjXpXuXwXwXjXlXzXlXfX6XhXcX;.j.dX| a.gX%.+.+.+.+.+.Q :.",
"*.#.+.:.+.+.+.Q +.Y :X%Xj :X{.b ,X}.L 4X<XN.F.S.L.L.Z.L.Y.8.3.C.Z.L.L.Y.x.sXyXb.Z.L.Y.z.b.$XDXJ.'.xX;.h.jX| j.gX;.+.+.+.+.:.+.+.",
"*.:.Q :.+.:.:.+.+.X.P.P.j 2X.Xl 2X XJ 4XD.g Y J W L G H H Y { H H H G I M ;XR.D H L J { / x ) f *.xX>.h.lX| a.hX;.+.:.+.:.:.+.+.",
"*.:.:.:.+.Q :.+.+.+.6.i.T 2X.Xh 1X XJ 4XT.W K.gXwXsXlXsXgXlXfXpXlXsXsXgXrXCXSXrXjXuX<X9XZ 0 ) 4 m cXO.j.zX| a.hX%.+.+.Q Q +.+.:.",
"*.@.Q :.+.+.:.+.+.X..X.Xj 2X.Xh 6XOXI 4XU.J 6X1Xx.c.v.f.f.d.v.f.f.f.N.N.b.f.S.l.B.f.M.AXA ~ ZXc m zXO.#.{.O.8.hX%.+.+.:.+.:.+.Q ",
"*.:.Q :.+.Q +.+.:.T .X.Xj 4XXXf 9.-.z 6XK.D 3XF.* > 4 > > , , 1 1 > R L { } Y W W U =.eXA P VXv c cX#. .0.O.j.hX%.+.:.Q +.+.+.:.",
"*.@.:.:.+.+.+.+.+.R -XoXl %X%X% N v : uX,X0.9XA.= .XxXxXxXbXvXvXvXC _.zXlXgXuXzX<X..' kXA b MXx m nXO.j.gX| a.gX%.+.+.+.+.+.+.:.",
"*.:.+.:.Q +.o.+.+.W .XoXl 2X$X$ aX)., yXBX>XZXH.= iX@Xp.t.t.e.w.w.q y.L.b.S.l.A.mXq.q.mXc m MXx c mX;.p.zX%.j.hX%.:.+.+.+.+.+.+.",
"*.:.+.:.+.+.+.+.+.T ].oXF 2X$X$ 2XJ., 6X[.s 6X^.& iXU.> 0 d w r e i ^ L | -.T &.CXfXgXCXx m VXx c nX%.j.xX| j.gX;.+.+.+.+.+.+.+.",
"*.:.Q :.+.+.+.+.+.W ].%Xg 2XXX$ 2XJ.= 6X{.g 6X!.& 7XE.4 ^.MXhXhXhXzXgXwX9X9X .>.lX' ] bXZ m VXc c nXO.h.lX| j.gX%.+.+.+.o.o.+.+.",
"*.:.Q :.+.:.+.Q +.O.].oXI :XXX; 5XJ.: 6X{.I 8X!.& 7XE.4 *X|.g.f.f.f.N.a.A.xXy.=.xX&.2.vXf B VXx m nX;.h.jXL j.gX;.+.+.+.+.+.+.+.",
"*.#.:.:.+.+.+.+.+.X..X%XF 2XXX# &XJ.= 6X{.I 7X!.& 7X).5 *XK.R +.Q E W T *.gXy.>.jX,.4.vXx m nXc m nX;.h.xXO.p.gX| +.+.+.o.+.+.+.",
"*.#.:.:.+.+.+.+.+.X..XoXI :XoX; 2X^.: 6X/.F 7XH.& 7X`.4 <XT.W @.<.<.@.o.&.jXy.1.xX,.3.xXx P VXx m nX| h.xX| j.MX>.<.E E +.+.o.+.",
"*.+.+.:.+.:.Q +.+.W .XoXI :X$X% 2XK.: 6X_.g 3XJ.4 7X).4 v.u.g I 0 o R #.2.zXy.2.xX=.3.MXp m cXc m nXO.5.gX! s ` i y   + W #.+.+.",
"*.+.Q Q +.Q +.+.+.W ].OXI :X+X% 2XK.= qX_.k 8X!.: wXF.f q w 9 6 . X f <.2.xX=.] zX=.=.xXp B VXx m nX;.i.xXx 2 ) f t   + E +.@.+.",
"*.:.:.:.+.+.+.+.+.W ].$XI 2X=X% 2XJ.& 6X_.F 8XH.= aX/.` rX`.+.+.y > Q +.=.lX1.&.4X1.3.cXp m nXx m nX| h.xXa M MX>.<.R E :.@.+.:.",
"*.:.:.:.+.:.Q +.+.X.].oXI 2XXX% 2XK.: <X_.I 7XH.= uXCXqXAXQ.E X.:.+.o.+.O.xX1. .0.;.3.nXp b VXx m nX;.a.vXv M jX} :.:.+.+.+.+.+.",
"*.#.Q :.+.+.+.+.+.T .XoXI :XXX# 2X^.: 6X`.T K.f., 7X'.` sX[.i.d.x.k.a.p.d.BX3. .&X&.&.xXp b MXb m nXO.i.nXa B hX;.+.@.+.+.+.:.+.",
"*.#.:.:.+.+.+.+.:.Y ;X+Xs |.|.$ 8X~., 7X~.k g.-.& 6XJ.F W.jXgXgXlXjXjXqXjXyX| 2.lX=.&.MXp m VXx P nX%.h.xXp ! cX| +.o.+.Q +.+.:.",
"*.+.:.:.+.+.Q :.+.W -XxXR.NXXX% 4X^.: 7X[...3XH.1 wXD.T W %.O.{ | O.X.X.O.%.{ $.hX=.3.xXs m MXx c nX%.h.xXa B cXW +.+.+.+.:.+.Q ",
"*.:.+.:.+.:.+.Q +.W }.mXR.SXXX% 2X^.: 6X(.S 4XH.1 gX#Xp.f.f.h.p.h.h.h.k.k.c.d.A.mX>.3.cXp m VXx c mX>.p.xXi ! cXO.+.+.+.+.:.:.+.",
"*.:.Q :.+.+.+.+.+.W .X=Xb 4X&X% 5X^.: 8XBX-XAXG.> &XmXzXnXVXbXmXvXzXdXGXBXsXgXzXuX .3.cXx m VXx c mX:.p.xXp B cXO.+.+.+.+.Q :.+.",
"*.:.Q :.+.+.+.Q +.W ;X&Xf B V o 2X!.: 7XrXs.xXH.o 7 7 8 e e e e 8 D [ -XA.K O.%.} { &.xXc m nXx m nX| p.jXp B MXO.+.+.o.+.:.+.+.",
"*.@.+.:.:.+.+.:.+.Q ;X%XO ) ) f 2XK.- yX~.S 4X,Xw.*.0.*.,.w.9.g.m u v.sX'.f.l.h.d.d.M.NXS A nXx m cX| f.kXa M cXO.+.@.+.+.:.:.+.",
"*.>.+.:.+.+.+.:.+.T .X$X; 5X&XI 8X^.= uXT.g ).xXhXgXbXzXbXGXlXbXG.N nXCXbXxXxXzXxXzXxXjXZ b VXx A vX-.0.bXi B cX;.+.+.+.Q :.Q +.",
"*.:.+.:.Q +.+.+.:.W .X%X; %X XD <XK.= 7XJ./ ^ } O.} L E ' 9X-.L z @ 8 5 6 3 3 7 r q w w O m nXx c DX3XjXmXx ~ xXO.+.+.+.+.+.:.+.",
"w.+.Q Q :.+.+.:.+.Q ].%X> %X{.F 4XJ.= 7X1Xd.f.V.@.>.A.n.~.NXG.c.b.r.t.t.t.w.w.e.t.*.=.*.*.~.VXn n CXf.'.BXf B cXO.+.+.+.:.Q +.:.",
"*.:.:.:.+.+.+.+.+.T ;X%X# 2XXXF 2X^.: +XbXgXhXhXS.!.zXxXvXNXkXhXjXcXcXxXcXcXkXcXnXnXzXzXkXxXaXx n kX| =.jXp V cX#.+.o.+.+.:.+.+.",
"*.@.:.:.+.Q Q :.+.W oX%X% oX}./ qX!.o 2 2 = 2 2 2 5 , , , 1 & 1 1 3 2 , 1 1 1 = = 2 2 2 2 2 6 O V hX .5.xXi B cXO.+.+.+.+.:.:.Q ",
"*.:.Q :.+.+.:.+.+.T }.@X% 2X.X/ 2XaXr.d.s.k.s.s.s.s.x.s.p.f.f.s.p.! =.k.f.p.s.p.s.s.s.s.s.k.v.x./.pX,.h.cXp B xX| +.+.+.Q +.:.+.",
"*.#.+.:.+.Q :.+.+.T }.%X% %XoXH R.sXqXeXgXzXCXFXdXkXzXzXzXzXxXzXaXq.@XzXlXlXzXpXlXzXlXzXlXlX0XqXwX-X} h.zXa V kXO.:.o.+.+.+.+.+.",
"*.:.+.:.+.+.:.+.+.W ].$X; &X[.H W L L W W D d.oXb W Y H I I H G Y U Y H H L K L L L G H H H L I H L l y.xXi V cXO.+.+.+.+.:.+.:.",
"*.:.+.:.+.Q :.+.+.T ;X%X% 4XrXN.H.b.V.V.S.A.1XdXM.P.F.A.S.L.L.I.L.C.I.n.S.L.L.Y.L.L.P.L.S.L.H.S.H.!.L.[.CXi K xX%.+.+.+.:.Q +.:.",
"*.:.Q :.+.+.+.o.+.W .XXX- I.6XgXgXuXhXuXpXpXpXpXpXpXpXpXpXpXpXzXpXlXpXzXpXpXpXpXpXuXuXlXpXpXgXhXgXgXgXuX4Xy M kX%.:.+.+.+.+.+.+.",
"*.:.Q :.+.+.+.+.Q W '. X- < < > & & & : & & & & & & & & & & & & & & & & & & & & & & & & & : % & & & & & : * ) hX^ :.+.+.+.:.+.+.",
"*.#.:.:.+.+.:.+.+.W .X6XA.A.S.H.H.H.H.!.!.!.H.H.!.!.H.H.H.!.H.H.!.H.H.!.H.H.H.!.!.H.H.!.!.!.I.I.I.I.H.H.S.S.|.xX;.+.+.+.+.+.Q :.",
"*.#.:.:.Q +.+.:.Q Y A.<X3X3X6X2X6X4X4X7X6X7X6X7X7X6X6X6X6X6X6X4X7X6X7X6X6X7X7X6X7X6X7X6X6XaXuX6XuXuXwXyXaX4X3XR.O.+.:.:.:.+.+.:.",
"*.+.+.:.:.+.:.Q O.o.| %.| W W O.X.O.| O.| W O.X.W X.W O.O.Y O.O.H X.| W | X.L O.X.H X.O.O.O.| | | L | %.^ %.| | +.o.:.Q +.+.+.+.",
"*.+.Q :.+.+.Q +.+.o.+.+.Q +.+.+.@.+.+.+.+.+.@.+.+.+.+.+.+.+.+.+.:.+.@.+.+.+.+.+.+.@.+.@.+.+.+.+.+.+.+.@.+.o.+.+.Q +.+.:.+.:.+.+.",
"*.:.:.:.+.+.+.+.o.+.+.o.o.+.+.o.+.+.+.+.@.+.+.+.@.+.+.+.+.+.@.+.+.+.+.+.+.+.+.@.+.+.+.+.+.+.+.o.+.+.+.o.+.+.+.+.+.+.+.Q :.Q :.+.",
"*.:.Q :.+.Q +.+.+.o.+.+.+.+.+.+.+.o.o.+.+.+.+.+.+.+.o.+.@.+.o.+.+.+.o.+.+.o.+.@.+.+.+.+.+.+.+.+.+.+.+.+.+.+.+.+.o.+.+.+.Q +.Q +.",
"*.#.Q :.+.:.+.+.+.+.+.+.+.+.o.+.+.+.+.+.+.+.o.+.+.+.+.+.+.+.+.+.+.+.+.+.+.+.+.+.+.o.+.+.+.o.+.+.o.+.+.+.+.o.o.+.+.+.+.+.:.:.+.:.",
"*.@.+.:.+.+.+.+.o.+.+.o.+.+.o.+.o.+.+.+.+.+.o.+.o.+.+.+.o.+.+.+.+.+.o.+.+.+.+.o.+.+.o.+.+.+.+.+.+.+.+.+.+.+.+.+.+.+.+.+.:.Q :.+.",
"*.<.Q :.+.+.:.+.+.+.+.+.+.+.+.+.+.+.+.+.+.+.+.+.+.+.+.+.+.+.+.+.+.+.+.+.+.+.+.+.+.+.+.+.+.+.+.+.+.+.+.+.+.+.+.+.+.Q :.:.:.:.+.:.",
"' :.+.+.o.+.+.+.+.+.+.+.+.+.+.+.+.+.+.+.+.+.+.+.+.@.+.+.+.+.+.+.+.+.+.+.+.+.+.+.+.+.+.o.+.+.+.+.o.+.+.+.+.+.+.+.+.+.+.+.+.+.+.+.",
"] #.o.o.o.o.o.o.o.o.o.o.o.o.o.o.o.o.o.o.o.o.o.o.o.o.o.o.o.o.o.o.o.o.o.o.o.o.o.o.o.o.o.o.o.o.o.o.o.o.o.o.o.o.o.o.o.o.o.o.o.o.o.o."
};
