/* XPM */
static char *_55c870c9a08498ab63efa2972d2f99cxPWgqH6lyaustla1[] = {
/* columns rows colors chars-per-pixel */
"64 64 197 2 ",
"   c #2F1623",
".  c #331624",
"X  c #381725",
"o  c #351926",
"O  c #381827",
"+  c #39172C",
"@  c #361D2A",
"#  c #3C1C2C",
"$  c #3E1F31",
"%  c #3E222E",
"&  c #36212D",
"*  c #3F2231",
"=  c #411D2E",
"-  c #441D33",
";  c #4A1E36",
":  c #471F3A",
">  c #4D1D39",
",  c #521F37",
"<  c #501F3C",
"1  c #40222F",
"2  c #432433",
"3  c #4A2236",
"4  c #452A36",
"5  c #472339",
"6  c #4C243B",
"7  c #472A38",
"8  c #4D2B3C",
"9  c #522337",
"0  c #53243C",
"q  c #5B253E",
"w  c #542A3D",
"e  c #5B2A3E",
"r  c #4D333E",
"t  c #52323F",
"y  c #5B323F",
"u  c #602B3F",
"i  c #712F3F",
"p  c #4E2440",
"a  c #4F2C41",
"s  c #552441",
"d  c #5D2642",
"f  c #552C42",
"g  c #5B2C44",
"h  c #5E2C49",
"j  c #4E3441",
"k  c #543343",
"l  c #5B3345",
"z  c #553945",
"x  c #5D3946",
"c  c #543748",
"v  c #5C3449",
"b  c #5C3B4A",
"n  c #612643",
"m  c #632C44",
"M  c #692D46",
"N  c #642D4A",
"B  c #6C2D4B",
"V  c #702E4B",
"C  c #633246",
"Z  c #693246",
"A  c #613947",
"S  c #64344A",
"D  c #6B334B",
"F  c #643B4C",
"G  c #6B3A4D",
"H  c #743345",
"J  c #783244",
"K  c #713947",
"L  c #72344C",
"P  c #7B364D",
"I  c #733B4D",
"U  c #7C3B4E",
"Y  c #672E50",
"T  c #682F51",
"R  c #663650",
"E  c #6D3453",
"W  c #643D51",
"Q  c #6C3C52",
"!  c #753352",
"~  c #7A3553",
"^  c #743C52",
"/  c #7B3C53",
"(  c #753659",
")  c #7D3759",
"_  c #753B58",
"`  c #7E3C5A",
"'  c #5F424D",
"]  c #5F4150",
"[  c #64404D",
"{  c #6D414E",
"}  c #73424E",
"|  c #7A404F",
" . c #634252",
".. c #6C4253",
"X. c #6B4855",
"o. c #6A4258",
"O. c #6E4959",
"+. c #744354",
"@. c #7C4355",
"#. c #754A56",
"$. c #7B4956",
"%. c #764658",
"&. c #7C455A",
"*. c #754A5A",
"=. c #7C4B5A",
"-. c #7B505F",
";. c #8D374F",
":. c #823B4E",
">. c #8B3A4F",
",. c #9E374F",
"<. c #933B4D",
"1. c #993A4D",
"2. c #843657",
"3. c #8D3750",
"4. c #833D53",
"5. c #8A3C51",
"6. c #82355A",
"7. c #833C5A",
"8. c #8B3D5C",
"9. c #943C51",
"0. c #983C51",
"q. c #933E5E",
"w. c #A2374F",
"e. c #A0384F",
"r. c #A23750",
"t. c #A03850",
"y. c #933F60",
"u. c #80404F",
"i. c #834355",
"p. c #8B4355",
"a. c #834957",
"s. c #8B4956",
"d. c #83445B",
"f. c #8C445C",
"g. c #844B5C",
"h. c #8B4C5B",
"j. c #934353",
"k. c #944957",
"l. c #94455B",
"z. c #9A445C",
"x. c #934B5A",
"c. c #994A5C",
"v. c #86525E",
"b. c #8B525D",
"n. c #92515E",
"m. c #A1495F",
"M. c #854661",
"N. c #8D4462",
"B. c #864E61",
"V. c #8C4B62",
"C. c #924462",
"Z. c #924C64",
"A. c #9C4C63",
"S. c #855362",
"D. c #8C5463",
"F. c #8B5A65",
"G. c #8F5F6A",
"H. c #945364",
"J. c #995265",
"K. c #925966",
"L. c #995967",
"P. c #96566A",
"I. c #9D5669",
"U. c #945D6A",
"Y. c #995B69",
"T. c #9A5A6E",
"R. c #9E5B6F",
"E. c #9B5D6E",
"W. c #9F5F6D",
"Q. c #9C5C6B",
"!. c #9C5E70",
"~. c #A04760",
"^. c #A24B63",
"/. c #A04F69",
"(. c #A15D6C",
"). c #A15D71",
"_. c #A45B71",
"`. c #A95E71",
"'. c #96616B",
"]. c #94616D",
"[. c #9C616D",
"{. c #9B6671",
"}. c #9C6072",
"|. c #A1616E",
" X c #A2626E",
".X c #A16270",
"XX c #A76171",
"oX c #A36472",
"OX c #AB6577",
"+X c #AC6173",
"@X c #AC6678",
"#X c #AA677A",
"$X c #A66978",
"%X c #B06276",
"&X c #B06779",
"*X c #B1697B",
"=X c #B26C7D",
/* pixels */
"+.+.@.@.&.=.G G I +.^ / +.D.K.K.U.U.U.}.D.i.p.p.p.p.p.s.j.0.0.0.0.0.9. X$XoXoXoX.XoXU.x.n.n.h.h.h.b.@.@./ / ^ I ^ =.a.&.@.@.+.+.",
"I ^ / / i.d.G D L I U / U D.P.P.T.T.T.).D.:.p.5.9.9.<.p.0.,.e.r.t.w.,.XX*X&X&X@XOX#XQ.c.c.c.x.x.x.h.i.4./ / / I I &.d.i.@.@./ / ",
"/ / @.@.i.g.G L L I U / / D.T.P.T.T.E.}.D.:.:.>.>.5.<.p.0.,.1.,.t.r.,.XX=X*X*X@XOX#XY.c.c.c.k.k.k.h.4.4.U / / I I i.d.i.@.@.@.^ ",
"G ..#.+.%.*...+.+.#.+.+.} =.S.v.S.G.U.].F.g.b.v.s.s.s.a.s.j.j.k.x.x.x.K.E.Q.[.{.{.{.].H.H.K.D.H.H.F.S.S.S.=.$.=.#.=.=.$.=.=.@.@.",
"d g y e e u m C C { G I I I I I @.Y.Y.Q.W.W. X.Xn.x.c.c.c.c.c.x.z.z.z.z.z.z.x. X X X.X.X X].!.).).).R.T.R.v.&.&.%.@.^ ^ %./ / / ",
"q m e e m m m m Z G G K I I U / &.Y.Q.(.(.(.(.(.x.k.k.c.c.c.c.x.z.z.z.z.z.z.A..XXX X XXX XQ.W._.)._.R.I.R.h.i.&.@.@.^ ^ @./ / / ",
"C A x g C C C C C { G I +.I +.&.=.U.Q.[.W.[.E.[.b.s.h.h.x.x.x.h.z.l.l.z.z.z.H..X X X X[.[.].].!.!.!.W.T.!.S.=.$.$.$.$.%.*.&.@.@.",
"*.%.@.@.@.&.&.@.I @.@.@.i.i.a.#.#.$.=.g.g.$.D.[.'.Q.[.[.[.F.x.c.A.A.c.c.A.j.j.j.j.j.j.p.D.U.U.U.K.K.K.F.D.D.S.B.g.g.S.-.%.%.%.%.",
"%./ / 7.7.i.f.d.U P U :.4.5.i.} U U U | 4./ H.`.`.`.`.+X%XW.A.^.^.^.^.^.^.j.1.1.1.1.1.<.H.Q.I.Q.L.H.L.H.f.C.l.f.f.8.d.&._ _ ^ ^ ",
"%./ ` ` 7.d.f.d.U U U :.4.4.i.} I | | i.i.@.H.+X`.`.`.`.+XW.A.~.m.m.^.^.^.j.1.1.<.1.<.<.H.W.Q.Q.L.L.Y.H.x.Z.Z.f.f.f.N.&./ %.^ ^ ",
"*.+.%.@.@.%.&.=.$.%.$.=.=.=.=.$.$.$.$.$.$.$.v.Y.K.Q.E.[.[.].K.K.H.H.H.H.H.h.x.h.h.h.h.a.F.K.F.K.D.D.D.D.h.h.g.d.&.d.&.%.+.%.=.=.",
"D D Q F m m Z Z D D %.d.d.V.V.V.V.B.@.@.@.i.p.i.i.K.W.W.W.[.[.[.Y.A.A.A.A.A./.H.4.5.5.5.>.>.4.h.f.f.i.i.i.i.$.+.^ ^ I Q G +.Z.C.",
"L L ^ D M M M B V B ` d.d.N.N.V.Z.h.@.4.@.i.p.p.i.Q.(.(.(. X(.(.P.A.A././.A.A.Z.>.;.3.;.3.3.5.f.l.l.p.p.p.p.$._ ^ ^ ^ G D ^ C.C.",
"^ I +.F m Z Z Z L L &.g.M.V.V.V.V.B.@.@.@.@.i.i.i.U. X[.[.[.W.[.K.J.J.J.J.J.J.H.:.5.5.5.5.5.5.h.h.h.h.g.a.a.=.@.@.+.+.Q Q %.Z.C.",
"#.Q +.G G ^ ^ +.F F ..+.+.+...$.$.=.$.=.=.=.=.@.$.a.g.g.g.S.D.D.F.D.D.D.F.D.b.b.s.s.s.s.h.a.a.h.g.g.g.-.+.+.+.} } } +.g.g.g.M.d.",
"Q B L L L ! ~ I m m m Z Z Z D @.4.i.i.i.i.i.@.:.:.4.4.4.:.i.Z.Z.Z.Z.Z.Z.H.x.z.c.c.c.l.l.s.p.p.p.p.p.i.$.H J J J H i H f.q.8.8.8.",
"Q B L L L ! ! I m m m C Z D D @./ i.i.i.i.i.@.U U / 4.p.4.i.H.Z.Z.Z.Z.Z.D.x.z.l.l.l.j.l.s.p.p.i.i.i.p.&.H H H H H H H f.q.8.8.8.",
"..G G G ^ +.+.%.G G G G G G { $.@.$.$.$.=.g.=.@.a.&.i.i.a.g.D.D.D.D.D.D.D.b.h.h.h.h.x.h.g.g.g.g.g.$.$.=.I I I I K K } g.g.g.g.d.",
"m C C Z Z Z G D L L I I I ^ @.&.&.i.i.a.a.b.J.J.J.J.J.Q.D.| U U U u.4.@.H.H.H.H.H.H.P.g.U / / U / U ^ / U I I K L I +.L I I L D ",
"m m m m M M Z D H H L P L P @.i.i.i.i.i.i.b.J.A.J.J.J.I.D.U :.U U :.:.U H.J.J.J.J.J.J.g.P ~ P P P P / U P P L H H I ^ L L L L L ",
"m N m C D D D L D L L P P I @.i.i.i.i.i.i.v.J.J.J.J.J.I.D.U U U U U U U H.H.H.H.H.H.P.h.P U U P P P I I P I K K L I I L P L L L ",
"F x x x x x A A +.+.%.@.%.=.=.=.%.%.%.%.@.=.=.=.$.$.$.$.=.@.=.g.g.g.g.g.B.h.i.i.g.a.h.a.i.h.g.h.h.h.h.g.=.g.g.g.g.=.&.+.G G G G ",
"m w 9 w w e w w ../ / i.d.d.d.=.^ ^ _ _ ^ _ +.I L U / / / / d.Z.Z.Z.Z.Z.Z.g.:.:.4.5.4.5.i.Z.A.A.A.A.A.A.f.8.q.q.8.8.8.&.G G D D ",
"m w 9 0 w w w w ../ _ / 7.d.i.%.^ ^ ^ _ _ _ %.^ P U U U / / d.C.V.Z.C.V.Z.f.4.5.5.4.4.5.p.Z.c.c.A.z.z.z.f.8.8.8.8.8.8.%.Z D D Z ",
"G x l x x x x x #.=.=.=.=.=.=.=.*.%.%.%.%.%.*.#.+.+.+.%.@.@.g.B.B.h.B.g.g.g.i.g.g.a.a.a.g.D.H.D.D.V.Z.V.h.f.f.f.d.d.f.%.....{ { ",
"^ Q ^ +.^ ^ ^ ^ +.+.%.&.&.&.d.d.M.=.S D D G G G ^ N.C.C.C.C.C.C.@.+.+.+.+.+.+.=.h.h.h.h.h.h.h.V.f.f.f.f.f.d.V.N.N.N.N.N.N.B.g.g.",
"E D E I L ^ ! ! ! ^ / ) ` 7.7.7.7.%.m m m Z D D L y.q.q.q.C.y.z.%.I ^ ^ ^ ^ I @.p.p.p.p.p.p.f.f.q.8.8.8.8.f.V.C.C.C.N.N.N.d.d.i.",
"E E Q ^ ^ ^ ^ / / _ %.` ` 7.7.d.M.=.C S C C S Z G N.y.y.y.y.C.C.@.I } ^ ^ ^ I $.l.f.f.f.f.p.h.f.f.f.f.f.f.f.V.C.C.C.N.N.C.h.d.d.",
"Q Q ......+...F F F ......*.#.+.#.X.....O.*.%.%.*.g.d.g.d.i.d.d.@.@.@.=.%.@.+.%.d.i.d.i.d.d.d.g.d.M.&.%.%.%.=.=.=.=.&.=.=.=.%.%.",
"Z Z M Z M D f 9 0 0 0 9 9 l u q u m m n Z i.8.8.8.8.8.8./ U 4.4.4.4.4.@./ 7.7./ / / @.&.7.7.7.7.7.7.^ Z D D Z S N G ~ ( ! ! ~ ~ ",
"M M M M M Z f 9 0 0 0 q 0 C n n n n n n Z 7.2.2.2.2.8.8./ :.:.:.:.:.:.@.7.7.7.7.7./ i.7.7.7.7.7.7.7.^ Z D Z Z Z M Q ~ ~ ~ ~ ~ ~ ",
"D D D G G G x w f f w w e F A C C C S S F d.d.d.d.7.d.d.=.&.&.&.@.@.@.@.@.%.%.%.%.%.&.&.&.&.&.&.d.d...D G G G Q D ..%._ ^ ^ ^ ^ ",
"g l l x k k k t k k x F S F A F F F F x v S S x x [ F F F F F F F A C A A A A x +.d.&.&.&.&.@.=.%.%.+.+.+.+.%.^ D G I I D G F F ",
"q q q f 3 6 6 9 9 3 f C h h m N N D h 0 0 q q q q x C N N N N N S m u u e e n e ^ 7.7.7.7.7.7.@./ / / / / / ^ D B B B B B L D m ",
"q q q f 3 6 6 9 9 9 w A h N h h h C l 0 w w e e e x C l C C S S S l e e e e e e ^ 7.7.7.7.7.7.%.^ / ^ ^ ^ / ^ D V L V L L L G S ",
"x v k k k k k x x k x F F F  .Q D S S C C S S l l A S A S G Q E ^ G I G D F F F X.#.#.*.=.&.&.=.%.+.+.%.+.Q ..Q F F F ..Q F F F ",
"8 3 3 3 6 6 3 f f w w w w w l ^ V L L L L L D m N m m m m Q 7.6.6.6.6.6.7.F C S C C C C ^ / / / / / / _ S C C C C C A C q e q e ",
"8 ; ; ; 3 6 > 0 f 0 w w w w f D V B V B V V N d n m m m n D 6.6.6.6.6.6.6.F C C C S S C ^ / ~ / ~ / ~ ^ C m C C C m S m q q q q ",
"k 6 6 6 6 0 6 k k f k l l f x Q L D D D I ^ Q C S S S S N Q ` ` ` ` ` ` ` F S S S S S F +./ _ _ @./ &.=.F F F F F F F A d d d f ",
"x l l l l W Q Q Q Q ....O.G D G G D D Q ..F F F F F F ..Q ^ ^ ^ ^ ^ Q k l k f f k l x x x x x x F F x A A v S x x A x l l l l l ",
"w f f f w S E E E E E E Q D Z Z M Z M S m q d d d n d D ! ! ! L L ! D 9 0 9 0 0 9 w e w w w w w f l 0 0 0 0 q 0 e e e e e e f d ",
"f f f f w R E E E E E E Q D D Z Z Z M D C n d d d d d D ! ! ! ! ! ! Q w 0 0 0 0 0 w f w w w f f f l 0 0 0 0 q 0 f g e e e q e e ",
"F b v v x W Q Q S S S S Q Q X.X.X.....X.F A F F F F F #.*.#.Q Q Q Q  .l x k l l x x x x x x x x F [ v A S C C C A F [ ..{ F F F ",
"S m m d d d m g 0 0 w e w f l 4 2 4 2 2 2 4 ^ ( ^ ^ ^ ( _ F w w w w w w l w 0 6 0 0 9 w w 8 8 8 8 8 8 F C C C M m m D / / / / _ ",
"N d d n d d d f 0 0 0 0 q q f 2 2 2 2 2 = 2 E ! ! ! ! ! ( F 9 0 0 0 0 0 f 0 6 6 6 6 6 6 6 6 3 3 5 6 6 A M m m m m m Z ~ ~ ~ ~ ~ ",
"S d d h h n m l e f e e f f x 2 1 2 2 2 2 4 Q ( ( ( ( ( (  .w w f f w w x w w w w w w w w 8 w w 8 8 8 F S N S N N m D / / / / / ",
"R R D R D g g g g g g l  .F W v v v v v l l S S S S F g s l f f l x b k k k k k k k x k k k k k x A S F F F F F Q G D D D D D Q ",
"B B B B B f s 0 s s s s S N N T T T E R d d q q s q f 9 3 9 9 9 9 0 k : ; 3 ; ; : 6 > ; ; ; ; ; 0 m n d n n n n D D B B B B B D ",
"B B B B B s s s s s s s R T Y N N N Y S d q q d q q d 0 , 9 , 9 9 0 k : 3 : ; 3 : 6 3 ; > > > ; 9 C d n m m m m S B B B B V V D ",
"R S S S S v l l x l v x  .R W ....Q o...v l l l x l x x x x x k k x b 8 f k f f f k g f f w w w f S l S A A S F W G G G Q D E Q ",
"k 8 8 8 8 w w w 2 2 % 1 % % 2 x l l v v l l b * 2 2 2 4 4 4 2 * 2 2 2 % 2 Q D D D D D R x 3 6 6 8 6 6 k w w w w f w f k f f f f ",
"w 9 6 6 6 6 6 6 # # # # # # # f f f f f f f k # = # # # # 1 # + + + # # # C N N N N N B v 2 5 5 5 5 5 8 w 9 9 9 9 9 w f 0 0 0 s ",
"k w w w w w w f 2 = # # # # 2 l f f g g f g z % 2 1 1 1 1 2 * % * * * # 2 F D S D D D D F 6 8 6 6 6 6 k w 9 9 w w 0 w x f f f f ",
"j r r r r j r r r z j k k j j k b b b b l v b z b x x x l x x b c k k k j b b  .F ]  . . .b ' b b b b b x b 8 8 t 8 w t k k f k ",
"+ + @ X X X X X X 4 6 5 5 5 5 : 8 f 0 0 0 s s s v h h h h h h l $ $ - - - # 5 f 6 6 6 6 6 0 f w f f e e e k $ - 2 2 2 = 8 w ; ; ",
"+ + @ X O O O O X 4 5 : 5 : 5 : 6 f s s s s s s v d d d d d d f $ $ - - - - 5 f 6 0 0 0 0 0 l 0 w e f f e k = - = - - - 6 9 ; ; ",
"2 2 4 2 2 2 2 2 2 j f 8 a a a a c v f f f f f f b S S v v v S x 4 4 4 4 5 2 8 k w w w w w w b l l x l l l b r 8 8 t k t z v f f ",
"v v S N C N N N N v w f w w w w k % @ @ @ @ @ & w 6 6 6 6 6 6 k 0 0 0 0 0 0 w 6 3 3 3 3 3 3 w k k k f f f k 8 8 8 t k k b v l l ",
"g l C n d m m m m f > > > > > > 6 O . . . . . . 6 > > > > > > f < < 0 0 0 < 0 : - - : - - : w 0 0 0 0 0 0 8 - 2 2 2 3 3 w f s s ",
"h v S m N N N m N g > > > > > > f @ . . . . . @ 6 > 6 6 > > > f 0 0 0 0 0 6 w 5 - : - - : 2 w f f s w 0 f w 2 4 3 3 3 3 k h f f ",
"c z b x k z z W W W v v v v v v b k k k k k 4 * 4 7 7 7 r b b ] b b W b  .F b b b v v b k f w w w w w k k k 8 8 8 8 k f c v v v ",
"# # @ # # O % v d h N h h h S g g h h h h v .           @ a 6 6 p p 6 p v g f g f f f f 3 ; 3 3 ; ; 6 8 5 5 6 6 6 6 f g g h l h ",
"# # # # # # 2 v h h d h d h v g g g g g d f .   . . . . @ a 6 6 6 6 6 p v f f f f f f f 3 ; ; ; ; ; 6 8 : 5 5 5 6 6 f f f g h h ",
"$ $ $ $ % # 4 S h h h h h h v h h h h h h v & @ @ @ @ @ & a 6 6 p 6 s 6 v f f g g f f l 8 6 6 6 6 6 w 8 6 6 6 6 6 8 k g g l v v "
};
