/* XPM */
static char *c233d0bb3f0143d8cf5f8c5d6b981365ZazYPIawvvz31Cfl[] = {
/* columns rows colors chars-per-pixel */
"64 64 234 2 ",
"   c #0D0105",
".  c #120105",
"X  c #1A0006",
"o  c #150409",
"O  c #1C030A",
"+  c #1C0A0E",
"@  c #16090C",
"#  c #1A0D10",
"$  c #1B1213",
"%  c #230005",
"&  c #2B0006",
"*  c #24020B",
"=  c #2C010B",
"-  c #230A0E",
";  c #2B090F",
":  c #330006",
">  c #33010C",
",  c #3B020D",
"<  c #32090F",
"1  c #390007",
"2  c #2E0611",
"3  c #250D12",
"4  c #2C0C13",
"5  c #270711",
"6  c #350611",
"7  c #3B0512",
"8  c #330C13",
"9  c #3C0B14",
"0  c #3D0D18",
"q  c #320E18",
"w  c #241214",
"e  c #2C1216",
"r  c #241619",
"t  c #2C151A",
"y  c #24191C",
"u  c #2C1B1C",
"i  c #331116",
"p  c #3D1217",
"a  c #35141A",
"s  c #3C141B",
"d  c #341A1D",
"f  c #3B1A1E",
"g  c #2C1D21",
"h  c #251E22",
"j  c #351E22",
"k  c #3C1D22",
"l  c #2D2324",
"z  c #2F2A2A",
"x  c #342325",
"c  c #3B2325",
"v  c #342629",
"b  c #3C2629",
"n  c #3D2B2C",
"m  c #352B2C",
"M  c #3A2F31",
"N  c #3D3435",
"B  c #3B312F",
"V  c #43010D",
"C  c #4B010D",
"Z  c #43090E",
"A  c #53020E",
"S  c #5C050F",
"D  c #440412",
"F  c #4C0412",
"G  c #440B15",
"H  c #4B0B15",
"J  c #430E19",
"K  c #4C0D1A",
"L  c #450618",
"P  c #540411",
"I  c #5A0512",
"U  c #530B14",
"Y  c #5B0B15",
"T  c #530D1A",
"R  c #5B0D1B",
"E  c #4C1117",
"W  c #43141C",
"Q  c #4C131B",
"!  c #431A1E",
"~  c #4C191E",
"^  c #461117",
"/  c #531116",
"(  c #53131C",
")  c #5B131C",
"_  c #52191E",
"`  c #5D1A1E",
"'  c #620C16",
"]  c #63141D",
"[  c #63191E",
"{  c #69171F",
"}  c #4B1622",
"|  c #431C22",
" . c #4C1C22",
".. c #461822",
"X. c #561622",
"o. c #5C1522",
"O. c #541C23",
"+. c #5C1C23",
"@. c #5C1D28",
"#. c #571F29",
"$. c #4B0F20",
"%. c #621622",
"&. c #631C23",
"*. c #6A1D24",
"=. c #631D29",
"-. c #701821",
";. c #432225",
":. c #4B2226",
">. c #442529",
",. c #4C252A",
"<. c #442A2C",
"1. c #4B2A2D",
"2. c #542126",
"3. c #5A2226",
"4. c #53242A",
"5. c #5B242B",
"6. c #532B2E",
"7. c #5C2A2E",
"8. c #442D31",
"9. c #4B2D31",
"0. c #542D31",
"q. c #5B2C32",
"w. c #5B2730",
"e. c #453232",
"r. c #4C3334",
"t. c #4B3639",
"y. c #453A3A",
"u. c #4D3A3B",
"i. c #483837",
"p. c #533235",
"a. c #5C3235",
"s. c #53363A",
"d. c #5B3639",
"f. c #543B3C",
"g. c #5B3B3C",
"h. c #44312F",
"j. c #642125",
"k. c #692126",
"l. c #63242B",
"z. c #6A242B",
"x. c #642A2E",
"c. c #6C292D",
"v. c #722A2E",
"b. c #72262B",
"n. c #632C32",
"m. c #6B2C32",
"M. c #692832",
"N. c #732D33",
"B. c #732832",
"V. c #633235",
"C. c #6C3235",
"Z. c #623639",
"A. c #6B353A",
"S. c #643B3D",
"D. c #6C3A3D",
"F. c #733236",
"G. c #74353A",
"H. c #743A3D",
"J. c #7A3A3D",
"K. c #7B3438",
"L. c #53403F",
"P. c #5B3E41",
"I. c #543F41",
"U. c #493E41",
"Y. c #633D41",
"T. c #6B3C41",
"R. c #733D42",
"E. c #7A3E42",
"W. c #703740",
"Q. c #4C4343",
"!. c #544243",
"~. c #5B4244",
"^. c #5A4749",
"/. c #5C4B4B",
"(. c #544848",
"). c #5E5152",
"_. c #565456",
"`. c #59504F",
"'. c #644344",
"]. c #6B4244",
"[. c #624649",
"{. c #6C4649",
"}. c #644B4B",
"|. c #6B4B4B",
" X c #634847",
".X c #744345",
"XX c #7C4244",
"oX c #734549",
"OX c #7A4549",
"+X c #754B4D",
"@X c #7C4B4D",
"#X c #66504F",
"$X c #6A4F50",
"%X c #724D51",
"&X c #7C4F51",
"*X c #645353",
"=X c #6C5353",
"-X c #6C5B5B",
";X c #685758",
":X c #745354",
">X c #7A5454",
",X c #745B5C",
"<X c #7B5B5C",
"1X c #785759",
"2X c #6B615F",
"3X c #76605F",
"4X c #575F60",
"5X c #7D5E60",
"6X c #6D6462",
"7X c #736463",
"8X c #7C6464",
"9X c #7B6967",
"0X c #7E7070",
"qX c #813B3D",
"wX c #833E45",
"eX c #834A4C",
"rX c #854749",
"tX c #8B4F52",
"yX c #845355",
"uX c #845B5D",
"iX c #8B5B5B",
"pX c #875557",
"aX c #955A5B",
"sX c #83605F",
"dX c #865D61",
"fX c #846363",
"gX c #8C6263",
"hX c #866B6C",
"jX c #926263",
"kX c #996A6B",
"lX c #887575",
"zX c #957978",
"xX c #896E70",
"cX c #968181",
/* pixels */
"+   . . o s.Q J K a.;.1 > % j 8.: > % w = > > , 4 ;.> = W n 6 1 = % y > , V P ,. .T D J c V = & Q | & = > 8 | * * = ; O 5 l * + ",
"@ # y y g M k k s <.8.8 t - n y.>.w 3 l d ; i d c x n m u u.k a d d <.t i 3 4 r.r.4.9.n !.1.>.u f r.r.>.;.| >.u e ; i 4 w r + 3 ",
"O O y v 7 G 7 c 4 9 0 8 u 2./ 2.7.u.,. .a * n k 0 i k n | o.9 2 d Q C F F 9 6 6 D V  .4.` _ / 6.D D i E P V , 9 , , V D t * * O ",
"O . @ d 1 , : f 6 , & = n l.) ` U g.S.U 4.& b 9 & = % k O.V > * 8 C A A A 7 > > D C / ` [ ) [ O.V V q H A F C 7 1 , , , k = O O ",
"o . h t.0 Q 9 | ..W 0 4 Q.6.V.5.5.i.$XA..XH r.p 9 8 6 9.W 7 0 9 t G F V C W w J H V :.6.S.6.! ;.W O.9.4.W f  .d a a = 6 j a w @ ",
"r y r g 4 8.8.,.0.4.0.P.d.1. .u.4...g.d.9.~.7Xd.s.u.>.p.~.}.*X-Xp.^ / 9 W ,.r.p.<.s.q.4.w.!.a.d.^.g.g.,.a >.w.W q j a 8 W  .4 * ",
"u g . X & |  .H O.R 5.0.T T T :.E R &.C O. .].,., | | , G D  .}.( P I Q 5.=.#.R q.m.I Y ) g.j.+.| V > , & ;.) , & 4 4.D , G 4 & ",
"r r . O & 4. .V Q U 5. .C T X.,.O.&.) A O.Q X.} K ;.! G K F :.f.l.U Y ~ q.=.2.) w.C.*.C.l.a.) 5.;.F D V X d  .9 9 e | 0 8 2 3 * ",
"@ r u y 3 e.r.1.<.0.}.^.p.P.q.~.1.0.p.a.g.p.g.~.p.~.f.g.!.[.f./. X1.a.:.0.=X/.Y.s.g.=X-X[.u.s.8XP.! 4.<.b e.u.s.9.1.y.g 4 i 3 $ ",
"a k c M = a W 4.f.O.w.5.5.'.X.q.a.~.s.] z.o.K f.2.2.O.a.-XT.T.1X<X,./ U R ].7X7._ H p.%XwX<Xs.m.&.] &.'.yXS.1.l.D Q 1.8 1 V > X ",
"4 4 5 j & = : G '.` ( U @.Y.o.S.V.S.9.A ] Y V :.X.Q ( 4.:Xl.n.A.5XO.( / )  .a./ Z Z 7.@XwXuXa.K.v.N.G.'.@Xa.^.gX5..X6.% , V , O ",
"@ w t x j d k 9.~.2.4.4.q.[.@.g.g.g.s.+.@.O...r.0.0. .P.-XZ.q.s.6Xg.4.2.2.f ,.V.Z.a.S.>XjXgXa.O.3._ a./.6.;.(.8XY.s.<.r 4 w 4 + ",
"N M /.I.8.<.k i.L.;X~.^.g.w.5.r.c :.|.n./.f.,X X}.2X/.:X7X{.=X~.5.Z.q.{.=X>X-X=X9X9X9X7XlXuXV.7.^.Q 4.-X2.@.5.a.r.G d.6.a t 3 + ",
"v | 8 W ! W 9 >.Z.[.x.W & V P a 4 7 H A k V.G.m.k.:XD.G.G.k.+XZ.P ' ] M.@XtX8X]..XfXlXY.R.J.v.J.S.*.B.<X] *.' A ~ Y U C G q 7 6 ",
"m g.s ~ ,.;.1.1.a.g.Z. .> G D 8 e ..2.T | a.OXx.j.:X XXXC.J.1Xq.Y { m.Z.V.N. Xd.A.8XlXp.C.rXG.F.6.*.=.%XA ] Y U  .H , 1 ^ a 9 9 ",
"l d <.8.,.k <.<.u.P./.-X=X~.p.s.<./.P.p.t.| g.,.,.,X;X X'.S.,X=X|.S.+X%XoX:Xq.g.|.}.|. XD.oX4.H. X$X'.}.D.q.p _ r.f n !.s.;.Q | ",
"9 > 8 f H H D 4.| ^ O.O.q.{.V.Z.S.[.( k.C.Y '.a.|.=XF.a.7.+.n.n.0XT.&.b.k.%XD.Y +.{.c.v.J.S.r.gXgXjX%X'.C.8XQ ` O._ g.|.C.a.C.5.",
", W 7 ;  .D ,  .7 V T F q.S.Z.'.D.|.l.o.k.S q.A.( Z.rXZ.U Y Y A ].M.{ c.) S.l.A A. XN.rXwXO.g.iXzXeX.X| n.lX6.&.` U  .{.n.a.n.a.",
"e 4 d x >.<.d >.>.9.8.'.}.g.{./.[.}.w.@.a.V.P.0.0.d..X{. .+.+.( Z.|.uXa.q.lXV.) 5X;XoX{.OXT.s.>X8X:X:Xe.r.`.r.a.a.a.9.r.1.k 1.s.",
"g t e a 0 b s ..K Q a 2.D.7.7.<.Z.Z.Z.C.^.V.T.D.<X}.3.OX+X:X*XhXiXG.iX,XXXOXuXfXlXn.T.r.4.%XOX2.0.x.D.7.'.r.;.t.k (  .H k  .+.H.",
"* 4 % = , 9 0 K F , > / R.@XJ.2.l.l.z.k.Z.k.F.F.z.g.F.N.G.K.S.iXrXK.qX:XJ.v.tXrX<XU G.I.O.Q O.C.a.&.) ) V.2.U ~ 9 U C D * 2.Y &.",
"+ - = 4 , i p J D V 8 4.D.@XXX6.l.c.&.j.'.c.G.H.E.~.].H.C.H.{.yXXXJ.J.=XE.G.G.pX-X5.XXI.a.~  .{.[.x.5.2.0.;.Q W 8 D V 7 3 f l.O.",
"w 5 s k 8 x c  .f  .6.0.q.g.'.~.|.~.g.].=X:X;X:XuX,X$X-Xr.9.s.V.S.{.:X:X.XS.{.<XzXkX;X!.fX{.}.xX8XZ.|.1.Y.f.<.;.s :.s.<.a.9 ~ 0.",
"6 D 5.! T ..,._ :.&.+.+.n.q... .O.W 7.M.m.H.V.fXF.C.+X{.S.z.l.E.g.oXXXE.jX>Xa.aXjXkX%X|.aXeX7.eX.X+.q.2.XX+XA.! _ +.0.a +.H :  .",
"> D 5.| R  . .Q r.l.) o.#.p.Z. .H W 2.z.l.m.V.uXeXE.+X}.'.E.C.c.4.].eXyXjX.XV.jXkXkXfX,XaXjXd.m.n..Xa._ rXH.G.W Q P :.t ( H 1 s ",
"w 8 k k s b k | c ,.0.0.r.*X6X!.I.!.!.~.s.|.<XzXcXxXzXxX:XuXuXgX=X=X<X8X<X:X*X}.:X<X7X7X>X>X}.S.,X0X*Xg.'.'.].<.1.,.<.u 8 e <.!.",
"q = s / , 8 H G ~ 0.u./ H 4.f./.}.0.q.u.g.>X>XiXhXT.XXyX@X>X>XhXfXdX7X].H.>XyX X|.|.].eXg. XpXeXtX:Xx :.:.4.,.i <.(., ^ +.- f n.",
"> > > C , 6 C H O.6.~ A C O.,./.S.G ( 1.V..XC.K.+X.XXXOXXXOXE.eXOXE.1Xx.b.c..Xg. XD.A.N.S.sXpXwXwXq.i.9 , E > % ; ..V Q ( X 8 K ",
"- > > > 8 4 H ! 6.1.~ U U ( 6.^.a.G G s ,.V.7.x. X].G.C.x.a.{.OX&XyX X! O.O.]. X[.].T.T.P.8XgX@XpXd.c a ; 7 8 < j f , W W o 3 9 ",
"+ - w 4 i < ;.;. .~ 2.g.f.s.r.e.n c 9.<.8.v f 4.q.S.g.9. .a.a.g.a.D.d.~.e.<.g.|.=X;X}.7X-X-XhX>X5X:X=XQ.e.g.e.n r.x j x x a 4 - ",
"* 4 a 1 , V ~  .( / ) 6.S.m.V.n.p. .n.Y.w.f ( b.` iXA.x.{ *.] n.j.' x.kX2X].z.R F :.OXH.A.uXhXOXR.OX+Xq.w.V.6.| , & , e s Q 7 > ",
"* e f , , , W ~ ( ) ] O.D.z.x.M.,.~ T.{.n.s / ] ] iX:X_ ] [ *.3.l.N.c.yX*XZ.] Y R  .E.B.M.gXfXR.T.OXD.'.a.q.p.f 7 > > 4 e & = % ",
"X 3 w = ; 8 s | :.,.W f d.4.6.4.9.k d.9.0.e.;.p. .Z.~.c p.g.:.>.6.g.6.p.u.;.E O._ 1.{.A.w.+X-X/.*Xr.n y.<.9.h.t d w t y w w + $ ",
"* & = & - , , } X.P.g.d.d.a.s.( _ ~ Q c @.V.g.|.:.C ( F O.Y.G O.T w.6.2.g.g.p.k O.V.q.{.'.a.:X8XfX-Xp.g.p.s.r.! s t q e - 3 O H ",
"= & > V 8 , , $.Y n.eXrXE.tXY.N.*.( Q O.R ) ) A._ Y Y I ] m.U Y ] +.( Y 5.m.j.p j.3.U ] O.*.XXjXuX+XG.l.+.O.1.Q H 8 & & = X - v.",
"= & > H e > 7 L A O.A.H.J.yX0.z.l./ (  .+.o.H a...U U U U O.U Y R R / Y ) l.3.f +.3.) *.^ Y j.yX&X].J.k.z.+.<.G H i = = = * o k.",
"O 3 t 9 f 9 f p Q :.,.g.S.].~.0.1.1.:.d.f.n 1.0.d.d.~.0.,.g.6.u.<.s.s.f.1.W 1.;.6.9.:.1.s.P.q.6.d.P.g.,.2. .n u 3 d e.t.8.t $ c ",
"* 8 ^ V C P O._ &.j.] Z.+XC.OXR.-X8XD.F.H.g.M.k.k.n.|..Xx.G.*.1Xn.5.n.%X+X*.z.&.V.:XG.T.].8X5.( @.m.(.:.o.a.a.d a '.1X,X5X^.f l.",
"* > V C A A ( ) ) [ ' 2.eXN.B.B.=XfXF.F.F.q.*.k.z.*.g.A.z.G.H.:X%.Y I l.J.J.k.c.7.'.G.l.m.=XK Y ] *.4.+.+.V.5.8  .1X{.Y.Y.;XQ Y ",
"* 5 i Q  . .4.6.d.g.5.6.{.].'.S.^.P.s | <.c q.Y.p.Y.!.P.g.{.:X*XZ.5.O.Y.{.D.7.x.a.}.d.0.0.*Xf Q @.X.,.p W ,.1.u k g.s.~.f./.a H ",
"O t s ;.`.f.~.).;X6X3X,X7X2X*X=X-X'.n 7 G W 9 P.V.x.n.S.<.:XyX.X:X).1X<X<X=Xs...d.{.9X8X>XY.4.*Xe.r.p.p e.Q.<.t./.`.u u.6XQ.l <.",
"- 4 J ..1.K  .d.~.,X+X>X<X#X=X%X%XW.4.V C C V Q ] { *.&. .qXtXrX<X,XOXH.uX<XQ I ( ) D.R.M.%.A Y.l.j.l.+.g.0.Q O.G.P.W p }.=X<...",
"+ = 8 f 1.} ,.d.g.}.oX+X>X*X'.Y.q.l.~ V C V V  .X.R ] ) W F.N.K.<X2X+XT.dXhXp H ( @.0.oXR.T.+.0.2.3._ / p.P.4.6.H.r.:.a.Z.g.n 6.",
"$ t y x f | <.u.<.<.0.f./.).f.s.<.q.p.| 0.k ~ t.s.q.P.p i 6.6.p.,.<.1.1.r.:Xg.1.g.1.6.p.g.s.f.}.i.s.r.<.).).^.e.f.y.c r.^.y.U.u.",
"3 4 8  . .W 1.~.].S.S.~.}.T.D.M.6.G.F.OX@Xp.R G X.Y g.( ( (  .6./ V ( ) a.XXv.G.OX5.R +.l.1.g.D.( H | *XR.6.p.N r.p.! K ~.9 J K ",
"* < = G Q Q p.g.D.].D.}.+XR.W.M.d.rXJ.eXXX4.' D K ] Q M.z.` ` ~ *.) ` ` D.qXJ.rXE.l.*.c.b.S.'.n.o.) W $X@X5.S.L.4.q.p V d.6 V F ",
"O * * i ! ;.n e.6.p.s.r.S.D.q.5.>.{.R..XT.<.H K K U 9 +.O.O.3.<.a.5.4. .,.A.V.A.V.:.Q O.O.0.6.O.O.( | /.<XY.g.B ,.,...W p. .9 J ",
"+ O 4 i <.s.1.6.s.f.u.L.u.Q.e.6.;.>.,.d J ....4.s.*X}.r...9.W 4.w.g.!.| | ;.<.u.,.,.r.,.i.a.,.3.( d ,.r.r.;.l z m $ Q.4X_.Q.v ~ ",
"O = > G i 5.n.D.A.S.{.>X>X|.6.l.5.O.V.;.o.R R %.0.:X&XT.G.oXo.R =.&.0.Q 5.o.D.Y.m.7.S.l.=XtXz.z.j.a n.].a.V.c H ;.z a <.1.G = %.",
"X * > 9 8  .V.C.x.d. XV.V.S.:.( 2.6.7.;.M.z.] ] :.Z.V.M.z.Z.@.z.z.&...T o.&.A.}.G.n.D.&.g.jXC.c.n.f x..Xp.7.9.H Q c & 7 G 9 * o.",
"@ + w 4 4 d f c >.c <.<.<.1.k ..r.e.>.<.0.0.f W u x d a | t.<.8.<.e.l c <.c ;.n 1.n t.;.e.=Xr.c d w f <.b c n e s b e q f 4 @ * ",
"w 3 b ,.H 7 , r.n.4.2.s.y.#.+.q.6.<.f ;.1.u.1.4.2.:.n c ,.6.7.c ;.2.w.w.f.s ( @.o.| {.XXH.].r.u d t t s | W e <.0.4...3 4 2 = * ",
"X * f  .H H Q a.5.2.2.4.9.X.) ) ( :.9 7 9 8.3.c.m.{ Q 2.+.) c.1.Y.m.@.m.4.H ' %.-.x.rXeXC.XXa.f :.f W H ( U 8 0.n.5.@.= = * O O ",
"O O i W G W ~ | ;.<.! :.<.O./ Q O. .> 7 G c ^ &.x.] W ;. .2.m.>.Y.M.X.=.p.7 Y Y ' / V.XXH.G.d.a s d ! K H F 8 ;.,.n.O.- * * . . ",
". . + 3 - 4 a a 8 j 8.!.f.,.t d c b t j d x n c a a >.n x n 1.c t.s.c <.<.d <.<.r.<.r.P.=X~.<.>.c <.n t d a w r u w r @ . X     ",
"X * * * ; H E ) ^ f 5.7.+.5.k G 9 } !.a a s 4.r.9 G Q Q <.0.( 2.V.s. .5.o.%.5.9.| w.5.q.n.6.! o.+.o.4.a , 9 7 s a - 3 a + > > > ",
"X * & * < G G U W a +.+.` q.k V 6 9 p.0 , 7 ) 9.9 F O.,.n l.( 5.C.1.G X.o.R X.,.W 2.5.n.T G  .] ] ) / q > > = 4 ; 8 f ! i 2 , V ",
". . X O - a i i 5 w ! a a d + * 3 4 d 8 7 p  .k 8 ^ ;.<.j |  .>.4.d , H H ( O.n 9.0.<.1.W p f _ ~ H W e 8 a 8 w c :.f f e O 6 7 ",
"  o * - * b M s 9 k u a t 3 3 $ w w - - # u n N m t 8 ..1.k ;.n t ..;.1.v u >. .9.y.e.!.y.u.m k d 4 4 3 - c x d e a w >.| W s l ",
". * = = 9 | ~ F D W a s G G p t e s s - 5 O.,.~ 9 O.F U +.+.5.}.9 Y ` ) ;.D V V ( s.r.p.6.g.n H D V , = & a a , D V 4 &.) Y T x ",
"X 3 O * 6 q 0 F D p d a 7 7 a t 4 i a 3 4 9.,.V % Q ] H ( K O.#X8 P P F 6.D V F Q p.~.p.:.a.c D D , V > > 8 4 7 F , = 5.( K T x ",
"o o O + O O O 4 t w u w 4 3 - $ 3 t y + w x d a t a ^ 8 8 3 W 9.a W 0 Q <.q 7 6 ;.e.e.>.1.>.c p W 4 * * = i e 5 - 5 - 4 j 4 4 w ",
".   O = 3 = * O t g a e e d 3 * ; ; l a 9 7 6 t s 0 9 6 9 w G I ) Y .._ P U P ; ,.p.;.:.e.<.^ H d E 8 d | 6.4.>.O * * * g O * = ",
"    . O 4 & * * 3 u e 4 * 5 8 = > & d J C D , a 7 6 7 6 p 8 G Y ' I G I I A I a _ O.2.a.r.p.Q C C A ( k ~ O.l.,.= = = = u O = * "
};
