/* XPM */
static char *_4f22d4587f041d9b362b0b85547a336VhNBwWUFKwL6WFim[] = {
/* columns rows colors chars-per-pixel */
"64 64 226 2 ",
"   c #4C2E1D",
".  c #452B1C",
"X  c #502F1A",
"o  c #4D311D",
"O  c #54331E",
"+  c #5A341D",
"@  c #5F3B1F",
"#  c #61351E",
"$  c #653B1F",
"%  c #6B3A1E",
"&  c #783D1E",
"*  c #4E3222",
"=  c #543522",
"-  c #5B3622",
";  c #553925",
":  c #5C3A24",
">  c #5C3C2A",
",  c #563A2A",
"<  c #5D3F30",
"1  c #633621",
"2  c #6B3723",
"3  c #633C24",
"4  c #6B3D24",
"5  c #633E29",
"6  c #6B3E29",
"7  c #733E23",
"8  c #783F28",
"9  c #643F30",
"0  c #5E402C",
"q  c #57402A",
"w  c #5D4231",
"e  c #574032",
"r  c #664127",
"t  c #6C4126",
"y  c #65422B",
"u  c #6B442B",
"i  c #6E492D",
"p  c #744225",
"a  c #7C4425",
"s  c #7D4A25",
"d  c #73442B",
"f  c #7B452A",
"g  c #744A2D",
"h  c #7C4A2D",
"j  c #76502F",
"k  c #7D502F",
"l  c #644431",
"z  c #6B4631",
"x  c #6D4A33",
"c  c #684B38",
"v  c #7B4631",
"b  c #734C33",
"n  c #7B4C32",
"m  c #734E39",
"M  c #7A4E39",
"N  c #724730",
"B  c #6F513D",
"V  c #755236",
"C  c #7B5235",
"Z  c #75523B",
"A  c #7B543C",
"S  c #745341",
"D  c #7D5441",
"F  c #7C5844",
"G  c #834425",
"H  c #894425",
"J  c #834A25",
"K  c #8A4C26",
"L  c #844629",
"P  c #834B2C",
"I  c #8B4D2C",
"U  c #8C4628",
"Y  c #934626",
"T  c #944A26",
"R  c #9C4E27",
"E  c #904529",
"W  c #944D2D",
"Q  c #9A4E2B",
"!  c #984626",
"~  c #84512E",
"^  c #8C522D",
"/  c #8A5125",
"(  c #935326",
")  c #93532D",
"_  c #9C542D",
"`  c #95592E",
"'  c #9C5A2D",
"]  c #9B5625",
"[  c #834D33",
"{  c #8B4E33",
"}  c #824F39",
"|  c #824731",
" . c #934F33",
".. c #845234",
"X. c #8B5334",
"o. c #865836",
"O. c #8D5935",
"+. c #83543C",
"@. c #8B543A",
"#. c #85593B",
"$. c #8C5A3B",
"%. c #945433",
"&. c #9B5533",
"*. c #945A34",
"=. c #9C5B34",
"-. c #92563A",
";. c #9B5639",
":. c #935B3A",
">. c #9C5C3A",
",. c #A04F2A",
"<. c #A3552C",
"1. c #A9572D",
"2. c #A45A2D",
"3. c #AB5D2E",
"4. c #A85825",
"5. c #B25E2E",
"6. c #A25631",
"7. c #A35C34",
"8. c #AA5D33",
"9. c #A35D3A",
"0. c #AA5F38",
"q. c #AA5731",
"w. c #B25E33",
"e. c #8D603E",
"r. c #9D6135",
"t. c #96623C",
"y. c #9D623B",
"u. c #9B683C",
"i. c #966335",
"p. c #A2602F",
"a. c #AC622E",
"s. c #B0602D",
"d. c #BB632F",
"f. c #BC6C2D",
"g. c #A46235",
"h. c #AB6335",
"j. c #A46836",
"k. c #AD6834",
"l. c #A4633B",
"z. c #AB643A",
"x. c #A5693E",
"c. c #AB693C",
"v. c #B36433",
"b. c #BA6634",
"n. c #B46A35",
"m. c #BB6B34",
"M. c #B3663A",
"N. c #B36B3C",
"B. c #BA6C3B",
"V. c #AF723F",
"C. c #BA7036",
"Z. c #B3713C",
"A. c #BC733D",
"S. c #B7773A",
"D. c #C26D36",
"F. c #C36E3B",
"G. c #C3723B",
"H. c #CB753A",
"J. c #C57A3B",
"K. c #825441",
"L. c #825C43",
"P. c #8B5D43",
"I. c #855D4A",
"U. c #935E43",
"Y. c #9B5D41",
"T. c #A05D41",
"R. c #8C6244",
"E. c #8F644C",
"W. c #8C6A4D",
"Q. c #836042",
"!. c #956344",
"~. c #9C6443",
"^. c #9D6A44",
"/. c #946A4B",
"(. c #9D6B4A",
"). c #966549",
"_. c #9E704A",
"`. c #9C7354",
"'. c #A36542",
"]. c #AC6641",
"[. c #A56B43",
"{. c #AB6B43",
"}. c #A46B4B",
"|. c #AC6D4A",
" X c #B36E42",
".X c #B26E4A",
"XX c #BB6F41",
"oX c #AD7145",
"OX c #A5714A",
"+X c #AC744C",
"@X c #AD7A4F",
"#X c #B47343",
"$X c #BB7543",
"%X c #BD7A44",
"&X c #B3754B",
"*X c #BA744B",
"=X c #B5794B",
"-X c #BB7B4D",
";X c #A36E51",
":X c #AD7952",
">X c #A77555",
",X c #B27451",
"<X c #B47B54",
"1X c #BA7E56",
"2X c #A57E60",
"3X c #C27642",
"4X c #C47B44",
"5X c #C27C4A",
"6X c #CC843A",
"7X c #BC834D",
"8X c #B98255",
"9X c #B5835C",
"0X c #B78057",
"qX c #B98861",
"wX c #AA8263",
"eX c #CC844B",
"rX c #C98447",
"tX c #C38252",
"yX c #C58958",
"uX c #CD9356",
"iX c #D3965A",
"pX c #D2894E",
"aX c #C28B64",
"sX c #C48D68",
"dX c #C7916A",
"fX c #D09E73",
/* pixels */
"X.n.3.R R <.8.g.*.8.<.W T E q.y.X.;.[ z n n X...N.M.=.%.%.=.z.X.v.0.>.-.>.z.l.=.D.&.&.&.6.B.>.P.:.n } } { l...;.%.} @.{ >.X.n z.",
"~ n.s.4.2.] 1.h.g.8.R R ! E 1.l.=.7.*.n v ;.>.#.N.l.9.%.X.7.N.*.h.0.l.-.$.l.>.g.v.&.&. .W v.i.E.Y.} } X.&.M.@.=.=.=.h.=.9.%...g.",
"P B.m.8.0.q.v.z.=.B.1.Q Q R w.9.%.M.0.X.X.>.z.X.N.0.9.;.&.8.8.*.G.0.9.>.=.].>.r.M.&.7.6.6.v.*.K.Y.@.-.;.6.N.:.9.9.9.h.9.9.=...h.",
"u $ 1 + 1 4 t d M p p 2 3 4 6 z y 1 5 ; ; 5 : y u : : 3 t p 3 z d t 5 : - 1 y i 4 5 3 4 4 4 b l y 5 5 u u d 5 3 5 3 y 5 5 y 0 3 ",
"W L I f h ' a P @.{ y.o.e.OX^.[.^.OX!.l @.-.X.:...n n h l.=...@.[ >...O.l.X.@.{ %.l.n @.;.%.$.@.*.X.b { [ n ..b v u c S x z b } ",
"8.2.1.W *.v._ =.) >.N.y.|.tX=X7X7XyXuX+.>.l.z.'.>.9.-.:.b.M.>.>.=.0.>.x.N.>.y.y.l.N.O.&.g.z.7.6.M.g...&.&.=.%.X.>.} A +.M [ { X.",
"v.3.3.W X.v.7.l.>.=.N.y.y.eXtXuXiXuXuX+.>.].].].l.9.>.:.F.M.9.9.0.B.x.x.N.l.x.y.z.XXX.z.N.z.g.h.M.k.X.6.0.0.9.>.z.n Z +.M @.X.%.",
"4 $ # + : 1 - 3 1 1 6 u 1 t u d g j C l 5 6 u y 5 3 5 i u d 4 3 5 t i N u 3 5 u 1 6 i f a p 6 t d t y 4 p t t t 6 5 > : , : : 3 ",
"+ P I -.*.I *.h 1 P 2 v 8 6 v h g X.[ U.[ h P 5 M } } n N z l y P h [ [ [ *.h f %.[ n h P ) 4 P P p n [ P J 3 P P g i t g u : d ",
"a 8.b.m.m.D.D.z.I w.E H U W _ %.=.B.h.9.9.9.z.[ X.@.+.} +.K.S ..n.8.&.&.&.v.j.g.3Xh.%.=.l.M.~ 7.=.X.X.&.2.<.P 6.v.| d g P v [ 6.",
"a w.D.G.b.D.H.h.I w.! Q  .Q 6.%.=.G.N.N.z.h.M.P -.@.+.+.K.D S [ m.6.&.&.&.6.=.*.M.%.%.%.=.B.P 7.=.%.%.&._ _ P 8.h.| g d P { X.7.",
": p p p a 7 a p : 8 1 # 1 1 1 y u p 4 t t d h y u 5 5 > > y w u P p 6 4 3 6 t 3 1 : 5 1 4 d 3 4 6 1 1 4 4 6 3 4 u 3 - = 3 3 3 d ",
"..d p h = ....o.R...:.d z ).P.$.P.P...: p h n -...h g r ~ p d ..g ~ C u h d n } f I 3 e l , w , , , * u u u N t d : ; u r y u 4 ",
"k.k.n.4X#.&X X*X*X&X*X!.I 8.W W Q 7.w.a &.q.q.q.h.h.=.X.v.W I ) ) g.x.=.XX|.[.'.7.b.@.F L.A b Z A m z >.>.-.9.N.c.X...:.X...I P ",
"a.h.a.%X#.-X*X-X-X&X*X).I w.6.Q <.v.m.a 6.v.8.M.B.B.9.P v._ W &.&.$Xl.c.B.{.|.z.g.b.%.I.E.D A M D D x '.9.9.9. XN.-.e.u.:...%.I ",
"P s a o.x $.o.o.$...} y # p 4 4 4 7 a - 6 7 4 p d f t 3 p 6 2 6 p ^ k O.^ f d 7 f ) d > w 0 > , > < , u d 6 g f ..d u i i i t d ",
"  t a 7 [ 2 % K + 6 n o.$.h k g = d 6 6 6 7 a # 3 f p h 7 6 h 3 h ~ $.O.h ~ f : p 2 8 6 t p 3 u ..h @.p g d O 3 6 d u 1 d p = p ",
"6 c.D.2.g.8.w.H.) M.$X$X3X4XeX5XP h.q.;._ 6.D._ >.G.8.7.8.8.F.*.n.v.q.h.v.m.m.I 8.<.&.%.>.0.` ~..X&._ 0.g.h.P g.&.%.;.;.=.9.[ &.",
"g h.D.h.h.6.2.H.>. X3XA.3X4X4X#X..z.&.%.%.&.B.9.>.H.q.q.h.v.d.) n.8.R _ _ 8.m.^ s.<.=.1.<.3.' :. X0.8.m.5XN.h g.9.%.%.%.0.h.[ &.",
"3 a K a & a p J i #.X.O.*.X.X...i [ p p u 6 h z t [ f f P ^ ' h ^ I p a a K ) t K a a a a G h g ..} X.I X.X.5 P X.P P f I X.d P ",
"P P 7 4   4 4 d n d d u   u z z A z V > : n g v h g g ; 6 u N C 5 6 2 = x b C R.M m , 3 p $ g p 1 4 O 1 p 6 d u d 4 ; 5 , , z 5 ",
"v.5.d.d.p z.B.B.B.B.B.h.v ,X|.|.}.}.}.P.X.].].z.N.XX$X..0.q.&.Q W &.Q n }.,X&X&X&X,XA I <._ W W ) 8.J l.v.1._ g.7.&.u ....C n N ",
"b.5.m.b.a N.B.M.v.M.B.N.v |.|.}.'.}.}./.X.0.z. XB.4X4XX.0.0.7.q.7.7.&.v 9.]..X].&X&X+.( <.&.&.7._ n.K z.d.4.T 1.7.%.i ....n v n ",
"J J I K + ~ K I I P X.h : n n n n N M x 1 h n [ X.*.i.u L ^ I I I P f u @.......R.!.u p a 7 7 a a ) 4 p P a a L I p r n g t d u ",
"e ; c B L.Z S B = m m A W.A m z : g n ..$.g g = o - - 5 3 - O . 3 3 y M 1 u 3 o d i C t 5 u O - d u M u $ 4 o - : : u 5 u 6 ; c ",
"`.;XsXaXdXsXyXyX#.#X5XtX<X'.!.R.~ 4X$X%XtX%X4Xi.( 8.6.6.&.&.<.4 &.>.l.=.=.0.) a B.h.q.h.g.0.I P &.&.7.&.2.v.p ) ;.[ [ X.%.^ b W.",
"`.>XfXaXdXsXaXaXP.&X5X=X+X~.U.e...rXA.N.%XyXeXu.' 5.0.z.9.6.4.7 ;.9.=.=.>.=.^ a v.v.7.7.7.8.I I 7.&.6.7.3.3.f X.%.....X.%.{ b E.",
"L.L.(.!.>X>XwX2XV t.[.^.!.+.C l t r.r.` ^ :.u.C a L h X.h P L 1 ..P P [ | [ f $ I P ^ ^ P I 4 g X.P P P a I 3 f h h P h U a y A ",
"A m u m o u t t i u u : : g t g C g k y u g g #.o.g b = u d g b u r 3 = 3 : 3 u - 3   O 3 : 3 3 + 4 X 4 4 : l : 3 3 - u 4 u g u ",
"0X<XoX{.#.N.$X*X$X$X4Xx.O.4X4XeXrX3XA.t.x.B.N.B.m.G.A.h 9.g.h.h.g.z.=.X.#Xl.=.%.l.N.I %.h.7.7.6.0.M.P m.3. .[ { _ _ P =.%.&.9.0.",
"&X|.-X=Xo.%XZ.$X%X$X4XZ.X.pXrX6XJ.v.h.^ l.B.k.v.v.m.A.~ 9.9.g.g.7.g.=.X.N.7.>.=.g.N.^ %.v.0.6.h.q._ X.m.3.*.X.) _ ' I 6.7.g.h.n.",
":.o.$.$.u *.u.x.x.x.j.*.g ` r.j.g.' =.s ..~.:.*.K =.x.N ) ^ ) ' ` >.$.g *.~ P L P ) f p I I ^ ( ( I h ` K P h h I ^ d I I ^ ) ) ",
"> 3 y y 5 y m B c A y i n # 4 1 r g d g 3 1 5 o @ 3 1 i : 1 - = 3 4 g n t g 3 q c y x r : : . * : y z 5 y > = t 3 u y - 4 + * , ",
"/.+X&XoXc.&X0X:XE.oX{.&Xx.N.m.) *.m.a.N.N.h.}.#.C.0.&.9.=.7.>...%X$XN.c.l.9.X.`.9X;X!.[.&X'.u t.'.[.:.~.|.P.[ m.h.=.0.8.v.) P.!.",
"/.^.+X[.l.[.@X(.$.g.z.g.=.N.v.) ` G.m.n.h.6.}.L._ 9.=.x.z.g.g.:.%X XN. Xl.9.X.W.OX;X~.{.&X'.z ~.}.'.:.~.|.U.X.m.m.v.=.k.v.%.P.).",
"C $.^.^.(.t._.).C t.t.y.%.*.&.f h l.' p.` I $.z %.$.:.y.>.l.r...{.=.*.:.@.^ d b #.@.-.:.y.-.r ..*.-.@.@.:.A n g.2.=.) _ _ P n @.",
"i t y : O 3 3 u g t g O : g g g j t V ; - 3 : u t y : = g d g A g n u r g u u u : 5 = : 3 : > : r 3 = g t z m t g t y g y N N y ",
"k.a.v.' s m.2._ ) g.N.~ :.$XZ.N.#X&X1Xo.Z.H.v.&.g.n.p.^ 3X4XN.%X#X X*.@..X}.'.|.|.~.b c.l.&.%.&.7.c.P A.%X#Xx.x.B.) *.B.0.l.y.9.",
"4.4.4.] J f._ _ ' 2.N...O.c.j.z.-X=X%X$.n.v.a.&.h.v.n.^ 3XA.A.5X5X X*.} ~.'.'.}.}.!.b n.=.=.&.&.6.l.P N.Z.#X#XN.h.) *.N.h.z.9.0.",
"] ( ' / % 2.] I ` r.r.h g =.*.=.y.u.[.C l.z.2.=.*.k.j.h y.x.l.l.=.>...M U.U.^.(.(.E.y *.X.%.-.;.l.t.g x.x.[.y.) ) p X.{.c.l.*.%.",
"O - : 4 i 4 # + o i t b x > ;   = - > u t 3 t O y u u x r y 3 - u y y l y z > = 0 > z y r y * : 3 5 y = : = = 5 > l l : - = - : ",
"/ _ 1.W =.h.v.2.p n.N.4X%Xx.{.#...{.{.c.h.9.M.d }.&Xc.S.A.C.7.O.J.g.g.=.g.rXt.P g.9. X#X#X[.g k.6. .W ) 1.%.^ n.l.$.'.g.k.L =.N.",
"/ a.h.=.%.7.m.h.a 3.8.v.N.g.c.:.P g.k.6.6.=.0.g oXZ.Z.%XA.C.g.u.J.( =.=.=.Z.t.L 2.&.j.c.x.oXo.N.6.&.) _ 1.&.I 6.l.@.z.v.m.^ 7.n.",
"a ' =.P %.>.h.>.p _ ( h.c.l.g.h d =.' _ =.%.=.g t.r.g.Z.c.N.r.o.Z.*.y.*.*.oX!.O.9.) =.y.oX*.g j.%.X.%._ _ ^ h >.=.-.l.h.b.P r.k.",
", 1 @ - o 1 3 5 u 1 1 O ; z y : > l z > : > 3 u y r y o 5 y u y 3 r ; : y u m M z y - y V A V x x y ; u z l y 3 : = - 1 1 u r : ",
"L U Y R a v.Q W R 1.v.( C [.^.i.:.:XqXQ.^.[.>.l.Z.S.S.d >.l.&X#Xz.{.#.` N.|.|.'.{.#XC >.<X0X+X+X[.^.#.OX+Xi.>.=.l.N ^ 7.I 9.9.W ",
"L L G ] I B._ W R 3.v.( N t.~.*.y.[.=XR.t.=.g. X#XS.S.g l.].*X-X*X1XE.g.3X-X&X=X8X-X#.) y.=X[.%.%.t...[.~.r.=.2.h.h ^ g.9.&.&.R ",
"G G G W p 0.9.) 6.6.7.P V ~.^.u.t.OX@XA h *.y.l.l.%XS.g '.[.oX#Xc.oX#.y.1X:X9X<XqX9X+.I [.0XOXi.%.-.h *.~.*.` ' 7.v I 7.{ &.&.W ",
"O = : : y : - 3 O 1 1 - r y y r = 5 u z i i u : 5 z m V y u u O r t z i i N y > u N V C C g : u u i u u i 3 O 3 3 u d 6 5 - : 4 ",
"a P 7.=.=.0.9.0.p h.h.2.2.g.7._ z 9.8.$X$Xz.5X*.r. X>.}.x.A.A.a A.c.g.-.=.N.j.^ G.z.l.N.A.v.P h.9.>.-.%.c.N.p 0.=.9.l.;.&.L J %.",
"K G 3._ 6.0.' q.f =.g.3.8.g.8.' n ].<.9.c.g. X%.7.c.&.x.oXm.B.K v.g.%.X.%.c.Z.U G.z.9.h.h.n.L k. XX.@.%. XS.f >.%.~.[.&.;.P G %.",
"a G <.R 2.7.) %.d @.=._ &.) =.^ i =.R U W =.6.P l.j.%.x.[.c.g.f h.%.[ [ [ g.x.L h.g.9._ 2.8.a =.;.%.%.=.z.g.d -.X.~.'.=.Y...K 2.",
"5 1 1 1 + 1 - : y 1 6 : O 4 3 y y t 4 O + 1 6 u u u 4 - d i u u g g 3 - u g m z g u O : 1 : y 3 1 -   : : 3 > : ; ; : 5 > 0 i 4 ",
">.l.h. Xf H a L W H 2.) f n.7.g.>.z.q.a 2.T E _ W W 2.P 7.>.9.z.$XpXu.%.B.N.N.l.M.z.h &.W W &.9.&.^ f 7.&.{ { 9.9.h v -.>.9.}.].",
"%.>.N.z.~ I G 8 U H Y ' I 8.) ) =.g._ P 2.4.,.U L T R P &.X.%.9.-XiXj.;.].9.l.9.>.>.^ 3._ I W ) &.=.[ z.9.;.;.'.,X$.f { { >.|.l.",
"y.>.x.y.d X.v a U 8 H ^ a ) | %.z.&._ h ) T _ I { h H f %.-.X.>.{.%Xi.X.'.'.[.x.$.-.P 7.%.W %.%.%.:.h ;. .%.%.-.'.#.P -.%.|.,X~.",
"= - 3 5 i 3 3 t O > 5 l y : : : O = O z N 3 5 ; > 9 l x u 6 6 = u u m V m i i i y 5 c 5 5 u > y y x m i z u : u z x z r y y y u ",
"g *.6.W q.&.g.C.a ].].9.9.9.z.%.s _ %.=.) _ &.h @.T.Y.%. .&.7.a v.=.-.x.[.=.L ^ A.].x.*.*.z...U.9.'..X|.|.U...#X[.~.{.].l.n L R ",
"..=.7.W 0._ h.J.K h.z.l.l.g.N.^ s g.=.&.) ) 9.[  .9.Y.%.{ >.;.J n.9.%.%.>.=.I ) 8.g.&.*.%.=...U.~.l.9.&.].(.[ N.c.>.l.c.z.[ ) _ ",
"n ) 2.W _ W W ' p '.}.*.=.>.x.*.s z.*.X.X.p I g X.-.:.| | -.[ s h.>.>.>.y.*.P ;.q.&.%.%.*.*.v U.~.>.9.;.t.;Xn z.l.l.}.l.l.v ( 2.",
"x C t 3 O + - = > : 3 : = 4 3 u N t u : = 5 5 l y i u : u 5 > y u g 3 5 g t C A g b 5 u t 5 x z i i ; u 5 y i u u u 3 i u m b p ",
"c.{.=.j.f ( ( j.z.g.9.[ h B.0.M.8._ h.J %.>.-.-.U.'.N.~ g.:.@.[ U 3.g.h >.r.h.N.#Xx.C =.&.%.@.X.7.n.d { 7.9.'.y.x.$.C {.'.|.[.|.",
"*.c.l.z.J 2.7.=.g.z.9.@.X.M.9.6.z.9.2.^ ) %.@.X.@.l.n.@.;.X...} n ( r.X.l.y.h.z.l.l.L.P [ n ..X.P ' h X.&.&.'.'.OX).:.z.-.~.'.l.",
"'.r.=.c.P ' 2.) &.I { } X.h.9.=.=.2.3.^ *.-.-.@.>.l.h...*.:.@.} P W r.@.z.'.z.j.g.l.A ..[ f ..[ X.=.n X.=.0.z.x.+X!.X.l.>.t.y.;."
};
