/* XPM */
static char *_70a955fb12740f0a972d0a82d34eda58vkKKcSsadH9Aeck[] = {
/* columns rows colors chars-per-pixel */
"64 64 149 2 ",
"   c #A2A19E",
".  c #A5A5A2",
"X  c #A8A7A5",
"o  c #A9A9A6",
"O  c #ADACAA",
"+  c #B0AFAD",
"@  c #B1B1AE",
"#  c #B5B4B2",
"$  c #B8B7B5",
"%  c #B9B9B7",
"&  c #BDBCBB",
"*  c #C0BFBD",
"=  c #C1C0BF",
"-  c #C5C4C3",
";  c #C8C7C6",
":  c #C9C8C7",
">  c #CDCCCB",
",  c #D0CFCE",
"<  c #D1D0CF",
"1  c #D4D4D3",
"2  c #D8D7D6",
"3  c #D8D8D7",
"4  c #DEDDDC",
"5  c #DEDEDD",
"6  c #DFDEDD",
"7  c gray87",
"8  c #DFDEDE",
"9  c #DFDFDE",
"0  c #DFDFDF",
"q  c #DDDDDC",
"w  c #DBDBDA",
"e  c #E0DFDE",
"r  c #E0DFDF",
"t  c #E0E0DE",
"y  c #E0E0DF",
"u  c #E1E0DF",
"i  c #E0E0DF",
"p  c gray88",
"a  c #E1E0E0",
"s  c #E1E1E0",
"d  c #E1E1E1",
"f  c #E2E1E0",
"g  c #E2E1E1",
"h  c #E2E2E1",
"j  c #E3E2E1",
"k  c #E2E2E2",
"l  c #E3E2E2",
"z  c #E3E3E2",
"x  c gray89",
"c  c #E4E3E2",
"v  c #E4E3E3",
"b  c #E4E4E3",
"n  c #E4E4E4",
"m  c #E5E4E4",
"M  c #E5E5E4",
"N  c gray90",
"B  c #E6E5E4",
"V  c #E6E5E5",
"C  c #E6E6E5",
"Z  c #E6E6E6",
"A  c #E7E6E6",
"S  c #E7E7E6",
"D  c #E7E7E7",
"F  c #E4E4E4",
"G  c #E8E7E7",
"H  c #E8E7E7",
"J  c #E8E8E7",
"K  c #E8E8E7",
"L  c #E7E7E8",
"P  c #E7E8E8",
"I  c gray91",
"U  c #E9E8E8",
"Y  c #E9E9E8",
"T  c #E9E9E9",
"R  c #EAE9E9",
"E  c #EAEAE9",
"W  c #EAEAEA",
"Q  c #EBEAEA",
"!  c #EBEBEA",
"~  c gray92",
"^  c #ECEBEB",
"/  c #ECECEB",
"(  c #ECECEC",
")  c #EDECEC",
"_  c #EDEDEC",
"`  c #ECECED",
"'  c gray93",
"]  c #EEEDED",
"[  c #EEEEED",
"{  c #EDEEEE",
"}  c #EEEEEE",
"|  c #EFEEEE",
" . c #EFEFEE",
".. c #EEEFEF",
"X. c #EFEFEF",
"o. c #ECECEC",
"O. c #F0EFEF",
"+. c #F0F0EF",
"@. c #EFEFF0",
"#. c #EFEFF0",
"$. c gray94",
"%. c #F1F0F0",
"&. c #F1F1F0",
"*. c #F0F0F1",
"=. c #F1F1F1",
"-. c #F2F1F1",
";. c #F2F2F1",
":. c #F1F1F2",
">. c gray95",
",. c #F3F2F2",
"<. c #F3F3F2",
"1. c #F2F2F3",
"2. c #F2F3F3",
"3. c #F3F3F3",
"4. c #F4F3F3",
"5. c #F4F4F3",
"6. c #F3F3F4",
"7. c #F3F4F4",
"8. c #F4F4F4",
"9. c #F5F5F4",
"0. c #F4F4F5",
"q. c #F4F5F5",
"w. c gray96",
"e. c #F6F6F5",
"r. c #F5F5F6",
"t. c #F5F6F6",
"y. c #F6F6F6",
"u. c #F7F6F6",
"i. c #F7F7F6",
"p. c #F6F6F7",
"a. c #F6F7F7",
"s. c gray97",
"d. c #F3F3F3",
"f. c #F8F8F7",
"g. c #F7F7F8",
"h. c #F7F7F8",
"j. c #F7F8F8",
"k. c #F8F8F8",
"l. c #F8F8F9",
"z. c #F8F9F9",
"x. c #F9F9F9",
"c. c #F9F9FA",
"v. c #F9FAFA",
"b. c gray98",
"n. c #FAFAFB",
"m. c #FAFBFB",
"M. c #FBFBFB",
"N. c gray99",
"B. c #F8F8F8",
/* pixels */
">.w.) W k.w.>.J w.>.>.S k.w.w.) w.w.w.S k.k.k./ w.k.k.W w.k.k.) w.k.N.) w.k.k. .w.k.k.) w.k.k.) w.k.M.>.w.k.k.) >.k.k.) ) w.w.>.",
"w.k.>.) k.k.w.W w.w.>.S k.k.w.) k.k.w.W k.k.k.W w.k.k.W w.k.k.) w.k.k.) w.k.k.) w.k.k.) w.k.k.+.w.k.k.>.w.k.k.) >.k.k.W W k.w.>.",
"v S y 9 ) ) W y W ) W g >.>.>.G w.w.w.S w.w.k.W w.k.k.J w.k.k./ w.k.k.) w.N.N.) w.k.k.) w.k.k.O.w.k.k.>.w.k.k.) >.k.k.W W w.>.) ",
"1 < 2 2 3 w w 2 1 1 < < 2 1 w w g 2 y w w w 9 9 q 3 w 1 3 3 9 w q 9 9 w e w g g g 9 q 3 w g b y y g y g g 9 y 9 e w 9 3 1 1 1 < ",
") W j.w.+.) k.k.w.W w.w.>.S k.w.w.W w.k.k.W w.w.w.J w.w.w.W w.w.k.G >.w.w.W 5.k.k.W ) w.>./ 4.w.w.) >.w.k.) ) w.>.W >.w.k.W ) k.",
") W w.w.+.W k.w.w.W w.w.>.S k.w.k.W w.w.k.W w.w.k.W k.k.k.) w.k.k.W w.w.k.) w.k.k.) w.k.k.) w.k.k.) w.k.k.) ) w.w./ >.k.k.) ) k.",
"9 9 W W S b >.>.) g ) ) W 9 w.w.5.b 5.w.w.S >.>.5.S w.w.k.W w.k.k.W >.w.j.W w.k.k.W >.k.k.W >.k.k.) >.w.k.W W >.>.W >.w.w.S J >.",
"3 3 1 1 2 w w w q 2 1 , , > 2 1 3 2 w 2 9 w 9 w 2 1 9 w 9 w 9 9 e w 9 q g 9 g g g 9 y g b g v g 9 9 y w 9 9 9 q q w w 3 1 > > , ",
"w.k.) S w.w.+.S k.w.w.W k.w.w.W w.w.w.W w.w.k.W w.w.w.J w.w.w.W w.k.k.) w.k.k.) ) >.w.W >.w.w.) >.w.w.>.w.k.k.) >.w.w.S W w.w.O.",
"w.w.) S w.w.) S k.w.w.W k.w.w.W g.w.w.J k.w.k.W w.g.k.W w.k.k.^ w.k.k.) w.k.k.) >.w.w.W w.k.k.>.w.k.k.>.w.k.k.) >.w.k.W ) k.k.>.",
"G W g w W / S 9 ) ) ) S w.>.>.S >.>.>.S w.w.4.S w.w.w.S w.w.k.W >.w.w.W w.w.k.J W >.w.S >.w.k./ >.w.k.) >.w.w.W ) >.w.S W w.w.W ",
"1 < 2 1 1 , 1 1 3 1 9 q 9 w y 9 y w q q g w q q e w 9 3 q w 9 3 3 w 9 q g 9 y w 9 w y 9 g e 9 q 9 w g g g q w w w w w 1 2 3 w 9 ",
") S w.w.>.S w.w.>.S w.>.>.S w.w.g.W w.w.k.W w.w.j.W >.w.w.W w.f.k./ w.k.k./ >.w.k.W >.w.k./ >.w.w.^ >.k.k.) >.j.k.W >.k.k.) >.k.",
") S w.w.>.S w.w.>.S w.7.>.S w.w.w.W w.w.k.G w.w.k.W w.w.w.^ w.k.k./ w.k.k.^ >.k.k.W >.k.k.) >.w.w.) w.k.k.+.>.w.k.W O.k.k.) >.k.",
"w 1 g g 9 2 S W S 2 W W W 9 ) ) ) g ) >.>.g ) >.>.v ) ) ) g +.5.w.S +.>.w.S W >.w.S ) w.w.S ) >.>.S ) w.w.W ) w.w.b W >.>.J W ) ",
"3 w 1 > 2 2 2 1 w 2 2 1 w w 9 2 q 9 9 2 e y y 2 3 3 3 2 w 3 9 2 3 q 9 3 9 9 y q y y g 9 9 9 g w 9 9 y w 9 q 9 9 9 w y 3 2 1 2 > ",
"w.w.>.S k.w.w.S w.w.>.S w.w.w.S w.w.w.W w.w.k.b >.w.w.W k.k.k.W w.k.k.) w.k.k.W >.w.k.W w.k.k.W w.k.k.W >.w.w.W >.w.k.S >.w.k.W ",
"w.w.>.b k.w.w.v w.w.>.S w.w.w.S w.w.w.S j.k.k.S >.w.w.J k.k.k.J w.k.k.W w.k.k.W w.k.g.W w.k.k.) w.k.k.J >.g.k.W >.k.k.S >.k.k.W ",
"9 9 3 1 y 9 9 1 g y 9 2 b S S 3 S J W 2 J W ^ w S J S w W ) / e ) O.>.g W ) +.g S ) ) v W ) +.S ^ ) >.g S ) ) g G / W 2 e W W 2 ",
"3 - 1 w 2 < w w w > 2 w w < q w 9 < w 1 w 1 9 y w 1 w w w 1 3 2 q 2 w q q 2 y v e 3 y g g 9 g g g w g g g w 9 y q 3 w w w 1 1 2 ",
") q ) >.) S k.w.w.b w.w.w.S w.w.w.S >.w.w.S w.w.k.W w.w.k.W w.w.w.J >.w.w.W w.k.k.^ w.w.k.) >.w.w.W w.w.k.W >.w.k.W >.k.k.W >.k.",
">.9 >.>.) b k.w.w.S w.w.w.S w.w.w.S >.w.w.S w.w.g.S >.w.g.W >.w.k.J >.w.g.G w.k.k.W >.w.k./ >.g.w.W w.j.k./ >.w.w.S >.k.k.S >.k.",
"> = > 1 1 > 9 9 9 1 9 9 9 1 q y g 2 y g S w g S S w 9 g g 3 g S S q g S S w g g b q g S S w 9 S G w 9 S S y v S g 3 w g g 3 q g ",
"1 w 2 1 9 9 9 > 2 3 2 > w w 3 1 w 9 q 1 w 9 w 1 9 g q : 2 3 w 1 w g g 2 9 g y 2 3 g y 2 w 9 9 q v v e w 9 S 3 3 q g w 1 w g v 1 ",
"w.w.>.g k.w.w.3 ) >.>.g w.w.k.W >.w.k.W >.w.w.W >.g.k.W >.w.g.) w.k.k.) w.k.k.) >.w.w.W w.k.k.W w.k.k.) >.w.w.) ) >.w.S >.w.k.g ",
"w.w.>.g k.w.w.w ) ) >.9 w.w.j.S >.w.w.S >.w.w.S >.k.k.) >.w.w.W >.k.k.W w.k.k.W >.w.k.W >.w.k.W >.k.k.W >.k.k.W ) >.w.b >.k.k.S ",
", 1 < ; 1 1 2 : 1 2 2 - w 9 9 2 q 9 g 3 9 g g 2 9 g g 2 9 g g 3 q g g 2 q g g 2 w y g 2 q S S q g b S w w 9 e w 2 w 3 > 2 9 w < ",
"9 2 g g g 1 9 y 9 < 9 w 9 1 9 g g 1 g S b 2 1 3 g 1 9 9 g 1 w 9 9 2 w 9 9 1 9 g g 2 y g g 9 g S W q v S g w g S S 3 q 9 g 2 w g ",
") S w.>.>.9 >.>.>.w w.>.w.g >.w.w.g >.w.w.b g W >.g >.w.w.b >.w.k.S >.w.k.y >.w.w.S >.w.k.S >.w.w.b ) w.w.S >.w.k.S >.w.k.g ) k.",
") g w.w.>.9 w.>.>.q w.w.w.S w.w.w.e >.w.k.S W ) >.g w.w.k.S >.g.k.W >.w.k.y >.j.k.W >.w.k.S >.g.k.S >.k.k.S >.w.k.W >.g.k.S ) k.",
"> - > : > ; > , 2 - 2 2 1 : 1 2 3 : 1 2 2 > : > 1 : 1 2 2 ; 1 1 1 > q 9 w > 1 1 1 , w 3 3 1 2 3 3 > < , > - 1 9 9 1 2 1 < - > 1 ",
"w 9 w > g b v 1 y 9 S 1 w 9 b 1 q y g 2 9 g g 1 w y g 2 3 9 g > > w y 1 2 g S 1 2 S S 3 w S S w 9 S S 1 1 9 g w e S S < 1 9 S 2 ",
"W W W w w.>.>.y >.w.w.9 >.w.w.w ) w.w.e ) w.w.g W >.w.S ) w.w.S W >.>.w W k.k.S W w.w.S W w.w.S ) w.k.J ) w.w.S ) w.k.9 G w.k.g ",
") ) W 3 w.w.w.9 w.w.w.q >.w.k.e ) w.k.9 ) w.k.g W w.w.v ) w.w.S W >.6.q W k.k.S ) k.k.S ) k.k.J ) k.k.J ) w.k.S ) w.k.g G w.k.9 ",
"- - - & : : > - > , < = : ; : - : > : - > > > - > > > = > 1 3 : - 1 1 - > 1 < - - > > : > > , : > > > - : : - = < 1 1 * - - : & ",
"w > g g g , S g g 1 g g g : 3 9 9 > e S J 2 9 g S < 9 v S 1 y g e 1 w y v 1 w 9 g 1 9 S S 1 e S S < 9 S S > w g W 1 9 g W 1 g W ",
") q w.>.) w >.>.>.9 >.>.>.2 ) >.>.w >.w.w.y >.w.w.9 >.w.w.9 ) >.>.w ) >.w.9 ) w.w.y ) w.w.g ) >.w.q ) w.w.9 ) w.w.9 ) w.w.w ) w.",
") 9 w.>.>.w >.>.w.9 >.>.w.3 ) >.>.w >.w.w.9 ) w.w.9 >.w.w.w ) >.>.2 ) w.w.g ) w.w.q ) w.w.g ) >.w.w ) >.>.g ) >.w.q ) >.w.w W w.",
"> - : - - & > : - & : - = % & - = & ; : : & - - - & - - - * - - - & - - * * = & - & = ; : - - ; - & & & % $ & & - : : - = $ - - ",
"b S g > J S S 1 g b S : 9 S S < g W W 2 g W W 2 y W W 2 9 W W 2 y S W 1 w g g - 9 S S 2 S ^ ) 2 S ) ) 2 w g S 2 S ) ) < g ) >.1 ",
") ) W 1 >.>.>.w >.>.>.1 ) >.w.w ) w.w.e ) w.w.9 W >.6.y ) >.7.9 ) 6.w.9 W ) ) 1 W >.>.g ) >.w.q W >.w.q S W >.9 ) >.w.w W w.w.q ",
") >.W 1 >.>.>.w >.>.>., ) >.w.2 ) >.w.w W >.w.9 W >.>.9 W >.>.9 W 6.w.9 W ) L > S ) ) 9 / >.>.2 W O.>.3 g W ) 1 S ) >.2 S ) >.2 ",
"& $ = & - - - % & $ - $ & % & & $ & = % & * = & - & - * & = * & - * & & = & & $ & & % = - - - - ; - & & & & = & : - - % & $ % & ",
"g > W W W > S S S > W W W < S W W 1 S W W 1 S W ) > g S W > g W ) 1 g ) ) 1 g ) ) 2 S ) ) w S >.>.q W ) >.w S ) @.2 S ) >.1 9 W ",
"W 2 >.) ) 1 ) ) >.2 @.>.>.w ) @.>.w ) ) >.w ) >.>.2 W ) ) 1 W >.>.w W w.w.q W w.w.q W >.w.9 ) w.w.9 ) >.w.9 W >.>.w ) >.w.w g ) ",
"W 1 ) ) / > W W W < W / / 2 W ) ) 1 S W W 1 W ) ) > g S S : g W ) 1 S ) ) 2 b ) ) 2 g ) ) 1 g W W 1 9 S S < q g S > g S S > 2 g ",
"# @ $ # & # & @ & % - & & & & & & # $ # % & - = - & % $ % & - % = * = & & & = = - - : = - = - & & & & @ $ % & # % % * @ % % & # ",
"S W S ; g S W > ) ) >.1 W ) W 1 S ) ) 1 W >.>.2 J >.>.w W >.>.1 S >.>.2 S >.>.w W >.>.3 W >.w.w W >.w.1 ) 7.w.3 W w.w.2 S >.w.3 ",
") ) ) > S W o.< ) >.>.3 ) ) >.1 W >.w.2 W >.>.w W >.>.3 W >.w.3 W >.w.9 W >.w.w W >.w.9 ) >.w.q W >.w.3 ) >.w.w ) w.w.w W >.w.2 ",
"J J S - 9 g g - S W W > 9 S S - q S S : 9 G S > 9 S S : w g g : w g S > q S W > w g g : w g g > 2 w w = 1 w 9 = 1 9 9 - > w w & ",
"- & * # % # * & - * - & & # & & % @ & - - & = - : & - - - % & & * # & - : & & - - $ - - : & - : - % = - - # - - : % = - - # - ; ",
"W 2 ) ) W : W W ) 1 ) >.7.< ) >.>.1 W >.w.2 W >.w.2 W >.w.w S ) >.1 W >.w.1 g P ) 1 ) w.w.w ) w.w.q >.w.w.2 ) w.w.w ) w.w.2 ) w.",
") w >.) W > ) W ) 1 >.>.w.1 ) >.>.< ) >.w.3 W >.w.w W 6.w.w W >.>.< W >.w.2 g ) >.2 ) w.w.w ) w.w.9 ) 6.w.1 ) w.w.w ) >.w.1 ) w.",
"w : w 9 2 & w 3 2 & w q w & 1 2 1 # > 3 2 - > w 9 - > 2 1 & - : > $ > 2 w = = : 1 & > 2 1 & > 1 > & : > > @ : < > % : < , $ - > ",
"o o @ + & # & O % # * + @ % # . O O $ o O & % @ = - - # # & & O % - - % * - - $ & - - & = : > - : 1 1 = > < 2 - > 1 1 - > 1 1 * ",
"W ) W > >.>.>.> ) >.w.1 ) >.w.1 ) w.w.1 S >.w.2 S >.w.w W w.g.9 W w.k.2 S w.w.9 g W @.3 W w.w.w ) w.w.w ) w.w.2 ) w.w.2 W >.w.2 ",
") ) W > >.@.>., ) @.w.1 ) >.>.1 ) >.w.< S >.w.w W w.w.w W 7.w.w W w.g.2 S >.w.w 9 ) 6.3 W w.g.9 ) w.k.9 ) w.w.w >.w.k.2 ) >.w.1 ",
"9 9 2 = w w w & 1 1 1 & > 1 1 $ > 1 1 $ - < , % ; < < & : 1 1 & = > , # - 1 1 & $ = - + & - - # % & & O % & & O & & & o % * = O ",
"@ O # # $ O # # #   @ @ @ X $ # # . # & & o $ & = + % - : # & - - O & - - % - ; : $ - > < & : > > % : > 1 & 1 1 2 & , 3 1 & 1 3 ",
"9 > w.>.) w >.) / - ) ) ) > ) >.6., ) >.w.1 W >.>.2 W >.>.1 W 6.w.2 S >.>.1 S >.>.w ) >.w.1 ) >.w.1 ) >.>.1 ) >.w.1 ) >.w.1 ) >.",
"y > >.) ) w >.) ) - ) ) ) > ) ) >.> W >.w.1 S @.>.1 W >.w.1 W 6.w.2 S >.>.> S >.>.2 W >.w.1 ) 7.w.1 ) >.>.1 ) >.6.1 ) >.w.1 ) >.",
"> & 9 q 1 & : : : O : : = O - - : o & - - @ & - & o $ & & O * = - + % - - O $ & & O & % # o @ # @ . # # % O $ & % O & & - % ; - ",
"& & - # = $ #   % % & o @ & & X & * - O % > > # * > : $ - 1 3 & - > 1 = , 2 2 & 1 w 9 & : 3 w * < 9 g & 1 g g - 2 g g - > g g > ",
">.>.) > >.) ) : >.>.w.2 >.>.w.> W >.w.> W >.w.1 W >.w.1 S >.6.2 S @.>.1 P ) >.1 W ) >.> g ) >.2 W >.w.1 g ) >.1 S >.>.< b >.>.3 "
};
