/* XPM */
static char *result[] = {
/* columns rows colors chars-per-pixel */
"64 64 221 2 ",
"   c #CFA717",
".  c #D5A610",
"X  c #DBB81D",
"o  c #E2A21D",
"O  c #DEA420",
"+  c #DBBA27",
"@  c #DBBF34",
"#  c #E7BA27",
"$  c #E3BC2C",
"%  c #EABF3F",
"&  c #D6C537",
"*  c #D6C738",
"=  c #DCC43C",
"-  c #DCC93B",
";  c #D5CA35",
":  c #D7D137",
">  c #DBD23C",
",  c #ECC83E",
"<  c #ECCC37",
"1  c #E1BF4C",
"2  c #D6C641",
"3  c #D8C646",
"4  c #DECE43",
"5  c #D7C54A",
"6  c #DCC44A",
"7  c #DCCC4D",
"8  c #D5CB47",
"9  c #DBD64A",
"0  c #D4C157",
"q  c #DBC454",
"w  c #D4CF52",
"e  c #DCCB54",
"r  c #DDCB5C",
"t  c #DDD754",
"y  c #E1C340",
"u  c #EECE41",
"i  c #E1C44C",
"p  c #E2CD4C",
"a  c #EACB49",
"s  c #F0CC46",
"d  c #EED045",
"f  c #EED34C",
"g  c #E2DA4C",
"h  c #F1D648",
"j  c #E1C554",
"k  c #E3CC55",
"l  c #E9CC56",
"z  c #E3C75A",
"x  c #E3CB5B",
"c  c #EBCA5D",
"v  c #EAC154",
"b  c #E0D152",
"n  c #EBD450",
"m  c #E7D35D",
"M  c #EBD35D",
"N  c #F7D955",
"B  c #F5DC5C",
"V  c #F8DF5B",
"C  c #FADB53",
"Z  c #EDE854",
"A  c #F9E652",
"S  c #F5E955",
"D  c #F5E55E",
"F  c #FCE55E",
"G  c #F7E95D",
"H  c #FAE85C",
"J  c #F1E356",
"K  c #DBCB6B",
"L  c #DBCE62",
"P  c #DAD467",
"I  c #E7C766",
"U  c #EEC665",
"Y  c #E4CC65",
"T  c #EBCA63",
"R  c #E5CB6A",
"E  c #E9CB6A",
"W  c #E4D364",
"Q  c #EAD667",
"!  c #EDD56B",
"~  c #E5DA6E",
"^  c #EBD96B",
"/  c #E3D36A",
"(  c #FDDF66",
")  c #F4DE6D",
"_  c #FCDF6E",
"`  c #F3D566",
"'  c #E5CE70",
"]  c #E5D674",
"[  c #E9D674",
"{  c #E4DA76",
"}  c #ECDC75",
"|  c #E6D279",
" . c #ECD47B",
".. c #E4D878",
"X. c #EDDD7C",
"o. c #F3DD73",
"O. c #FADF76",
"+. c #F3D67A",
"@. c #F3DE7C",
"#. c #F8DE7B",
"$. c #ECE465",
"%. c #EAE866",
"&. c #E5E46D",
"*. c #EDE36C",
"=. c #E7EA6E",
"-. c #EDEA6A",
";. c #F4E464",
":. c #FDE466",
">. c #F7E864",
",. c #FAE863",
"<. c #F3E56C",
"1. c #FCE46A",
"2. c #F6E868",
"3. c #FEE86A",
"4. c #E5E574",
"5. c #EDE374",
"6. c #E5E877",
"7. c #EEEB75",
"8. c #E7E27C",
"9. c #ECE37C",
"0. c #ECEB7E",
"q. c #F3E374",
"w. c #FCE272",
"e. c #F5EB73",
"r. c #F3E37B",
"t. c #F9E27B",
"y. c #F2E97C",
"u. c #F9EC7A",
"i. c #EBDE82",
"p. c #EDDE8A",
"a. c #F4DE82",
"s. c #F9DD85",
"d. c #F6D68B",
"f. c #F9D89B",
"g. c #EDE483",
"h. c #E4ED80",
"j. c #ECE984",
"k. c #EDE48B",
"l. c #EEEB8B",
"z. c #F3E584",
"x. c #F8E481",
"c. c #F4EA84",
"v. c #FBEB85",
"b. c #F2E58A",
"n. c #F8E78B",
"m. c #F4EB8C",
"M. c #F9EC8B",
"N. c #FAF48D",
"B. c #EDE492",
"V. c #EBEB94",
"C. c #EDE699",
"Z. c #E5EE9D",
"A. c #EDEC9B",
"S. c #F3E693",
"D. c #FAE493",
"F. c #F4EC94",
"G. c #F9EC93",
"H. c #F5E599",
"J. c #FBE59B",
"K. c #F4EC9B",
"L. c #FAEC9C",
"P. c #EDF29B",
"I. c #F2F193",
"U. c #FAF296",
"Y. c #F6F19C",
"T. c #FBF19D",
"R. c #EBEAA4",
"E. c #EDE4A5",
"W. c #F3E6A2",
"Q. c #FAE5A2",
"!. c #F4ECA4",
"~. c #FBEEA3",
"^. c #F5E4A8",
"/. c #F5ECAB",
"(. c #F9EEAB",
"). c #EDF3A4",
"_. c #F6F2A5",
"`. c #FAF2A4",
"'. c #F1F9A6",
"]. c #FFFBA6",
"[. c #F5F2AC",
"{. c #FAF4AB",
"}. c #F6FBAD",
"|. c #FCF9AC",
" X c #ECEBB3",
".X c #F5E7B1",
"XX c #F3ECB2",
"oX c #FBEEB3",
"OX c #F4ECBB",
"+X c #FBEEBD",
"@X c #EFF8B6",
"#X c #ECF2B7",
"$X c #F4F3B4",
"%X c #FAF4B4",
"&X c #F5FDB4",
"*X c #FDFAB5",
"=X c #F6F5BC",
"-X c #FCF4BB",
";X c #F6FABB",
":X c #FEFABB",
">X c #F0ECC1",
",X c #FDEEC4",
"<X c #FEEEC8",
"1X c #F5F4C4",
"2X c #FCF5C3",
"3X c #FCF9C3",
"4X c #F7F3CB",
"5X c #FCF5CB",
"6X c #F3FBCB",
"7X c #FEFACD",
"8X c #FEEFD5",
"9X c #FCF6D4",
"0X c #F6FBD1",
"qX c #FDFBD5",
"wX c #FDF7DB",
"eX c #F7F9DA",
"rX c #FFFDDA",
"tX c #F0F3D1",
"yX c #FEFDE3",
"uX c #F9F6E8",
"iX c #FBF4F3",
/* pixels */
"<.( ( ( 1._ _ _ _ _ 1._ _ _ _ _ _ _ _ _ _ _ 1.O._ ( ( _ 1.( _ _ _ _ ( _ _ _ _ _ _ _ _ ( _ 1.1._ _ _ 1._ _ _ _ _ _ _ _ _ _ ( _ _ ",
"q.<.:.1.1.:.:.,.:.,.:.:.:.,.,.:.,.:.,.:.:.,.:.:.,.:.1.1.:.1.1.:.:.:.:.:.:.:.:.:.:.:.:.:.:.:.:.:.:.:.,.:.,.:.,.,.:.:.:.,.:.,.;.:.",
"<.<.:.:.1.:.:.:.,.:.:.;.;.:.:.,.:.:.1.:.,.:.;.:.:.;.:.,.,.:.:.:.:.;.,.;.,.;.:.:.:.:.1.:.:.;.:.>.;.:.:.,.:.:.1.:.,.,.:.:.;.:.:.,.",
"<.1.:.:.1.1.1.1.1.1.1.1.:.1.1.1.1.1.1.1.1.1.:.1.1.:.,.:.:.:.;.1.1.1.1.1.2.1.1.:.1.1.1.1.1.1.1.1.1.1.1.1.1.1.1.1.1.1.1.1.1.1.1.1.",
"<.3.:.:.:.:.( :.:.:.:.( :.:.:.:.:.:.:.:.( :.:.:.:.:.( :.:.1.:.:.:.:.:.:.:.:.:.:.:.( :.:.( :.:.:.:.:.:.:.( :.:.:.( :.:.:.:.:.:.:.",
"<.3.:.:.:.:.:.:.:.:.:.:.:.:.:.:.:.:.:.:.:.:.:.:.:.:.:.1.F :.,.1.1.F :.1.1.:.:.:.:.:.:.:.:.:.:.:.:.:.:.:.:.:.:.:.:.:.:.:.:.:.:.:.",
"<.2.:.:.:.:.:.:.:.:.:.:.:.:.:.:.:.:.:.:.:.:.:.:.:.:.:.1.F A <.K.F.e.:.:.:.:.:.:.:.:.1.:.:.:.:.:.:.:.:.:.:.:.:.:.:.:.:.:.:.:.:.:.",
"-.1.:.:.:.:.:.:.:.:.:.:.:.:.:.:.:.:.1.:.:.:.:.:.:.:.:.:.F F b.qX7XB.2.;.:.:.:.:.:.:.:.:.:.:.:.:.:.:.:.:.:.:.:.:.:.:.:.:.:.:.:.:.",
"<.:.:.:.1.:.:.:.:.:.:.:.1.:.:.:.1.:.:.:.:.:.:.1.:.:.:.:.;.q._.9XqX[.5.>.:.:.:.:.:.:.:.:.:.:.:.:.:.:.:.:.:.:.:.:.:.:.:.:.1.:.:.:.",
"<.:.:.:.:.:.:.:.:.:.:.:.:.:.:.:.:.:.:.:.1.:.:.:.:.:.2.;.;.b.$X$X>X=Xm.q.:.:.:.:.:.:.:.1.:.:.:.1.:.:.1.:.:.:.:.1.:.:.:.:.:.:.:.:.",
"<.1.:.:.:.:.:.:.:.:.:.:.:.:.:.1.:.:.:.:.:.( :.:.:.:.w.:.6.*XS.A./.l.:X9.H :.w.F :.:.:.:.:.:.:.:.:.:.:.:.:.1.:.:.:.:.:.:.:.:.:.:.",
"<.1.:.:._ :.:.:.:.1.:.:.:.:.:.:.:.:.:.1.:.:.:.:.:.e.1.F !.%X5.[.$X9.%XY.;.:.O.F :.1.:.:.:.1.:.:.:.:.:.:.:.:.:.:.:.1.:.:.:.:.:.1.",
"<.3.:.:._ :.:.:.:.:.:.:.:.1.:.:.:.:.:.:.:.:.:.:.:.1.,.q.*Xb.k.2X3XB.r.%Xy.;.:.:.1.:.:.:.:.:.:.:.1.:.:.:.1.:.:.:.:.:.:.:.:.1.:.:.",
"<.2.:.:.:.:.:.:.:.1.:.:.:.:.:.:.:.:.:.:.:.:.:.,.;.:.<.oX`.^ %X(.!.{.5.!.T.r.;.:.1.:.:.:.:.:.:.:.:.:.:.:.:.:.:.:.:.:.1.:.:.:.:.:.",
"<.:.:.:.1.:.1.:.:.:.( :.:.1.:.:.:.:.:.:.:.( :.:.:.:.D.*Xr.S.%X9.7.%XS.9.2XS.H :.:.:.:.:.:.:.:.:.:.:.( :.:.:.:.:.:.:.:.:.:.1.:.:.",
"<.:.:.:.:.:.:.:.:.:.:.:.:.:.:.:.:.:.:.:.:.:.:.w.>.$.,XK.9.-XI.<.( M.}.g./.{.-.e.H F 1.:.1.:.:.:.:.1.:.:.:.:.:.1.:.:.:.:.:.:.:.:.",
"<.3.:.F :.:.:.:.:.:.:.1.:.:.:.:.:.:.:.:.1.:.:.1.<.c.%X9.F.%X5.D.J.*.$XK.5.-XF.;.1.:.1.1.:.:.:.:.:.:.:.1.:.:.:.:.:.1.:.:.:.:.1.:.",
"<.2.:.:.:.:.:.:.:.:.:.:.:.:.:.:.1.:.:.1.:.w.:.F r.+XM.6.3XW.9.3X0Xz.J.|.6.H.*X<.w.1.:.1.:.1.:.:.:.:.:.:.:.:.:.:.:.:.:.:.:.:.:.:.",
"<.3.:.:.:.:.:.:.1.:.:.:.:.:.:.:.:.:.:.:.:.1.1.;.G.<X@.I.7X$X+X!.#X%Xo.XX[.*.+XL.D 1.2.:.1.1.:.:.:.:.:.:.:.1.:.:.:.:.:.:.1.:.:.:.",
"<.1.:.:.( :.:.:.:.:.:.:.:.:.1.:.:.:.:.:.:.F F t.*XB.g.|.B./.qXQ x *Xc.x.J.;.z.2Xy.;.:.,.:.<.:.:.1.:.:.:.:.:.:.:.:.:.:.1.:.:.:.:.",
"<.1.:.:.:.:.:.:.:.:.1.:.:.:.:.:.:.1.:.:.:.F D n.G.5._.`.) (.oXh + v.=Xo.r.U.X.[.%Xw.,.;.1.1.:.:.:.:.:.:.:.:.:.:.:.:.:.:.:.:.:.:.",
"<.:.F :.1.:.:.:.:.:.:.:.:.:.:.:.:.1.1.:.:.:.z.m.q.n.*X5.m.2Xq.n p p -XK.$.-XW.7.=XS.2.:.1.,.;.:.:.:.( :.:.:.1.:.1.:.:.:.:.:.1.:.",
"<.1.:.:.:.:.:.:.:.:.1.:.:.:.:.:.1.1.1.1.:.<.%XK.5.-XG.*.=XJ.7.] } W { *X5.K.-X5.F.{.r.:.:.1.;.:.:.:.:.:.1.:.:.:.:.:.:.:.:.:.:.:.",
"<.1.:.:._ 1.:.:.:.:.:.:.:.:.:.:.<.:.1.:.2.m.-Xp.m.=X@.~.$X;.[.X.&.%X* oX!.$.oX/.-.}.G.( :.2.1.:.:.:.1.:.:.:.:.:.:.:.1.:.:.:.:.:.",
"<.1.:.:.1.:.:.:.:.1.:.:.:.:.:.:.:.:.:.1.5.:Xm.5.*Xb.k.5Xb.-.3XQ g 5X~ W -Xr.0.2Xg.b.{.z.>.F :.:.:.:.:.:.:.:.:.:.:.:.:.1.:.:.:.:.",
"<.2.:.:.:.:.:.:.:.:.:.:.:.:.:.:.2.:.O.<.K.%X$.T.+X;.%X~.$.@XJ.j J L.*X3 D.=X$.(.}.o.`.(.$.F F :.:.:.:.:.:.:.:.:.:.:.:.:.:.:.:.:.",
"<.1.:.:.( :.:.:.:.:.1.( :.:.:.:.:.:.1.y.qXA.b.2Xz.<.(.r.h.7XT  .M.$.{.@.z 6Xn.z.%Xb.l.2Xy.:.:.:.:.:.:.:.:.1.:.1.1.:.:.( :.:.:.1.",
"<.:.:.:.1.:.:.:.:.:.1.:.:.:.:.F :.:.S (.<X$X6XM.;.K.<.y.1Xs.7 *X2X6.H.].r d.:X^ G.=X5.K.`.y.F :.:._ ( :.:.:.:.:.:.:.:.:.:.:.:.:.",
"<.3.:.F :.:.:.:.:.:.:.:.:.:.:.:._ A u.9X@.K.6X5.v.2XD U.2X1 c.'.$X_.} -XG.% 2XG.r.*Xm.a.{.V.;.F :.:.:.:.:.:.:.:.:.:.1.:.:.1.:.:.",
"-.3.:.:.:.:.:.:.:.1.:._ :.:.:.:.1.o.%XK.=.}.S.z.*Xn.g.*XX.r 3Xg.j.-Xj.k.:Xm [ :X9.S.-X9.K.*Xe.:.:.F ,.:.1.:.:.:.:.:.:.:.:.:.:.:.",
"<.1.:.:.:.:.:.:.:.:.1.:.:.1.:.:.q..XoX;.).%X( _.=XD $XoX2 P./.o.$.K.$X&.~.$X= `.{.} -XY.9.L.t.1.G F F :.:.:.:.:.:.:.:.:.:.:.:.:.",
"<.1.:.:.:.:.:.:.:.:.:.:.1.;.:.F b.=Xe.q.-X0.t.1Xh.r.5XE ..yXK.D.m.<.-Xl.9.:X+.t *Xb.r.%Xj.:.M.r.G 2.:.:.:.:.:.1.:.:.:.:.:.1.:.:.",
"2.1.:.( :.:.:.:.:.:.:.:.:.F :.;.I.`.- e 8.) +X(.$.@XK.= a.oX=XwX2Xg.W.%X5.F.-X, S.*X5.$X[.;.U.oX2.H 1.:.:.:.:.:.:.:.:.:.:.:.:.1.",
"<.1.:.:.:.:.:.:.:.:.1.:.F F :.g.:XW R T.& d.;X<.J.0Xk.r.p 4 +X#X#X/.*.{.M.;.$Xf.j %XR. X7Xl.5.5Xb.D :.:.:.:.:.:.:.:.:.:.:.:.:.:.",
"<.1.:.:.:.:.:.1.:.:.1.:.:.1.q.{.L.5 -XL.6 %XF.5.5X2X,X9X) 7 7X9.y.2Xy.o.n.q.k.9Xk } rX[.!.-XX.K.oXq.:.:.:.:.:.:.1.:.:.1.1.:.:.:.",
"<.1.:.:.:.:.:.:.:.:.:.:.,.) m.*Xx p.3Xe a.|.X.OX;X[ +X-X0 F._.;.V !.-X( M.[.5._.G.5 2XI.} *XG.-.2XF.:.1.:.:.:.:.:.:.:.:.:.:.:.:.",
"<.3.:.:.:.:.:.:.:.:.( 2.G o.:Xy.j 3Xr.i 3Xj.q.:Xk.<.:X/ t :Xq.+ X o.*Xn.o.:XB.r.3X| W :Xa.m.=Xt.v.-Xz.:.1.:.F :.1.:.:.:.:.:.:.:.",
"<.2.:.:.1.:.:.:.:.1.( :.G K.{.- E.{.; V.OX4.$XT.-.2XF.3 %X!.N o O B m.=Xg.F.-X@.L.[.; D.[.5.[.U.5.oXL.D ,.1.:.:.:.:.:.:.:.:.:.:.",
"<.:.:.:.:.:.:.:.:.:.:.( q.&Xo.z qX` k rX!.C.3X#.y.3Xw X.=X..F < , S &.$XI.$.%XF.<.*Xp.1 :Xj.r.5Xj.c.:Xq.D :.O.:.:.:.:.1.( :.1.:.",
"<.:.:.:.1.:.2.:.;.:.:.q.[.Y.q !.L.6 %X2X_.7XF.@.:X9.K 9X9X}.*X5.[ |.=X4X:Xz.K.5Xg.m.8Xr r.U.n ~.%X^ _.$X2.:.O.:.:.:.:.:.:.:.:.:.",
"<.3.,.:.:.;.:.2.:.:.;.h.9Xx m 7Xa ^ :Xo.R.5X) !.1X& s +.i.X.a.x M (.7XP.l.w.Z $XY.} %XV.& R e 9 5XS.7.2Xn.F ( 1.:.:.:.:.:.:.:.1.",
"<.2.,.:.:.:.1.1.>.1.<.}.Y.q {.K.3 u.r.e.{.V.b.3XXX .^ [ ] ~ [ [ r.W.3XA.n.2.e./.wXk.j.].$.n.%X6 r.2X5.G.$Xo.( F 1.:.:.:.:.:.:.:.",
"<.3.:.:.;.:.w.2.>.;.W.*X> 8.:X8 p.`.D {.[.$.v.%X%X{.=X*X-X*X:X:X{.1X4X=X{.j.I.=X1X}.A.[.$X9._.D.q |.K.5.{.K.F :.1.:.:.1.:.:.:.:.",
"<.3.:.:.1.;.1.:.:.5.5Xa.6 :Xg.r 5XH.6.;XB.:.O.k.k.@.w.r.r.@.X.X.q.a.a.@.o.<.r.r.q.R.1XtXiXj.j.5XY { :X5.S.*X-.1.:.1.:.:.:.:.:.:.",
"<.1.:.:.:.,.:.,.<.L.`.5 ^.{.3 S.T.} ~.9X=X*X%X&X}.Y.m.|.{.*X&X*X&X%X*X*X*X%X:X%X}.[.1XyXyXU.q.[.`.0 T.L.i._.F.O.:.;.:.:.( :.:.:.",
"<.:.:.,.2.>.:.:.y.:X) K :XM / *X<.;.q.z.k.z.b.g.x.t.q.t.z.b.k.b.k.b.k.b.b.y.j.S.n.r.C.1Xl.r.( =.2XQ c 5Xz.r.7Xq.,.:.:.:.:.:.:.:.",
"<.>.F :.:.F F <.[.!.j {.T.i %XeX$X[.`._.~.`.~.~.~.~.`.L.`.~.T.L.~.L.`.~.~.U.M.r.G.~.[.5X(.!._.).6X2Xi m.{.*.OX%X$.:.:.:.:.:.:.:.",
"2.>.:.:.;.<.( S.*XY  .*XL a u.K.W.F.D.G.L.K.F.F.F.K.K.K.K.K.K.F.F.K.G.K.!.F.c.8.M.K.!.!.W.!.~.J.Q.D.d : *XH.5.*XS.;.:.:.( :.:.:.",
"<.1.:.:.1.;.q.-XF.q 2X).K R W x T c c U T T T T T T E I E E E R I E T T E T T U T l l c l l k b m K R P /.8X9.F.=Xq.:.:.:.:.:.:.",
"<.3.:.:.2.D F.%Xz ) :X*X|.:X-X:X*X*X:X:X:X:X:X:X:X*X*X*X*X*X*X:X*X*X:X2X3X:X:X-X-X:X-X:X:X:X3X-X*X*X*X*X%X9X=XZ.1XK.<.1.:.:.1.:.",
"e.2.1.:.1.q.1Xk.@ a z I z 7 r x x x x x k k k k k k k k k k l i ` w.q.q.;.<.q.@.x.a.a.@.a.a.@.s.s.#.#.t.r.p.A.$XuX4Xr.1.( :.:.:.",
"<.3.:.:.( K.7X=X[.~.!.~.~.`.(.[.~.(._.~._._.[._._.[.(.{.(.(.{.] { |.%X}.{.$X{.[.[.{.{.}.{.{.[.{.}.%X%X{.{.{.$X>XuXrXK.1.:.:.:.:.",
"<.1.:.:.:.t.M.H.F.F.G.F.F.F.F.G.G.G.G.G.G.n.G.G.G.G.F.F.G.G.G.! W G.G.G.G.G.G.F.G.G.G.G.M.G.G.G.G.G.F.m.m.m.F.K.H.m.r.1.:.( :.:.",
"<.1.:.:.:.:.:.( :.D :.:.:.:.:.:.( :.( ( :.:.( :.:.:.;.:.D :.:.f f :.;.:.:.:.( ( :.:.( :.:.( :.:.:.( ( :.:.,.F :.;.,.F :.:.1.:.:.",
"<.2.:.:.:.:.:.:.:.:.:.( ( :.:.:.:.:.1.1.:.:.1.1.:.:.:.:.:.:.1.n f 3.<.,.;.:.:.:.:.:.F ,.,.,.:.:.F ;.,.:.:.:.:.:.:.1.:.:.:.:.:.:.",
"<.3.:.:.:.:.( :.:.:.:.:.:.:.( :.:.:.:.( :.:.( 1.( :.:.:.:.;.3.h h 1.<.:.:.1.:.;.:.:.1.:.1.1.1.( :.1.:.:.:.1.1.:.:.:.:.:.1.:.:.:.",
"2.1.:.( :.1.:.:.:.:.:.:.:.:.:.( :.:.( :.:.:.:.( :.:.:.:.:.:.F # $ F :.:.:.:.:.:.:.:.:.1.:.1.:.1.:.( 1.:.:.1.1.1.:.:.:.:.:.:.:.:.",
"<.1.:.:.1.:.:.:.:.:.:.:.:.:.:.:.:.1.:.:.:.:.1.:.:.:.F :.:.:.C . . C >.1.:.1.:.:.( 1.:.:.:.:.:.1.:.:.:.:.:.:.:.:.:.:.:.:.:.:.:.:.",
"<.1.:.:.( :.:.:.:.:.:.:.:.:.:.:.:.:.:.:.1.:.:.:.:.:.:.:.:.:.:., f F ,.2.:.:.:.:.:.:.:.:.:.:.:.:.:.1.:.:.:.:.:.:.:.:.:.:.:.:.:.:.",
"<.1.:.:.:.:.:.:.:.:.:.:.:.:.:.:.:.:.:.:.:.:.:.:.:.:.:.:.:.:.:.:.:.,.:.;.:.1.:.:.:.:.:.:.:.:.:.:.:.:.:.:.:.:.:.:.:.:.:.:.:.:.1.:.",
"<.2.:.:.:.:.:.:.:.:.:.:.1.:.:.:.:.:.:.1.:.:.:.:.:.1.:.:.:.:.:.:.:.:.:.:.;.:.:.:.:.:.:.1.1.:.:.:.:.:.:.:.:.1.:.:.:.:.:.:.:.:.:.1.",
"<.2.:.:._ :.:.:.:.:.:.1.:.:.:.:.:.:.:.:.:.:.:.:.:.:.:.:.1.:.:.:.1.1.:.:.1.:.:.:.:.:.:.:.:.:.:.:.:.:.1.:.:.:.:.:.:.1.:.:.:.:.:.:.",
"2.1.:.:.:.:.:.:.:.1.:.:.:.:.:.:.:.:.:.:.1.:.1.:.:.:.:.:.1.:.:.:.:.:.:.:.:.:.:.:.( :.:.:.:.:.:.:.:.:.:.:.:.:.1.:.:.:.:.:.1.:.:.:.",
"<.:.:.:.1.:.:.:.:.:.:.:.:.:.:.1.1.:.:.:.:.:.:.:.:.:.:.:.:.:.:.:.:.:.:.1.>.:.1.:.:.1.:.:.:.:.:.1.:.:.:.:.:.:.:.:.:.:.:.:.:.:.:.:."
};
